<svg width="30" height="30" viewBox="0 0 30 30" fill="none" xmlns="http://www.w3.org/2000/svg">
<path d="M22.0312 0H7.96875C6.51504 0 5.33203 1.18301 5.33203 2.63672V27.3633C5.33203 28.817 6.51504 30 7.96875 30H22.0312C23.485 30 24.668 28.817 24.668 27.3633V2.63672C24.668 1.18301 23.485 0 22.0312 0ZM12.1061 17.9525C12.4488 18.2959 12.4488 18.8525 12.1061 19.1959C11.7627 19.5387 11.2061 19.5393 10.8627 19.1959L7.34707 15.6803C7.0043 15.3369 7.0043 14.7803 7.34707 14.4369L10.8627 10.9213C11.2061 10.5785 11.7627 10.5785 12.1061 10.9213C12.4488 11.2646 12.4488 11.8213 12.1061 12.1646L9.21152 15.0586L12.1061 17.9525ZM15 26.4844C14.5148 26.4844 14.1211 26.0906 14.1211 25.6055C14.1211 25.1203 14.5148 24.7266 15 24.7266C15.4852 24.7266 15.8789 25.1203 15.8789 25.6055C15.8789 26.0906 15.4852 26.4844 15 26.4844ZM17.6104 8.24063L14.0947 22.3031C13.977 22.7754 13.4988 23.0596 13.0289 22.9424C12.5584 22.8246 12.2719 22.3477 12.3896 21.8766L15.9053 7.81406C16.023 7.34355 16.5 7.05703 16.9711 7.1748C17.4416 7.29258 17.7281 7.76953 17.6104 8.24063ZM16.7578 5.27344H13.2422C12.757 5.27344 12.3633 4.87969 12.3633 4.39453C12.3633 3.90937 12.757 3.51562 13.2422 3.51562H16.7578C17.243 3.51562 17.6367 3.90937 17.6367 4.39453C17.6367 4.87969 17.243 5.27344 16.7578 5.27344ZM22.6529 15.6803L19.1373 19.1959C18.7939 19.5387 18.2373 19.5393 17.8939 19.1959C17.5512 18.8525 17.5512 18.2959 17.8939 17.9525L20.7885 15.0586L17.8939 12.1646C17.5512 11.8213 17.5512 11.2646 17.8939 10.9213C18.2373 10.5785 18.7939 10.5785 19.1373 10.9213L22.6529 14.4369C22.9957 14.7803 22.9957 15.3369 22.6529 15.6803Z" fill="#265CAA"/>
</svg>
