<svg width="34" height="34" viewBox="0 0 34 34" fill="none" xmlns="http://www.w3.org/2000/svg">
<path d="M30.1212 11.9497C30.0376 11.8675 29.9554 11.7882 29.8718 11.7103C29.8747 11.597 29.8761 11.4822 29.8761 11.3632C29.8761 6.76329 27.3233 4.23029 22.6908 4.23029C22.5675 4.23029 22.4471 4.2317 22.3267 4.23595C22.2459 4.15095 22.1623 4.06454 22.0745 3.97812C20.3986 2.3192 18.7935 1.54712 17.017 1.54712C15.2405 1.54712 13.5788 2.34187 11.9198 3.98379C11.8348 4.06737 11.7541 4.15237 11.6748 4.23454C11.5558 4.2317 11.4339 4.23029 11.3093 4.23029C6.67534 4.23029 4.12392 6.76329 4.12392 11.3632C4.12392 11.4794 4.12392 11.5941 4.12959 11.7075C4.04459 11.7868 3.96242 11.8675 3.87742 11.9511C2.82059 12.998 1.41667 14.6584 1.41667 16.9704C1.41667 18.7228 2.24542 20.4327 3.87884 22.0505C3.96242 22.1327 4.04459 22.212 4.12817 22.29C4.12534 22.4033 4.12392 22.518 4.12392 22.637C4.12392 27.237 6.67675 29.77 11.3093 29.77C11.4311 29.77 11.5529 29.7685 11.6719 29.7643C11.7541 29.8493 11.8377 29.9357 11.9255 30.0221C13.5773 31.6584 15.232 32.4531 16.9816 32.4531C18.7553 32.4531 20.4213 31.6584 22.0802 30.0165C22.1652 29.9329 22.2459 29.8479 22.3267 29.7643C22.4443 29.7671 22.5661 29.7685 22.6908 29.7685C27.3247 29.7685 29.8761 27.2355 29.8761 22.6356C29.8761 22.5195 29.8761 22.4047 29.8704 22.2914C29.954 22.212 30.0376 22.1313 30.1226 22.0477C31.1794 21.0008 32.5833 19.3405 32.5833 17.0285C32.5833 15.276 31.7546 13.5661 30.1212 11.9483V11.9497ZM28.1279 20.0375C27.9183 20.2457 27.7128 20.4327 27.5117 20.5999C27.1533 20.8974 26.9634 21.3535 27.0059 21.8182C27.0314 22.0803 27.0428 22.3537 27.0428 22.637C27.0428 25.6503 25.7408 26.9366 22.6908 26.9366C22.3904 26.9366 22.1113 26.9253 21.8478 26.9026C21.3917 26.8686 20.9341 27.0499 20.638 27.4041C20.4708 27.6039 20.2824 27.8079 20.0813 28.0076C18.9862 29.0928 17.9718 29.6198 16.9816 29.6198C16.3653 29.6198 15.3765 29.4526 13.9202 28.009C13.7077 27.798 13.5178 27.5954 13.3493 27.3956C13.0787 27.0754 12.682 26.8941 12.2669 26.8941C12.2244 26.8941 11.5968 26.9366 11.3093 26.9366C8.25917 26.9366 6.95725 25.6503 6.95725 22.637C6.95725 22.3395 6.96859 22.0647 6.99125 21.8083C7.03234 21.3408 6.84109 20.8832 6.47701 20.5871C6.27442 20.4214 6.07326 20.2358 5.87067 20.0375C4.79401 18.9721 4.24859 17.9422 4.24859 16.9718C4.24859 15.7322 5.11559 14.7122 5.87209 13.9628C6.07892 13.7574 6.28575 13.5675 6.49117 13.3975C6.84817 13.0986 7.03659 12.6439 6.99409 12.1806C6.96859 11.9185 6.95725 11.6451 6.95725 11.3632C6.95725 8.34995 8.25917 7.06362 11.3093 7.06362C11.6096 7.06362 11.8873 7.07354 12.1479 7.09762C12.6253 7.14295 13.0645 6.95029 13.3606 6.59612C13.5278 6.39637 13.7162 6.19237 13.9173 5.99262C15.0124 4.90745 16.0268 4.38045 17.017 4.38045C17.6347 4.38045 18.6235 4.54762 20.0784 5.98979C20.2895 6.20087 20.4793 6.40345 20.6479 6.6032C20.9468 6.95737 21.3874 7.14154 21.862 7.10045C22.1255 7.07637 22.4032 7.06362 22.6893 7.06362C25.7394 7.06362 27.0413 8.34995 27.0413 11.3632C27.0413 11.6607 27.03 11.9355 27.0073 12.192C26.9663 12.6595 27.1575 13.117 27.5216 13.4131C27.7242 13.5789 27.9253 13.7645 28.1279 13.9628C29.2046 15.0281 29.75 16.058 29.75 17.0285C29.75 18.268 28.8844 19.288 28.1279 20.0375Z" fill="#265CAA"/>
<path d="M22.0263 12.8067C21.3322 12.4497 20.4751 12.7217 20.1181 13.4173C18.7453 16.0792 17.0071 17.5837 16.082 18.2495C15.4091 17.7806 14.4075 17 13.7658 16.1217C13.3039 15.4913 12.4185 15.351 11.7867 15.8128C11.1548 16.2747 11.0174 17.1615 11.4778 17.7919C12.8662 19.6931 15.2589 21.097 15.3595 21.1565C15.5791 21.284 15.8256 21.3492 16.0721 21.3492C16.2903 21.3492 16.5098 21.2982 16.711 21.1976C16.8541 21.1253 20.2314 19.3786 22.6355 14.7149C22.9939 14.0193 22.7219 13.1651 22.0249 12.8067H22.0263Z" fill="#265CAA"/>
</svg>
