<svg width="27" height="36" viewBox="0 0 27 36" fill="none" xmlns="http://www.w3.org/2000/svg">
<path d="M22.4925 3.42656C19.6305 0.870564 15.7875 -0.347436 11.9355 0.0860639C5.85751 0.773064 0.886514 5.67056 0.114014 11.7306C-0.446986 16.1271 1.08001 20.3706 4.30351 23.3721C6.36601 25.2906 7.50151 27.7221 7.50151 30.2211V30.4626C7.50151 33.5151 9.98401 35.9976 13.0365 35.9976H13.965C17.0175 35.9976 19.5 33.5151 19.5 30.4626V29.6391C19.5 27.4101 20.5305 25.2801 22.398 23.6421C25.323 21.0801 27 17.3826 27 13.4976C27 9.65756 25.3575 5.98706 22.4925 3.42656ZM13.965 32.9976H13.0365C11.6385 32.9976 10.5015 31.8606 10.5015 30.4626V30.2211C10.5015 30.1461 10.5 30.0711 10.4985 29.9976H16.5015V30.4626C16.5015 31.8606 15.363 32.9976 13.9665 32.9976H13.965ZM20.421 21.3861C18.6555 22.9341 17.424 24.8961 16.857 26.9976H10.035C9.40501 24.8511 8.14801 22.8501 6.34801 21.1761C3.84151 18.8421 2.65351 15.5376 3.09151 12.1116C3.69001 7.40456 7.55251 3.60206 12.273 3.06806C12.69 3.02156 13.104 2.99756 13.515 2.99756C16.1025 2.99756 18.5445 3.92306 20.493 5.66456C22.722 7.65656 24.0015 10.5111 24.0015 13.4976C24.0015 16.5171 22.6965 19.3926 20.421 21.3861ZM19.5015 17.9976C19.5015 20.4786 17.4825 22.4976 15.0015 22.4976V23.9976C15.0015 24.8256 14.331 25.4976 13.5015 25.4976C12.672 25.4976 12.0015 24.8256 12.0015 23.9976V22.4976H11.5995C9.99901 22.4976 8.50501 21.6366 7.70251 20.2491C7.28701 19.5321 7.53301 18.6156 8.24851 18.2001C8.96701 17.7831 9.88351 18.0306 10.2975 18.7476C10.566 19.2096 11.064 19.4976 11.598 19.4976H15C15.828 19.4976 16.5 18.8241 16.5 17.9976C16.5 17.4306 16.0935 16.9506 15.534 16.8576L10.9725 16.0971C8.95951 15.7626 7.50001 14.0376 7.50001 11.9976C7.50001 9.51656 9.51901 7.49756 12 7.49756V5.99756C12 5.16956 12.6705 4.49756 13.5 4.49756C14.3295 4.49756 15 5.16956 15 5.99756V7.49756H15.402C17.0025 7.49756 18.4965 8.36006 19.299 9.74756C19.7145 10.4646 19.4685 11.3811 18.753 11.7966C18.033 12.2106 17.1165 11.9661 16.704 11.2491C16.4355 10.7856 15.9375 10.4991 15.4035 10.4991H12.0015C11.1735 10.4991 10.5015 11.1726 10.5015 11.9991C10.5015 12.5661 10.908 13.0461 11.4675 13.1391L16.029 13.8996C18.042 14.2341 19.5015 15.9591 19.5015 17.9991V17.9976Z" fill="#265CAA"/>
</svg>
