<svg width="29" height="36" viewBox="0 0 29 36" fill="none" xmlns="http://www.w3.org/2000/svg">
<path d="M8.79972 14.2499C8.79972 15.0764 8.99172 15.8594 9.33372 16.5554C8.59872 17.4974 8.14122 18.6659 8.07972 19.9394C6.66822 18.4574 5.79972 16.4534 5.79972 14.2514C5.79972 9.13486 10.4827 5.09086 15.7882 6.17986C18.9112 6.82186 21.4417 9.33736 22.1077 12.4559C22.3087 13.3979 22.3462 14.3204 22.2442 15.2024C22.1572 15.9494 21.5017 16.5014 20.7487 16.5014H20.6812C19.7932 16.5014 19.1692 15.7109 19.2667 14.8289C19.3327 14.2364 19.2982 13.6139 19.1467 12.9794C18.6997 11.0999 17.1667 9.57736 15.2842 9.14387C11.8552 8.35637 8.79822 10.9544 8.79822 14.2514L8.79972 14.2499ZM2.96472 12.3074C3.37572 9.91786 4.54422 7.73986 6.35622 6.04036C8.64972 3.89086 11.6527 2.82886 14.8012 3.02386C20.7307 3.40786 25.3672 8.60236 25.2982 14.8214C25.2697 17.4254 23.0887 19.4984 20.4862 19.4984H16.8772C16.5112 18.2549 15.3742 17.3399 14.0122 17.3399C12.3547 17.3399 11.0122 18.6824 11.0122 20.3399C11.0122 21.9974 12.3547 23.3399 14.0122 23.3399C14.8192 23.3399 15.5497 23.0174 16.0882 22.4984H20.4862C24.7147 22.4984 28.2382 19.1309 28.2982 14.9039C28.4092 7.07236 22.5262 0.517365 14.9947 0.0313645C10.9987 -0.228135 7.20822 1.12936 4.30572 3.85336C2.05722 5.96086 0.561722 8.75086 0.023222 11.7524C-0.140278 12.6644 0.581222 13.5014 1.50672 13.5014C2.21472 13.5014 2.84622 13.0079 2.96472 12.3089V12.3074ZM14.0497 25.4999C8.50722 25.4999 3.71172 28.9379 2.11722 34.0529C1.86972 34.8434 2.31222 35.6849 3.10272 35.9324C3.89172 36.1709 4.73322 35.7359 4.98072 34.9469C6.16422 31.1519 9.89172 28.4999 14.0482 28.4999C18.2047 28.4999 21.9337 31.1519 23.1157 34.9469C23.3167 35.5889 23.9077 35.9999 24.5482 35.9999C24.6967 35.9999 24.8452 35.9774 24.9952 35.9324C25.7857 35.6849 26.2267 34.8434 25.9807 34.0529C24.3862 28.9379 19.5907 25.4999 14.0482 25.4999H14.0497Z" fill="#265CAA"/>
</svg>
