<svg width="30" height="30" viewBox="0 0 30 30" fill="none" xmlns="http://www.w3.org/2000/svg">
<g clip-path="url(#clip0_0_21583)">
<path d="M11.7407 29.976C11.3886 29.954 11.0401 29.8928 10.7016 29.7936C9.82869 29.5525 9.05223 29.0464 8.47944 28.345C7.90664 27.6437 7.56578 26.7817 7.50394 25.8783C7.44211 24.9749 7.66234 24.0746 8.13424 23.3017C8.60612 22.5289 9.30637 21.9216 10.1382 21.5639C9.91526 20.4347 9.93954 19.2705 10.2094 18.1516C10.5885 16.6198 11.4414 15.2468 12.6466 14.2283C13.8518 13.2097 15.3478 12.5976 16.9213 12.4791C18.4948 12.3606 20.0655 12.7418 21.4097 13.5684C22.7538 14.395 23.8027 15.6247 24.4069 17.0824C24.5094 17.2484 24.6493 17.388 24.8154 17.4902C24.9816 17.5923 25.1693 17.6542 25.3637 17.6707C26.9325 18.0983 28.2733 19.1194 29.1025 20.5181C29.9317 21.9168 30.1841 23.5833 29.8064 25.1648C29.5453 26.2901 28.9738 27.3197 28.1569 28.1366C27.34 28.9535 26.3104 29.525 25.1851 29.7861C24.7496 29.8941 24.3044 29.9577 23.8561 29.976H11.7407ZM7.49409 20.2712C7.46971 19.3594 7.56631 18.4484 7.78137 17.5621C8.26711 15.5873 9.34383 13.8078 10.8677 12.4612C12.3916 11.1146 14.2901 10.265 16.3096 10.0259C18.3291 9.78688 20.3734 10.1697 22.1696 11.1233C23.9658 12.0769 25.4282 13.5558 26.3616 15.3625C27.73 15.7979 28.971 16.5616 29.9763 17.587C30.0059 15.4326 29.3344 13.3269 28.0629 11.5874C26.7913 9.84792 24.9887 8.56899 22.9269 7.94343C22.7126 7.87717 22.5181 7.75888 22.3608 7.59912C22.2034 7.43936 22.0881 7.24312 22.0251 7.02791C21.3642 4.90412 20.0135 3.06156 18.1871 1.79211C16.3607 0.522659 14.1629 -0.101108 11.942 0.0196187C9.72098 0.140346 7.60378 0.998664 5.92573 2.45861C4.24768 3.91856 3.10473 5.89666 2.67792 8.07958C2.23882 10.2862 2.59268 12.5769 3.67712 14.5482C2.41368 15.2005 1.38632 16.2322 0.739348 17.4984C0.0923739 18.7645 -0.141708 20.2016 0.0699838 21.6076C0.324736 22.9206 0.93802 24.1375 1.84189 25.1234C2.74575 26.1092 3.90491 26.8256 5.19092 27.1932C4.88607 25.9395 4.94042 24.6254 5.34775 23.4012C5.75508 22.177 6.49891 21.0922 7.49409 20.2712Z" fill="#265CAA"/>
</g>
<defs>
<clipPath id="clip0_0_21583">
<rect width="29.9762" height="29.9762" fill="#265CAA"/>
</clipPath>
</defs>
</svg>
