<svg width="34" height="34" viewBox="0 0 34 34" fill="none" xmlns="http://www.w3.org/2000/svg">
<mask id="mask0_0_21680" style="mask-type:alpha" maskUnits="userSpaceOnUse" x="0" y="0" width="34" height="34">
<rect width="34" height="34" fill="#D9D9D9"/>
</mask>
<g mask="url(#mask0_0_21680)">
<path d="M20.4087 29.0413C19.3804 29.0413 18.5054 28.6814 17.7836 27.9615C17.0616 27.2418 16.7005 26.3677 16.7005 25.3392C16.7005 24.311 17.0605 23.4359 17.7804 22.7142C18.5001 21.9921 19.374 21.6311 20.4023 21.6311C21.4306 21.6311 22.3057 21.9911 23.0277 22.711C23.7498 23.4306 24.1108 24.3046 24.1108 25.3329C24.1108 26.3614 23.7508 27.2365 23.0309 27.9583C22.3112 28.6803 21.4372 29.0413 20.4087 29.0413ZM23.3752 19.1247C21.3937 19.1247 19.7178 18.4395 18.3474 17.0691C16.977 15.6987 16.2918 14.0228 16.2918 12.0413C16.2918 10.0599 16.977 8.38398 18.3474 7.01359C19.7178 5.6432 21.3937 4.95801 23.3752 4.95801C25.3566 4.95801 27.0325 5.6432 28.4029 7.01359C29.7733 8.38398 30.4585 10.0599 30.4585 12.0413C30.4585 14.0228 29.7733 15.6987 28.4029 17.0691C27.0325 18.4395 25.3566 19.1247 23.3752 19.1247ZM10.0805 24.9546C8.67182 24.9546 7.466 24.4531 6.463 23.4501C5.46 22.4471 4.9585 21.2414 4.9585 19.833C4.9585 18.4246 5.46 17.2189 6.463 16.2159C7.466 15.2129 8.67182 14.7114 10.0805 14.7114C11.4889 14.7114 12.6946 15.2129 13.6976 16.2159C14.7006 17.2189 15.2021 18.4246 15.2021 19.833C15.2021 21.2414 14.7006 22.4471 13.6976 23.4501C12.6946 24.4531 11.4889 24.9546 10.0805 24.9546Z" fill="#265CAA"/>
</g>
</svg>
