<svg width="30" height="30" viewBox="0 0 30 30" fill="none" xmlns="http://www.w3.org/2000/svg">
<g clip-path="url(#clip0_0_16441)">
<path d="M22.4925 2.85742C20.1075 0.727423 16.905 -0.287577 13.695 0.0736731C8.63004 0.646173 4.48754 4.72742 3.84379 9.77742C3.37629 13.4412 4.64879 16.9774 7.33504 19.4787C9.05379 21.0774 10 23.1037 10 25.1862V25.3874C10 27.9312 12.0688 29.9999 14.6125 29.9999H15.3863C17.93 29.9999 19.9988 27.9312 19.9988 25.3874V24.7012C19.9988 22.8437 20.8575 21.0687 22.4138 19.7037C24.8513 17.5687 26.2488 14.4874 26.2488 11.2499C26.2488 8.04992 24.88 4.99117 22.4925 2.85742ZM15.3863 27.4999H14.6125C13.4475 27.4999 12.5 26.5524 12.5 25.3874V25.1862C12.5 25.1237 12.4988 25.0612 12.4975 24.9999H17.5V25.3874C17.5 26.5524 16.5513 27.4999 15.3875 27.4999H15.3863ZM20.7663 17.8237C19.295 19.1137 18.2688 20.7487 17.7963 22.4999H12.1113C11.5863 20.7112 10.5388 19.0437 9.03879 17.6487C6.95004 15.7037 5.96004 12.9499 6.32504 10.0949C6.82379 6.17242 10.0425 3.00367 13.9763 2.55867C14.3238 2.51992 14.6688 2.49992 15.0113 2.49992C17.1675 2.49992 19.2025 3.27117 20.8263 4.72242C22.6838 6.38242 23.75 8.76117 23.75 11.2499C23.75 13.7662 22.6625 16.1624 20.7663 17.8237ZM20 14.9999C20 17.0674 18.3175 18.7499 16.25 18.7499V19.9999C16.25 20.6899 15.6913 21.2499 15 21.2499C14.3088 21.2499 13.75 20.6899 13.75 19.9999V18.7499H13.415C12.0813 18.7499 10.8363 18.0324 10.1675 16.8762C9.82129 16.2787 10.0263 15.5149 10.6225 15.1687C11.2213 14.8212 11.985 15.0274 12.33 15.6249C12.5538 16.0099 12.9688 16.2499 13.4138 16.2499H16.2488C16.9388 16.2499 17.4988 15.6887 17.4988 14.9999C17.4988 14.5274 17.16 14.1274 16.6938 14.0499L12.8925 13.4162C11.215 13.1374 9.99879 11.6999 9.99879 9.99992C9.99879 7.93242 11.6813 6.24992 13.7488 6.24992V4.99992C13.7488 4.30992 14.3075 3.74992 14.9988 3.74992C15.69 3.74992 16.2488 4.30992 16.2488 4.99992V6.24992H16.5838C17.9175 6.24992 19.1625 6.96867 19.8313 8.12492C20.1775 8.72242 19.9725 9.48617 19.3763 9.83242C18.7763 10.1774 18.0125 9.97367 17.6688 9.37617C17.445 8.98992 17.03 8.75117 16.585 8.75117H13.75C13.06 8.75117 12.5 9.31242 12.5 10.0012C12.5 10.4737 12.8388 10.8737 13.305 10.9512L17.1063 11.5849C18.7838 11.8637 20 13.3012 20 15.0012V14.9999Z" fill="#265CAA"/>
</g>
<defs>
<clipPath id="clip0_0_16441">
<rect width="30" height="30" fill="#265CAA"/>
</clipPath>
</defs>
</svg>
