<svg width="30" height="30" viewBox="0 0 30 30" fill="none" xmlns="http://www.w3.org/2000/svg">
<g clip-path="url(#clip0_0_16464)">
<path d="M30 12.5004V20.0004C30 23.4467 27.1963 26.2504 23.75 26.2504H16.25V27.5004H20C20.6912 27.5004 21.25 28.0592 21.25 28.7504C21.25 29.4417 20.6912 30.0004 20 30.0004H10C9.30875 30.0004 8.75 29.4417 8.75 28.7504C8.75 28.0592 9.30875 27.5004 10 27.5004H13.75V26.2504H6.25C2.80375 26.2504 0 23.4467 0 20.0004V12.5004C0 9.64668 1.9275 7.15793 4.68875 6.44793C5.3525 6.28043 6.03875 6.67793 6.21125 7.34668C6.38375 8.01543 5.98 8.69668 5.31125 8.86793C3.65625 9.29418 2.5 10.7879 2.5 12.5004V20.0004C2.5 22.0679 4.1825 23.7504 6.25 23.7504H23.75C25.8175 23.7504 27.5 22.0679 27.5 20.0004V12.5004C27.5 10.7879 26.3438 9.29418 24.6887 8.86793C24.02 8.69668 23.6175 8.01418 23.7887 7.34668C23.9613 6.67793 24.65 6.27918 25.3113 6.44793C28.0725 7.15793 30 9.64668 30 12.5004ZM7.88 11.4179L9.07125 10.7304C8.8625 10.1079 8.75 9.44293 8.75 8.75168C8.75 8.06043 8.86375 7.39418 9.07125 6.77293L7.88 6.08543C7.28125 5.74043 7.07625 4.97543 7.4225 4.37793C7.7675 3.77918 8.5325 3.57418 9.13 3.92043L10.325 4.61043C11.2075 3.61668 12.4 2.90418 13.75 2.62918V1.25293C13.75 0.56293 14.3088 0.00292969 15 0.00292969C15.6912 0.00292969 16.25 0.56293 16.25 1.25293V2.62918C17.6 2.90418 18.7937 3.61668 19.675 4.61043L20.87 3.92043C21.465 3.57418 22.2313 3.77918 22.5775 4.37793C22.9225 4.97668 22.7175 5.74043 22.12 6.08543L20.9287 6.77293C21.1375 7.39543 21.25 8.06043 21.25 8.75168C21.25 9.44293 21.1362 10.1092 20.9287 10.7304L22.12 11.4179C22.7187 11.7629 22.9237 12.5279 22.5775 13.1254C22.345 13.5267 21.9263 13.7504 21.4937 13.7504C21.2812 13.7504 21.0662 13.6967 20.87 13.5829L19.675 12.8929C18.7925 13.8867 17.6 14.5992 16.25 14.8742V16.2504C16.25 16.9417 15.6912 17.5004 15 17.5004C14.3088 17.5004 13.75 16.9417 13.75 16.2504V14.8742C12.4 14.5992 11.2063 13.8867 10.325 12.8929L9.13 13.5829C8.93375 13.6967 8.71875 13.7504 8.50625 13.7504C8.07375 13.7504 7.65375 13.5267 7.4225 13.1254C7.0775 12.5267 7.2825 11.7629 7.88 11.4179ZM11.25 8.75043C11.25 10.8179 12.9325 12.5004 15 12.5004C17.0675 12.5004 18.75 10.8179 18.75 8.75043C18.75 6.68293 17.0675 5.00043 15 5.00043C12.9325 5.00043 11.25 6.68293 11.25 8.75043Z" fill="#265CAA"/>
<path d="M15 10.625C16.035 10.625 16.875 9.785 16.875 8.75C16.875 7.715 16.035 6.875 15 6.875C13.965 6.875 13.125 7.715 13.125 8.75C13.125 9.785 13.965 10.625 15 10.625Z" fill="#265CAA"/>
</g>
<defs>
<clipPath id="clip0_0_16464">
<rect width="30" height="30" fill="#265CAA"/>
</clipPath>
</defs>
</svg>
