<svg width="30" height="30" viewBox="0 0 30 30" fill="none" xmlns="http://www.w3.org/2000/svg">
<path d="M21.0838 20.3787C21.4276 19.78 21.2226 19.0163 20.6238 18.6712L19.8001 18.1963C19.9176 17.7725 20.0001 17.335 20.0001 16.8737C20.0001 16.4125 19.9176 15.975 19.8001 15.5513L20.6238 15.0763C21.2226 14.7312 21.4276 13.9675 21.0838 13.3687C20.7401 12.7712 19.9738 12.565 19.3763 12.9087L18.5651 13.3763C17.9401 12.7388 17.1401 12.2812 16.2501 12.05V11.2475C16.2501 10.5575 15.6901 9.9975 15.0001 9.9975C14.3101 9.9975 13.7501 10.5575 13.7501 11.2475V12.05C12.8601 12.2812 12.0613 12.7388 11.4351 13.3763L10.6238 12.9087C10.0263 12.5662 9.26135 12.7712 8.91635 13.3687C8.5726 13.9675 8.7776 14.7312 9.37635 15.0763L10.2001 15.5513C10.0826 15.975 10.0001 16.4125 10.0001 16.8737C10.0001 17.335 10.0826 17.7725 10.2001 18.1963L9.37635 18.6712C8.7776 19.0163 8.5726 19.78 8.91635 20.3787C9.26385 20.9825 10.0351 21.1787 10.6238 20.8387L11.4351 20.3713C12.0601 21.0088 12.8601 21.4662 13.7501 21.6975V22.5C13.7501 23.19 14.3101 23.75 15.0001 23.75C15.6901 23.75 16.2501 23.19 16.2501 22.5V21.6975C17.1401 21.4662 17.9388 21.0088 18.5651 20.3713L19.3763 20.8387C19.9638 21.18 20.7363 20.9825 21.0838 20.3787ZM15.0001 19.375C13.6213 19.375 12.5001 18.2537 12.5001 16.875C12.5001 15.4963 13.6213 14.375 15.0001 14.375C16.3788 14.375 17.5001 15.4963 17.5001 16.875C17.5001 18.2537 16.3788 19.375 15.0001 19.375ZM5.6251 8.75C8.0376 8.75 10.0001 6.7875 10.0001 4.375C10.0001 1.9625 8.0376 0 5.6251 0C3.2126 0 1.2501 1.9625 1.2501 4.375C1.2501 6.7875 3.2126 8.75 5.6251 8.75ZM5.6251 2.5C6.65885 2.5 7.5001 3.34125 7.5001 4.375C7.5001 5.40875 6.65885 6.25 5.6251 6.25C4.59135 6.25 3.7501 5.40875 3.7501 4.375C3.7501 3.34125 4.59135 2.5 5.6251 2.5ZM24.3751 8.75C26.7876 8.75 28.7501 6.7875 28.7501 4.375C28.7501 1.9625 26.7876 0 24.3751 0C21.9626 0 20.0001 1.9625 20.0001 4.375C20.0001 6.7875 21.9626 8.75 24.3751 8.75ZM24.3751 2.5C25.4088 2.5 26.2501 3.34125 26.2501 4.375C26.2501 5.40875 25.4088 6.25 24.3751 6.25C23.3413 6.25 22.5001 5.40875 22.5001 4.375C22.5001 3.34125 23.3413 2.5 24.3751 2.5ZM9.2951 23.2987C10.2338 24.2362 10.2338 25.7638 9.2951 26.7025L6.3626 29.635C5.87385 30.1238 5.08385 30.1238 4.5951 29.635C4.10635 29.1462 4.10635 28.3563 4.5951 27.8675L6.21135 26.2512H5.0001C2.24385 26.25 9.72523e-05 24.0075 9.72523e-05 21.25V18.75C9.72523e-05 18.06 0.560097 17.5 1.2501 17.5C1.9401 17.5 2.5001 18.06 2.5001 18.75V21.25C2.5001 22.6287 3.62135 23.75 5.0001 23.75H6.21135L4.5951 22.1338C4.10635 21.645 4.10635 20.855 4.5951 20.3662C5.08385 19.8775 5.87385 19.8775 6.3626 20.3662L9.2951 23.2987ZM0.143847 13.1687C1.17135 11.215 3.27135 10 5.6251 10C5.8851 10 6.1426 10.015 6.3951 10.045C7.0801 10.125 7.57135 10.745 7.49135 11.4313C7.41135 12.1175 6.7876 12.615 6.1051 12.5275C4.59635 12.35 3.00885 13.09 2.35635 14.3313C2.03385 14.9475 1.2676 15.1737 0.667597 14.8563C0.0563472 14.535 -0.178653 13.7788 0.142597 13.1675L0.143847 13.1687ZM24.3751 10C26.7288 10 28.8288 11.2137 29.8563 13.1687C30.1776 13.78 29.9426 14.5362 29.3313 14.8575C28.7326 15.175 27.9663 14.9487 27.6426 14.3325C26.9901 13.09 25.4001 12.3525 23.8938 12.5287C23.2088 12.6163 22.5876 12.1175 22.5076 11.4325C22.4276 10.7475 22.9188 10.1262 23.6038 10.0462C23.8563 10.0175 24.1126 10.0013 24.3738 10.0013L24.3751 10ZM23.6376 20.3662C24.1263 19.8775 24.9163 19.8775 25.4051 20.3662C25.8938 20.855 25.8938 21.645 25.4051 22.1338L23.7888 23.75H25.0001C26.3788 23.75 27.5001 22.6287 27.5001 21.25V18.75C27.5001 18.06 28.0601 17.5 28.7501 17.5C29.4401 17.5 30.0001 18.06 30.0001 18.75V21.25C30.0001 24.0075 27.7576 26.25 25.0001 26.25H23.7888L25.4051 27.8662C25.8938 28.355 25.8938 29.145 25.4051 29.6338C24.9163 30.1225 24.1263 30.1225 23.6376 29.6338L20.7051 26.7013C19.7663 25.7638 19.7663 24.2362 20.7051 23.2975L23.6376 20.3662Z" fill="#265CAA"/>
</svg>
