<svg width="34" height="34" viewBox="0 0 34 34" fill="none" xmlns="http://www.w3.org/2000/svg">
<mask id="mask0_0_21689" style="mask-type:alpha" maskUnits="userSpaceOnUse" x="0" y="0" width="34" height="34">
<rect width="34" height="34" fill="#D9D9D9"/>
</mask>
<g mask="url(#mask0_0_21689)">
<path d="M17.0841 26.6174L20.8085 22.9149L17.0841 19.2124L15.8966 20.4003L17.6373 22.1411C16.7583 22.1557 15.9491 22.0381 15.2099 21.7883C14.4706 21.5387 13.8486 21.1614 13.3438 20.6564C12.8442 20.157 12.4659 19.5867 12.209 18.9454C11.9521 18.3044 11.8237 17.6633 11.8237 17.0223C11.8237 16.6209 11.8722 16.2195 11.9693 15.8181C12.0665 15.4167 12.205 15.0316 12.3847 14.6628L11.126 13.4587C10.7883 14.0036 10.5387 14.5752 10.3769 15.1735C10.2152 15.7718 10.1343 16.3808 10.1343 17.0003C10.1343 17.8699 10.3047 18.728 10.6454 19.5744C10.9859 20.4211 11.4871 21.1777 12.1492 21.8443C12.8112 22.5108 13.6149 23.0084 14.5603 23.3371C15.5055 23.666 16.4767 23.8376 17.4741 23.852L15.8966 25.4295L17.0841 26.6174ZM22.8871 20.542C23.225 19.997 23.4747 19.4254 23.6362 18.8271C23.7979 18.2288 23.8788 17.6199 23.8788 17.0003C23.8788 16.1324 23.7121 15.27 23.3787 14.4131C23.0456 13.5565 22.5457 12.7971 21.8792 12.1348C21.2216 11.4682 20.4157 10.9742 19.4613 10.6526C18.5069 10.331 17.533 10.1702 16.5394 10.1702L18.1169 8.57116L16.929 7.38328L13.2049 11.0857L16.929 14.7882L18.1169 13.6003L16.3542 11.8376C17.2186 11.8376 18.0314 11.9661 18.7926 12.223C19.5536 12.4801 20.1806 12.8555 20.6736 13.3492C21.1666 13.8432 21.5426 14.411 21.8016 15.0528C22.0604 15.6947 22.1898 16.3366 22.1898 16.9784C22.1898 17.3798 22.1412 17.7811 22.0439 18.1825C21.9468 18.5839 21.8084 18.969 21.6284 19.3378L22.8871 20.542ZM17.0023 30.4587C15.1408 30.4587 13.3911 30.1054 11.7532 29.399C10.1153 28.6925 8.69061 27.7338 7.47913 26.5228C6.26764 25.3118 5.30844 23.8877 4.60152 22.2505C3.89484 20.6133 3.5415 18.8641 3.5415 17.0028C3.5415 15.1413 3.89473 13.3916 4.60117 11.7537C5.30761 10.1158 6.26634 8.6911 7.47736 7.47962C8.68837 6.26813 10.1125 5.30893 11.7497 4.60201C13.3869 3.89533 15.1361 3.54199 16.9974 3.54199C18.8589 3.54199 20.6086 3.89521 22.2465 4.60166C23.8844 5.3081 25.3091 6.26683 26.5205 7.47785C27.732 8.68886 28.6912 10.113 29.3981 11.7502C30.1048 13.3874 30.4582 15.1366 30.4582 16.9978C30.4582 18.8593 30.1049 20.609 29.3985 22.247C28.6921 23.8849 27.7333 25.3095 26.5223 26.521C25.3113 27.7325 23.8872 28.6917 22.25 29.3986C20.6128 30.1053 18.8636 30.4587 17.0023 30.4587Z" fill="#265CAA"/>
</g>
</svg>
