<svg width="30" height="30" viewBox="0 0 30 30" fill="none" xmlns="http://www.w3.org/2000/svg">
<g clip-path="url(#clip0_0_11579)">
<path d="M15 7.5C14.0111 7.5 13.0444 7.79324 12.2222 8.34265C11.3999 8.89206 10.759 9.67295 10.3806 10.5866C10.0022 11.5002 9.90315 12.5055 10.0961 13.4755C10.289 14.4454 10.7652 15.3363 11.4645 16.0355C12.1637 16.7348 13.0546 17.211 14.0246 17.4039C14.9945 17.5969 15.9998 17.4978 16.9134 17.1194C17.8271 16.741 18.6079 16.1001 19.1574 15.2779C19.7068 14.4556 20 13.4889 20 12.5C20 11.1739 19.4732 9.90215 18.5355 8.96447C17.5979 8.02678 16.3261 7.5 15 7.5ZM15 15C14.5055 15 14.0222 14.8534 13.6111 14.5787C13.2 14.304 12.8795 13.9135 12.6903 13.4567C12.5011 12.9999 12.4516 12.4972 12.548 12.0123C12.6445 11.5273 12.8826 11.0819 13.2322 10.7322C13.5819 10.3826 14.0273 10.1445 14.5123 10.048C14.9972 9.95157 15.4999 10.0011 15.9567 10.1903C16.4135 10.3795 16.804 10.7 17.0787 11.1111C17.3534 11.5222 17.5 12.0055 17.5 12.5C17.5 13.163 17.2366 13.7989 16.7678 14.2678C16.2989 14.7366 15.663 15 15 15Z" fill="#265CAA"/>
<path d="M14.9999 30.0006C13.9473 30.0059 12.9088 29.7591 11.9712 29.2806C11.0337 28.8022 10.2244 28.106 9.61115 27.2505C4.8474 20.6793 2.43115 15.7393 2.43115 12.5668C2.43115 9.23336 3.75536 6.03645 6.11245 3.67935C8.46955 1.32225 11.6665 -0.00195312 14.9999 -0.00195312C18.3333 -0.00195312 21.5303 1.32225 23.8874 3.67935C26.2445 6.03645 27.5687 9.23336 27.5687 12.5668C27.5687 15.7393 25.1524 20.6793 20.3887 27.2505C19.7754 28.106 18.9661 28.8022 18.0286 29.2806C17.091 29.7591 16.0525 30.0059 14.9999 30.0006ZM14.9999 2.7268C12.3904 2.72977 9.88867 3.76771 8.04349 5.61289C6.19831 7.45807 5.16038 9.95982 5.1574 12.5693C5.1574 15.0818 7.52365 19.7281 11.8187 25.6518C12.1833 26.154 12.6616 26.5628 13.2145 26.8446C13.7675 27.1265 14.3793 27.2734 14.9999 27.2734C15.6205 27.2734 16.2323 27.1265 16.7853 26.8446C17.3382 26.5628 17.8165 26.154 18.1812 25.6518C22.4762 19.7281 24.8424 15.0818 24.8424 12.5693C24.8394 9.95982 23.8015 7.45807 21.9563 5.61289C20.1111 3.76771 17.6094 2.72977 14.9999 2.7268Z" fill="#265CAA"/>
</g>
<defs>
<clipPath id="clip0_0_11579">
<rect width="30" height="30" fill="white"/>
</clipPath>
</defs>
</svg>
