<svg width="34" height="34" viewBox="0 0 34 34" fill="none" xmlns="http://www.w3.org/2000/svg">
<mask id="mask0_0_21671" style="mask-type:alpha" maskUnits="userSpaceOnUse" x="0" y="0" width="34" height="34">
<rect width="34" height="34" fill="#D9D9D9"/>
</mask>
<g mask="url(#mask0_0_21671)">
<path d="M17.0002 14.1663H23.8111V12.0413H17.0002V14.1663ZM17.0002 21.958H23.8111V19.833H17.0002V21.958ZM12.7502 15.3921C13.3794 15.3921 13.9181 15.168 14.3662 14.7199C14.8144 14.2718 15.0384 13.7331 15.0384 13.1038C15.0384 12.4746 14.8144 11.9359 14.3662 11.4878C13.9181 11.0396 13.3794 10.8156 12.7502 10.8156C12.1209 10.8156 11.5822 11.0396 11.1341 11.4878C10.686 11.9359 10.4619 12.4746 10.4619 13.1038C10.4619 13.7331 10.686 14.2718 11.1341 14.7199C11.5822 15.168 12.1209 15.3921 12.7502 15.3921ZM12.7502 23.1838C13.3794 23.1838 13.9181 22.9597 14.3662 22.5116C14.8144 22.0634 15.0384 21.5247 15.0384 20.8955C15.0384 20.2663 14.8144 19.7276 14.3662 19.2794C13.9181 18.8313 13.3794 18.6072 12.7502 18.6072C12.1209 18.6072 11.5822 18.8313 11.1341 19.2794C10.686 19.7276 10.4619 20.2663 10.4619 20.8955C10.4619 21.5247 10.686 22.0634 11.1341 22.5116C11.5822 22.9597 12.1209 23.1838 12.7502 23.1838ZM7.51948 29.0413C6.80382 29.0413 6.19808 28.7934 5.70225 28.2976C5.20641 27.8018 4.9585 27.196 4.9585 26.4804V7.51899C4.9585 6.80333 5.20641 6.19759 5.70225 5.70176C6.19808 5.20592 6.80382 4.95801 7.51948 4.95801H26.4809C27.1965 4.95801 27.8022 5.20592 28.2981 5.70176C28.7939 6.19759 29.0418 6.80333 29.0418 7.51899V26.4804C29.0418 27.196 28.7939 27.8018 28.2981 28.2976C27.8022 28.7934 27.1965 29.0413 26.4809 29.0413H7.51948Z" fill="#265CAA"/>
</g>
</svg>
