<svg width="30" height="30" viewBox="0 0 30 30" fill="none" xmlns="http://www.w3.org/2000/svg">
<g clip-path="url(#clip0_0_21598)">
<path d="M26.8227 5.65801C26.4255 5.42944 25.9309 5.43944 25.5437 5.68424C25.154 5.9278 24.9292 6.36495 24.9579 6.82334C24.9729 7.04441 24.9816 7.26923 24.9816 7.4953C24.9816 13.0047 20.499 17.4874 14.9896 17.4874C9.4802 17.4874 4.99625 13.0034 4.99625 7.49405C4.99625 7.26798 5.005 7.04441 5.01998 6.82209C5.04871 6.3637 4.82514 5.92655 4.4342 5.68299C4.04451 5.43944 3.5524 5.42944 3.15521 5.65676C1.20926 6.76588 0.00146484 8.84548 0.00146484 11.0825V19.9829C0.00146484 23.4264 2.80299 26.2279 6.24651 26.2279H13.7406V27.477H9.99354C9.30284 27.477 8.74453 28.0353 8.74453 28.726C8.74453 29.4167 9.30284 29.975 9.99354 29.975H19.9856C20.6763 29.975 21.2346 29.4167 21.2346 28.726C21.2346 28.0353 20.6763 27.477 19.9856 27.477H16.2386V26.2279H23.7326C27.1762 26.2279 29.9777 23.4264 29.9777 19.9829V11.0825C29.9777 8.84548 28.7686 6.76588 26.8239 5.65676L26.8227 5.65801ZM21.0235 9.52994L20.3366 9.134C20.4977 8.61192 20.6089 8.0686 20.6089 7.49405C20.6089 6.91951 20.4977 6.37619 20.3366 5.85411L21.0235 5.45817C21.6218 5.11344 21.8267 4.3503 21.4819 3.75327C21.1372 3.155 20.3741 2.95016 19.7758 3.29364L19.0963 3.68583C18.3407 2.87147 17.3564 2.28069 16.2373 2.02464V1.24901C16.2373 0.559556 15.6778 0 14.9883 0C14.2989 0 13.7393 0.559556 13.7393 1.24901V2.02464C12.6202 2.28069 11.6347 2.87147 10.8803 3.68583L10.2009 3.29364C9.6026 2.94891 8.83945 3.155 8.49473 3.75327C8.15 4.35155 8.35609 5.11469 8.95311 5.45942L9.64007 5.85536C9.47895 6.37744 9.36778 6.92076 9.36778 7.4953C9.36778 8.06985 9.47895 8.61317 9.64007 9.13525L8.95311 9.53119C8.35484 9.87592 8.15 10.6391 8.49473 11.2373C8.83945 11.8356 9.6026 12.0404 10.2009 11.697L10.8803 11.3048C11.636 12.1191 12.6202 12.7099 13.7393 12.966V13.7416C13.7393 14.4311 14.2989 14.9906 14.9883 14.9906C15.6778 14.9906 16.2373 14.4311 16.2373 13.7416V12.966C17.3564 12.7099 18.3419 12.1191 19.0963 11.3048L19.7758 11.697C20.3741 12.0417 21.1372 11.8356 21.4819 11.2386C21.8267 10.6403 21.6206 9.87716 21.0235 9.53244V9.52994ZM14.9883 9.36882C13.9554 9.36882 13.1148 8.52823 13.1148 7.4953C13.1148 6.46237 13.9554 5.62179 14.9883 5.62179C16.0213 5.62179 16.8618 6.46237 16.8618 7.4953C16.8618 8.52823 16.0213 9.36882 14.9883 9.36882Z" fill="#265CAA"/>
</g>
<defs>
<clipPath id="clip0_0_21598">
<rect width="29.9762" height="29.9762" fill="#265CAA"/>
</clipPath>
</defs>
</svg>
