<svg width="53" height="53" viewBox="0 0 53 53" fill="none" xmlns="http://www.w3.org/2000/svg">
<g clip-path="url(#clip0_41_5267)">
<path d="M41.2383 24.6348C41.6217 24.7934 42.0627 24.7057 42.3559 24.4125L48.5082 18.2601C48.9088 17.86 48.9088 17.2107 48.5082 16.8102L42.3559 10.6578C42.0627 10.3646 41.6213 10.2769 41.2383 10.4355C40.8554 10.5941 40.6055 10.9683 40.6055 11.3828V13.4336H38.5547C35.666 13.4336 32.8646 14.2095 30.3516 15.6931V8.10157H32.4024C32.8169 8.10157 33.191 7.85163 33.3496 7.46871C33.5083 7.08539 33.4205 6.64439 33.1273 6.35119L26.975 0.198845C26.5749 -0.201698 25.9256 -0.201698 25.525 0.198845L19.3727 6.35119C19.0795 6.64439 18.9918 7.08539 19.1504 7.46871C19.309 7.85163 19.6831 8.10157 20.0977 8.10157H22.1484V15.6931C19.635 14.2095 16.834 13.4336 13.9453 13.4336H11.8945V11.3828C11.8945 10.9683 11.6446 10.5941 11.2617 10.4355C10.8784 10.2765 10.4374 10.3646 10.1442 10.6578L3.99181 16.8102C3.59127 17.2103 3.59127 17.8596 3.99181 18.2601L10.1442 24.4125C10.4374 24.7057 10.8784 24.7934 11.2617 24.6348C11.6446 24.4762 11.8945 24.1021 11.8945 23.6875V21.6367H13.9453C17.2354 21.6367 20.2094 23.6418 21.4876 26.6163C18.0365 27.9417 15.2263 30.6962 13.8544 34.1569C13.6453 34.6832 13.9029 35.2792 14.4296 35.4879C14.9559 35.697 15.5519 35.4391 15.7606 34.9127C17.4008 30.7771 21.4679 27.7891 26.25 27.7891C32.609 27.7891 37.5293 33.0074 37.5293 39.0684C37.5293 42.5151 35.936 45.7595 33.2844 47.8827C32.6102 44.5438 29.641 42.1446 26.25 42.1446C22.8566 42.1446 19.8894 44.5458 19.2157 47.8819C17.6868 46.6587 16.4848 45.0501 15.7606 43.224C15.5519 42.6977 14.9559 42.4402 14.4292 42.6488C13.9029 42.8575 13.6453 43.4535 13.854 43.9798C15.8042 48.8973 20.6112 52.3985 26.25 52.3985C33.7326 52.3985 39.5801 46.289 39.5801 39.0684C39.5801 33.3586 36.0093 28.5361 31.0125 26.6163C32.2902 23.6418 35.2646 21.6367 38.5547 21.6367H40.6055V23.6875C40.6055 24.1021 40.8554 24.4762 41.2383 24.6348ZM21.1271 49.118C21.2296 46.4272 23.4374 44.1953 26.25 44.1953C29.0634 44.1953 31.27 46.4276 31.373 49.118C29.7956 49.9231 28.0368 50.3477 26.25 50.3477C24.4632 50.3477 22.7044 49.9231 21.1271 49.118ZM38.5547 19.5859C34.3614 19.5859 30.5799 22.1919 29.0366 26.0307C28.1254 25.8368 27.1921 25.7383 26.25 25.7383C25.3079 25.7383 24.3743 25.8368 23.4634 26.0307C21.9201 22.1919 18.1386 19.5859 13.9453 19.5859H10.8691C10.3028 19.5859 9.84375 20.045 9.84375 20.6113V21.2122L6.16676 17.5352L9.84375 13.8582V14.459C9.84375 15.0254 10.3028 15.4844 10.8691 15.4844H13.9453C17.0307 15.4844 20.0079 16.5034 22.555 18.4316C22.8654 18.6667 23.282 18.7056 23.6305 18.5321C23.9789 18.3591 24.1992 18.0034 24.1992 17.6141V7.07618C24.1992 6.50981 23.7402 6.05078 23.1738 6.05078H22.573L26.25 2.3738L29.927 6.05078H29.3262C28.7598 6.05078 28.3008 6.50981 28.3008 7.07618V17.6141C28.3008 18.0034 28.5211 18.3591 28.8696 18.5321C29.218 18.7056 29.6346 18.6667 29.945 18.4316C32.4921 16.5034 35.4689 15.4844 38.5547 15.4844H41.6309C42.1972 15.4844 42.6563 15.0254 42.6563 14.459V13.8582L46.3333 17.5352L42.6563 21.2122V20.6113C42.6563 20.045 42.1972 19.5859 41.6309 19.5859H38.5547Z" fill="white"/>
<path d="M31.377 37.0176C31.377 34.1905 29.077 31.8906 26.25 31.8906C23.423 31.8906 21.123 34.1905 21.123 37.0176C21.123 39.8446 23.423 42.1445 26.25 42.1445C29.077 42.1445 31.377 39.8446 31.377 37.0176ZM26.25 40.0938C24.5537 40.0938 23.1738 38.7139 23.1738 37.0176C23.1738 35.3213 24.5537 33.9414 26.25 33.9414C27.9463 33.9414 29.3262 35.3213 29.3262 37.0176C29.3262 38.7139 27.9463 40.0938 26.25 40.0938Z" fill="white"/>
<path d="M14.9707 39.0684C14.9707 39.6347 14.5117 40.0938 13.9453 40.0938C13.3789 40.0938 12.9199 39.6347 12.9199 39.0684C12.9199 38.502 13.3789 38.043 13.9453 38.043C14.5117 38.043 14.9707 38.502 14.9707 39.0684Z" fill="white"/>
</g>
<defs>
<clipPath id="clip0_41_5267">
<rect width="52.5" height="52.5" fill="white"/>
</clipPath>
</defs>
</svg>
