<svg width="82" height="70" viewBox="0 0 82 70" fill="none" xmlns="http://www.w3.org/2000/svg">
<g opacity="0.25">
<path fill-rule="evenodd" clip-rule="evenodd" d="M47.5664 42.2823C47.2533 42.7364 46.9402 43.1811 46.6177 43.6163C37.548 56.0196 25.1863 62.8789 12.2175 65.0644C11.5439 65.1779 10.8703 65.282 10.1873 65.3671C10.2252 65.2157 10.2632 65.0738 10.3011 64.9319C18.4126 33.124 50.5738 30.3141 55.6304 26.3311C53.4673 32.3955 50.7351 37.6937 47.5664 42.2823Z" fill="#265CAA"/>
<path fill-rule="evenodd" clip-rule="evenodd" d="M50.4505 41.2605C53.5243 36.4448 56.1996 30.948 58.5619 24.7416C66.1706 20.8531 73.0297 15.9618 75.3825 10.1338C74.69 19.5286 72.6977 27.419 69.6903 34.0323C69.6618 34.089 69.6428 34.1458 69.6144 34.1931C60.1747 54.714 40.8306 62.7464 19.959 64.5818C33.2599 60.4663 42.9082 52.9448 50.2418 41.601C50.2987 41.4875 50.3746 41.374 50.4505 41.2605Z" fill="#265CAA" fill-opacity="0.2"/>
<path fill-rule="evenodd" clip-rule="evenodd" d="M59.767 5.66797C59.3685 11.969 58.2965 17.9294 56.6552 23.4736C56.6268 23.5492 56.6078 23.6344 56.5888 23.7195C51.7409 28.9988 19.1433 30.153 5.80443 62.6042H5.78546C3.78368 19.973 45.9158 28.0905 59.767 5.66797Z" fill="#265CAA" fill-opacity="0.5"/>
<path d="M23.6876 68.3184C26.6381 68.3279 29.6265 68.1008 32.558 67.6372C35.4801 67.1736 38.3831 66.483 41.1913 65.5653C46.9025 63.7109 52.1868 60.9861 56.8924 57.4856L56.4845 56.9463C47.1776 63.8812 35.5275 67.6751 23.6876 67.6467V68.3184Z" fill="#265CAA"/>
<path d="M64.2824 50.5127C64.216 50.5884 64.1496 50.6641 64.0737 50.7303L64.5671 51.1939C64.6335 51.1276 64.6904 51.0614 64.7568 50.9857C67.1001 48.4691 69.2252 45.6781 71.0752 42.6884C72.9347 39.6704 74.538 36.4442 75.8187 33.0855C77.09 29.7458 78.0577 26.2736 78.6933 22.7636C79.1202 20.3983 79.4048 18.0236 79.5282 15.6395C79.3384 15.6584 79.1487 15.6395 78.959 15.6016C78.921 15.5922 78.8925 15.5827 78.8546 15.5732C78.1715 28.6105 72.9631 41.1747 64.2824 50.5127Z" fill="#265CAA"/>
<path d="M80.2773 12.1585C81.1785 12.6505 81.5011 13.7858 81.0078 14.6846C80.7137 15.2239 80.1919 15.555 79.6321 15.6307C79.5942 15.6402 79.5657 15.6402 79.5278 15.6402C79.338 15.6591 79.1483 15.6402 78.9586 15.6023C78.9206 15.5929 78.8921 15.5834 78.8542 15.574C78.7309 15.5361 78.598 15.4888 78.4842 15.4226C77.5829 14.9306 77.2604 13.7953 77.7537 12.8965C78.247 11.9977 79.3855 11.6666 80.2773 12.1585ZM78.8068 14.8265C78.8352 14.836 78.8542 14.8549 78.8827 14.8644C78.9491 14.8928 79.0155 14.9212 79.0914 14.9401C79.2432 14.9779 79.4045 14.9874 79.5562 14.959C79.5847 14.959 79.6037 14.9495 79.6321 14.9495C79.9547 14.8833 80.2488 14.6752 80.4196 14.363C80.7326 13.7953 80.5239 13.0668 79.9547 12.7546C79.8409 12.6978 79.727 12.6505 79.6037 12.6316C79.376 12.5843 79.1388 12.6127 78.9301 12.6978C78.6834 12.8019 78.4747 12.9722 78.3419 13.2182C78.0288 13.7953 78.2375 14.5143 78.8068 14.8265Z" fill="#265CAA"/>
<path d="M23.0419 66.3513C23.5637 66.6257 23.9053 67.1082 24.0096 67.6475C24.057 67.8651 24.057 68.0921 24.0191 68.3192C23.9906 68.4989 23.9242 68.6882 23.8388 68.8585C23.6112 69.3031 23.2222 69.6248 22.7478 69.7762C22.2735 69.9276 21.7707 69.8803 21.3248 69.6532L21.2868 69.6343C20.8599 69.3977 20.5563 69.0193 20.4045 68.5652C20.3286 68.3287 20.3096 68.0827 20.3286 67.8461C20.3476 67.6096 20.4235 67.3731 20.5373 67.146C21.0022 66.2283 22.1312 65.8688 23.0419 66.3513ZM21.0402 68.357C21.135 68.6598 21.3437 68.9058 21.6284 69.0571C21.913 69.2085 22.226 69.2274 22.5296 69.1328C22.8332 69.0382 23.0799 68.8301 23.2317 68.5463C23.5353 67.9691 23.3171 67.269 22.7573 66.9568L22.7383 66.9473C22.1596 66.6446 21.4386 66.8717 21.135 67.4488C20.9737 67.7326 20.9453 68.0543 21.0402 68.357Z" fill="#265CAA"/>
<path d="M57.357 54.5534C57.8313 54.402 58.3342 54.4493 58.7801 54.6764C58.7895 54.6859 58.8085 54.6858 58.818 54.6953C59.7003 55.1778 60.0418 56.2848 59.5675 57.1836C59.3398 57.6282 58.9508 57.9499 58.4765 58.1013C58.0021 58.2526 57.4993 58.2053 57.0534 57.9783L57.0155 57.9594C56.8732 57.8837 56.7403 57.7891 56.6265 57.6755C56.4557 57.5147 56.3229 57.3349 56.228 57.1268C55.9814 56.6159 55.9719 56.0009 56.2565 55.4617C56.4842 55.0264 56.8732 54.6953 57.357 54.5534ZM56.8542 55.7739C56.5506 56.351 56.7783 57.07 57.357 57.3728C57.6416 57.5147 57.9642 57.5431 58.2583 57.4485C58.5619 57.3539 58.8085 57.1457 58.9603 56.8619C59.2639 56.2942 59.0457 55.5846 58.486 55.2724C58.4765 55.2724 58.467 55.263 58.467 55.263C58.1824 55.1211 57.8693 55.0927 57.5657 55.1873C57.2716 55.2819 57.0344 55.4806 56.8826 55.7455L56.8542 55.7739Z" fill="#265CAA"/>
<path d="M64.1213 50.4186C64.1782 50.447 64.2256 50.4848 64.2826 50.5132C64.4723 50.6457 64.6336 50.8065 64.7569 50.9863C65.1459 51.5445 65.2028 52.3013 64.8518 52.9352C64.3585 53.834 63.22 54.1652 62.3187 53.6732C61.4175 53.1812 61.0854 52.0459 61.5882 51.1471C62.091 50.2578 63.22 49.9266 64.1213 50.4186ZM62.6508 53.0866C63.22 53.3988 63.9505 53.1907 64.2636 52.623C64.5767 52.0459 64.3679 51.3269 63.7987 51.0146C63.2295 50.7024 62.499 50.9106 62.1859 51.4877C61.8634 52.0554 62.0721 52.7744 62.6508 53.0866Z" fill="#265CAA"/>
<path d="M40.7163 14.6561C40.8871 14.8169 41.0009 15.0251 41.0578 15.2427C41.2571 15.1291 41.4563 15.0156 41.6555 14.9021C43.9894 13.5775 46.1904 12.1395 48.3534 10.5216C51.3324 8.29831 54.1975 5.7533 56.8918 2.95285L56.408 2.48926C51.7783 7.3049 46.845 11.1839 41.333 14.3155C41.1243 14.429 40.9155 14.5426 40.7163 14.6561Z" fill="#265CAA"/>
<path d="M1.41151 58.7067L2.08509 58.6594C1.59176 51.5921 2.97688 44.7896 6.10761 38.9806C7.69196 36.0571 9.65578 33.4175 11.9422 31.1469L11.4678 30.6738C9.13399 32.9918 7.13222 35.6882 5.51942 38.6684C3.65995 42.1311 2.39817 45.906 1.77202 49.8891C1.31664 52.7369 1.1933 55.7076 1.41151 58.7067Z" fill="#265CAA"/>
<path d="M13.6875 28.5922L14.1334 29.1031C14.2188 29.0274 14.3136 28.9517 14.399 28.876C16.3154 27.2203 18.1275 25.9904 19.6549 24.997L20.7649 24.2874C23.592 22.4236 26.3622 20.9666 29.2368 19.8218C31.4948 18.923 33.8476 18.1188 36.1245 17.3525C36.855 17.1065 37.6139 16.8511 38.3634 16.5862C38.5816 16.5105 38.8093 16.4348 39.0275 16.3591L39.018 16.3307C38.8662 16.1699 38.7714 15.9617 38.7334 15.7441C38.5247 15.8198 38.3065 15.8955 38.0883 15.9617C37.3578 16.2172 36.6273 16.4632 35.9157 16.7092C33.6294 17.485 31.2671 18.2891 28.9997 19.1974C26.0776 20.3611 23.26 21.8465 20.4044 23.7292L19.3039 24.4388C17.748 25.4511 15.898 26.7094 13.9342 28.4029C13.8488 28.4597 13.7729 28.5259 13.6875 28.5922Z" fill="#265CAA"/>
<path d="M58.5426 0.227881C59.4439 0.719852 59.7664 1.85517 59.2731 2.75397C58.7798 3.65276 57.6413 3.98389 56.7401 3.49192C55.8388 2.99995 55.5162 1.86463 56.0096 0.965838C56.5124 0.0670438 57.6413 -0.264091 58.5426 0.227881ZM57.0721 2.89588C57.6413 3.20809 58.3718 2.99995 58.6849 2.43229C58.998 1.86463 58.7893 1.13614 58.22 0.823923C57.6508 0.51171 56.9203 0.719852 56.6072 1.28751C56.2847 1.86463 56.4934 2.58367 57.0721 2.89588Z" fill="#265CAA"/>
<path d="M13.7637 28.2894C13.8207 28.3178 13.8776 28.3556 13.9345 28.3935C14.1243 28.5259 14.2855 28.6868 14.4089 28.876C14.7883 29.4342 14.8453 30.1816 14.5037 30.8155C14.0104 31.7143 12.872 32.0454 11.9707 31.5534C11.8758 31.5061 11.7904 31.4494 11.7145 31.3831C11.5343 31.2412 11.3825 31.0709 11.2686 30.8723C10.9461 30.3235 10.9081 29.6234 11.2402 29.0274C11.724 28.1286 12.8625 27.7974 13.7637 28.2894ZM12.2838 30.9574C12.853 31.2696 13.5835 31.0615 13.8966 30.4938C14.2096 29.9167 14.0009 29.1977 13.4317 28.8854C12.8625 28.5732 12.132 28.7814 11.8189 29.3585C11.5058 29.9262 11.7145 30.6452 12.2838 30.9574Z" fill="#265CAA"/>
<path d="M1.38289 58.3851C1.6011 58.3284 1.82879 58.3095 2.05648 58.3284C2.29365 58.3473 2.54032 58.423 2.76801 58.546C3.66928 59.038 4.00133 60.1733 3.49851 61.0721C3.00518 61.9709 1.86674 62.302 0.965462 61.81C0.0641891 61.3181 -0.26786 60.1827 0.234955 59.2839C0.491107 58.8298 0.918026 58.5176 1.38289 58.3851ZM1.29751 61.2234C1.86674 61.5357 2.59724 61.3275 2.91031 60.7504C3.22339 60.1733 3.01467 59.4542 2.44545 59.142C1.86674 58.8298 1.14572 59.038 0.832644 59.6056C0.510083 60.1922 0.718798 60.9112 1.29751 61.2234Z" fill="#265CAA"/>
<path d="M40.8023 13.8802C41.011 13.9938 41.1818 14.1357 41.3241 14.306C41.4759 14.4763 41.5802 14.6749 41.6561 14.8926C41.8269 15.3751 41.7984 15.9238 41.5328 16.4063C41.0395 17.3051 39.901 17.6362 38.9997 17.1443C38.7341 17.0024 38.5254 16.8037 38.3641 16.5671C38.2313 16.3779 38.1364 16.1698 38.089 15.9522C37.9846 15.517 38.0321 15.0439 38.2692 14.6182C38.7626 13.7194 39.901 13.3883 40.8023 13.8802ZM39.0187 16.3117C39.1041 16.4063 39.2085 16.4915 39.3223 16.5482C39.8915 16.8604 40.622 16.6523 40.9351 16.0752C41.0869 15.8008 41.1154 15.4981 41.0489 15.2237C40.992 15.0061 40.8782 14.7979 40.7074 14.6371C40.6315 14.5709 40.5556 14.5047 40.4608 14.4573C39.8915 14.1451 39.161 14.3533 38.8479 14.9304C38.7056 15.1764 38.6677 15.4602 38.7246 15.7157C38.772 15.9427 38.8669 16.1509 39.0187 16.3117Z" fill="#265CAA"/>
</g>
</svg>
