<svg width="50" height="50" viewBox="0 0 50 50" fill="none" xmlns="http://www.w3.org/2000/svg">
<path d="M8.30635 6.3875C7.72094 5.39792 8.04593 4.12083 9.0376 3.53333C10.0251 2.94792 11.3043 3.27292 11.8918 4.26458L13.1272 6.34792C13.7126 7.3375 13.3876 8.61458 12.3959 9.20208C11.423 9.78333 10.1314 9.47083 9.54177 8.47083L8.30635 6.3875ZM44.1459 29.7375C41.0418 33.8042 34.4272 40.625 25.0001 40.625C15.323 40.625 8.83135 33.8896 5.82302 29.8729C3.69385 27.0312 3.69802 23.0896 5.83344 20.2875C8.93969 16.2125 15.5605 9.375 25.0001 9.375C34.5918 9.375 41.1168 16.1229 44.1543 20.1458C46.2959 22.9833 46.2918 26.9271 44.1459 29.7375ZM40.8293 22.6562C38.2605 19.2521 32.7876 13.5417 25.0001 13.5417C17.3564 13.5417 11.7876 19.3521 9.14802 22.8146C8.12093 24.1625 8.1251 25.9958 9.15843 27.375C11.7001 30.7667 17.1376 36.4583 25.0001 36.4583C32.6334 36.4583 38.1959 30.6646 40.8334 27.2104C41.8668 25.8583 41.8647 24.0292 40.8293 22.6562ZM33.3334 25C33.3334 29.5958 29.5959 33.3333 25.0001 33.3333C20.4043 33.3333 16.6668 29.5958 16.6668 25C16.6668 20.4042 20.4043 16.6667 25.0001 16.6667C29.5959 16.6667 33.3334 20.4042 33.3334 25ZM29.1668 25C29.1668 22.7021 27.298 20.8333 25.0001 20.8333C22.7022 20.8333 20.8334 22.7021 20.8334 25C20.8334 27.2979 22.7022 29.1667 25.0001 29.1667C27.298 29.1667 29.1668 27.2979 29.1668 25ZM25.0001 6.25C26.1501 6.25 27.0834 5.31667 27.0834 4.16667V2.08333C27.0834 0.933333 26.1501 0 25.0001 0C23.8501 0 22.9168 0.933333 22.9168 2.08333V4.16667C22.9168 5.31667 23.8501 6.25 25.0001 6.25ZM37.6043 9.20208C38.5772 9.78333 39.8689 9.47083 40.4584 8.47083L41.6939 6.3875C42.2793 5.39792 41.9543 4.12083 40.9626 3.53333C39.9751 2.94792 38.6959 3.27292 38.1084 4.26458L36.873 6.34792C36.2876 7.3375 36.6126 8.61458 37.6043 9.20208ZM40.4584 41.5292C39.8709 40.5375 38.5938 40.2125 37.6043 40.7979C36.6147 41.3833 36.2876 42.6625 36.873 43.6521L38.1084 45.7354C38.698 46.7333 39.9897 47.0458 40.9626 46.4667C41.9522 45.8792 42.2793 44.6021 41.6939 43.6125L40.4584 41.5292ZM25.0001 43.75C23.8501 43.75 22.9168 44.6833 22.9168 45.8333V47.9167C22.9168 49.0667 23.8501 50 25.0001 50C26.1501 50 27.0834 49.0667 27.0834 47.9167V45.8333C27.0834 44.6833 26.1501 43.75 25.0001 43.75ZM12.3959 40.7979C11.4064 40.2104 10.1293 40.5375 9.54177 41.5292L8.30635 43.6125C7.72094 44.6021 8.04593 45.8792 9.0376 46.4667C10.0105 47.0479 11.3022 46.7354 11.8918 45.7354L13.1272 43.6521C13.7126 42.6625 13.3876 41.3854 12.3959 40.7979Z" fill="white"/>
</svg>
