<svg width="56" height="56" viewBox="0 0 56 56" fill="none" xmlns="http://www.w3.org/2000/svg">
<path d="M53.375 37.625H50.75V11.375C50.75 10.4099 49.9651 9.625 49 9.625H7C6.03487 9.625 5.25 10.4099 5.25 11.375V37.625H2.625C2.142 37.625 1.75 38.017 1.75 38.5C1.75 42.8418 5.28325 46.375 9.625 46.375H46.375C50.7168 46.375 54.25 42.8418 54.25 38.5C54.25 38.017 53.858 37.625 53.375 37.625ZM7 11.375H49V37.625H47.25V14C47.25 13.517 46.858 13.125 46.375 13.125H15.75V14.875H45.5V37.625H10.5V14.875H14V13.125H9.625C9.142 13.125 8.75 13.517 8.75 14V37.625H7V11.375ZM46.375 44.625H9.625C6.54413 44.625 3.98825 42.3395 3.56213 39.375H52.437C52.0118 42.3395 49.4559 44.625 46.375 44.625Z" fill="white"/>
<path d="M14.875 41.125H41.125V42.875H14.875V41.125Z" fill="white"/>
<path d="M21.315 31.297L22.435 29.953L17.9918 26.25L22.435 22.547L21.315 21.203L16.065 25.578C15.8655 25.7443 15.75 25.9901 15.75 26.25C15.75 26.5099 15.8655 26.7558 16.065 26.922L21.315 31.297Z" fill="white"/>
<path d="M34.6849 31.297L39.9349 26.922C40.1344 26.7558 40.2499 26.5099 40.2499 26.25C40.2499 25.9901 40.1344 25.7443 39.9349 25.578L34.6849 21.203L33.5649 22.547L38.0082 26.25L33.5649 29.953L34.6849 31.297Z" fill="white"/>
<path d="M23.7622 31.0352L30.7608 19.6558L32.2518 20.5728L25.2532 31.9522L23.7622 31.0352Z" fill="white"/>
</svg>
