<svg width="56" height="56" viewBox="0 0 56 56" fill="none" xmlns="http://www.w3.org/2000/svg">
<g clip-path="url(#clip0_0_31577)">
<path d="M53.2 25.2C51.9848 25.2 50.9581 25.9831 50.5717 27.0667H44.8V23.3333H50.4C50.9161 23.3333 51.3333 22.9161 51.3333 22.4C51.3333 21.8839 50.9161 21.4667 50.4 21.4667H44.8V17.7333H51.3333C52.3628 17.7333 53.2 16.8961 53.2 15.8667V13.8283C54.2836 13.4419 55.0667 12.4152 55.0667 11.2C55.0667 9.65627 53.8104 8.4 52.2667 8.4C50.7229 8.4 49.4667 9.65627 49.4667 11.2C49.4667 12.4152 50.2497 13.4419 51.3333 13.8283V15.8667H44.8V14.9333C44.8 12.8744 43.1256 11.2 41.0667 11.2H40.1333V4.66667H42.1717C42.5581 5.75027 43.5848 6.53333 44.8 6.53333C46.3437 6.53333 47.6 5.27707 47.6 3.73333C47.6 2.1896 46.3437 0.933333 44.8 0.933333C43.5848 0.933333 42.5581 1.7164 42.1717 2.8H40.1333C39.1039 2.8 38.2667 3.6372 38.2667 4.66667V11.2H34.5333V5.6C34.5333 5.08387 34.1161 4.66667 33.6 4.66667C33.0839 4.66667 32.6667 5.08387 32.6667 5.6V11.2H28.9333V5.42827C30.0169 5.04187 30.8 4.0152 30.8 2.8C30.8 1.25627 29.5437 0 28 0C26.4563 0 25.2 1.25627 25.2 2.8C25.2 4.0152 25.9831 5.04187 27.0667 5.42827V11.2H23.3333V5.6C23.3333 5.08387 22.9161 4.66667 22.4 4.66667C21.8839 4.66667 21.4667 5.08387 21.4667 5.6V11.2H17.7333V4.66667C17.7333 3.6372 16.8961 2.8 15.8667 2.8H13.8283C13.4419 1.7164 12.4152 0.933333 11.2 0.933333C9.65627 0.933333 8.4 2.1896 8.4 3.73333C8.4 5.27707 9.65627 6.53333 11.2 6.53333C12.4152 6.53333 13.4419 5.75027 13.8283 4.66667H15.8667V11.2H14.9333C12.8744 11.2 11.2 12.8744 11.2 14.9333V15.8667H4.66667V13.8283C5.75027 13.4419 6.53333 12.4152 6.53333 11.2C6.53333 9.65627 5.27707 8.4 3.73333 8.4C2.1896 8.4 0.933333 9.65627 0.933333 11.2C0.933333 12.4152 1.7164 13.4419 2.8 13.8283V15.8667C2.8 16.8961 3.6372 17.7333 4.66667 17.7333H11.2V21.4667H5.6C5.08387 21.4667 4.66667 21.8839 4.66667 22.4C4.66667 22.9161 5.08387 23.3333 5.6 23.3333H11.2V27.0667H5.42827C5.04187 25.9831 4.0152 25.2 2.8 25.2C1.25627 25.2 0 26.4563 0 28C0 29.5437 1.25627 30.8 2.8 30.8C4.0152 30.8 5.04187 30.0169 5.42827 28.9333H11.2V32.6667H5.6C5.08387 32.6667 4.66667 33.0839 4.66667 33.6C4.66667 34.1161 5.08387 34.5333 5.6 34.5333H11.2V38.2667H4.66667C3.6372 38.2667 2.8 39.1039 2.8 40.1333V42.1717C1.7164 42.5581 0.933333 43.5848 0.933333 44.8C0.933333 46.3437 2.1896 47.6 3.73333 47.6C5.27707 47.6 6.53333 46.3437 6.53333 44.8C6.53333 43.5848 5.75027 42.5581 4.66667 42.1717V40.1333H11.2V41.0667C11.2 43.1256 12.8744 44.8 14.9333 44.8H15.8667V51.3333H13.8283C13.4419 50.2497 12.4152 49.4667 11.2 49.4667C9.65627 49.4667 8.4 50.7229 8.4 52.2667C8.4 53.8104 9.65627 55.0667 11.2 55.0667C12.4152 55.0667 13.4419 54.2836 13.8283 53.2H15.8667C16.8961 53.2 17.7333 52.3628 17.7333 51.3333V44.8H21.4667V50.4C21.4667 50.9161 21.8839 51.3333 22.4 51.3333C22.9161 51.3333 23.3333 50.9161 23.3333 50.4V44.8H27.0667V50.5717C25.9831 50.9581 25.2 51.9848 25.2 53.2C25.2 54.7437 26.4563 56 28 56C29.5437 56 30.8 54.7437 30.8 53.2C30.8 51.9848 30.0169 50.9581 28.9333 50.5717V44.8H32.6667V50.4C32.6667 50.9161 33.0839 51.3333 33.6 51.3333C34.1161 51.3333 34.5333 50.9161 34.5333 50.4V44.8H38.2667V51.3333C38.2667 52.3628 39.1039 53.2 40.1333 53.2H42.1717C42.5581 54.2836 43.5848 55.0667 44.8 55.0667C46.3437 55.0667 47.6 53.8104 47.6 52.2667C47.6 50.7229 46.3437 49.4667 44.8 49.4667C43.5848 49.4667 42.5581 50.2497 42.1717 51.3333H40.1333V44.8H41.0667C43.1256 44.8 44.8 43.1256 44.8 41.0667V40.1333H51.3333V42.1717C50.2497 42.5581 49.4667 43.5848 49.4667 44.8C49.4667 46.3437 50.7229 47.6 52.2667 47.6C53.8104 47.6 55.0667 46.3437 55.0667 44.8C55.0667 43.5848 54.2836 42.5581 53.2 42.1717V40.1333C53.2 39.1039 52.3628 38.2667 51.3333 38.2667H44.8V34.5333H50.4C50.9161 34.5333 51.3333 34.1161 51.3333 33.6C51.3333 33.0839 50.9161 32.6667 50.4 32.6667H44.8V28.9333H50.5717C50.9581 30.0169 51.9848 30.8 53.2 30.8C54.7437 30.8 56 29.5437 56 28C56 26.4563 54.7437 25.2 53.2 25.2ZM52.2667 10.2667C52.7819 10.2667 53.2 10.6848 53.2 11.2C53.2 11.7152 52.7819 12.1333 52.2667 12.1333C51.7515 12.1333 51.3333 11.7152 51.3333 11.2C51.3333 10.6848 51.7515 10.2667 52.2667 10.2667ZM44.8 2.8C45.3152 2.8 45.7333 3.21813 45.7333 3.73333C45.7333 4.24853 45.3152 4.66667 44.8 4.66667C44.2848 4.66667 43.8667 4.24853 43.8667 3.73333C43.8667 3.21813 44.2848 2.8 44.8 2.8ZM28 1.86667C28.5152 1.86667 28.9333 2.2848 28.9333 2.8C28.9333 3.3152 28.5152 3.73333 28 3.73333C27.4848 3.73333 27.0667 3.3152 27.0667 2.8C27.0667 2.2848 27.4848 1.86667 28 1.86667ZM11.2 4.66667C10.6848 4.66667 10.2667 4.24853 10.2667 3.73333C10.2667 3.21813 10.6848 2.8 11.2 2.8C11.7152 2.8 12.1333 3.21813 12.1333 3.73333C12.1333 4.24853 11.7152 4.66667 11.2 4.66667ZM3.73333 10.2667C4.24853 10.2667 4.66667 10.6848 4.66667 11.2C4.66667 11.7152 4.24853 12.1333 3.73333 12.1333C3.21813 12.1333 2.8 11.7152 2.8 11.2C2.8 10.6848 3.21813 10.2667 3.73333 10.2667ZM2.8 28.9333C2.2848 28.9333 1.86667 28.5152 1.86667 28C1.86667 27.4848 2.2848 27.0667 2.8 27.0667C3.3152 27.0667 3.73333 27.4848 3.73333 28C3.73333 28.5152 3.3152 28.9333 2.8 28.9333ZM3.73333 45.7333C3.21813 45.7333 2.8 45.3152 2.8 44.8C2.8 44.2848 3.21813 43.8667 3.73333 43.8667C4.24853 43.8667 4.66667 44.2848 4.66667 44.8C4.66667 45.3152 4.24853 45.7333 3.73333 45.7333ZM11.2 53.2C10.6848 53.2 10.2667 52.7819 10.2667 52.2667C10.2667 51.7515 10.6848 51.3333 11.2 51.3333C11.7152 51.3333 12.1333 51.7515 12.1333 52.2667C12.1333 52.7819 11.7152 53.2 11.2 53.2ZM28 54.1333C27.4848 54.1333 27.0667 53.7152 27.0667 53.2C27.0667 52.6848 27.4848 52.2667 28 52.2667C28.5152 52.2667 28.9333 52.6848 28.9333 53.2C28.9333 53.7152 28.5152 54.1333 28 54.1333ZM44.8 51.3333C45.3152 51.3333 45.7333 51.7515 45.7333 52.2667C45.7333 52.7819 45.3152 53.2 44.8 53.2C44.2848 53.2 43.8667 52.7819 43.8667 52.2667C43.8667 51.7515 44.2848 51.3333 44.8 51.3333ZM52.2667 45.7333C51.7515 45.7333 51.3333 45.3152 51.3333 44.8C51.3333 44.2848 51.7515 43.8667 52.2667 43.8667C52.7819 43.8667 53.2 44.2848 53.2 44.8C53.2 45.3152 52.7819 45.7333 52.2667 45.7333ZM42.9333 41.0667C42.9333 42.0961 42.0961 42.9333 41.0667 42.9333H14.9333C13.9039 42.9333 13.0667 42.0961 13.0667 41.0667V14.9333C13.0667 13.9039 13.9039 13.0667 14.9333 13.0667H41.0667C42.0961 13.0667 42.9333 13.9039 42.9333 14.9333V41.0667ZM53.2 28.9333C52.6848 28.9333 52.2667 28.5152 52.2667 28C52.2667 27.4848 52.6848 27.0667 53.2 27.0667C53.7152 27.0667 54.1333 27.4848 54.1333 28C54.1333 28.5152 53.7152 28.9333 53.2 28.9333Z" fill="white"/>
<path d="M23.81 20.7289C23.6616 20.0644 23.082 19.5996 22.3998 19.5996C21.7175 19.5996 21.1379 20.0644 20.9886 20.7308L17.7546 35.2637C17.6435 35.7668 17.9608 36.2652 18.4639 36.3772C18.9595 36.4873 19.4644 36.1728 19.5774 35.6679L20.661 30.7987H24.1376L25.2212 35.6679C25.3183 36.1037 25.7047 36.3987 26.1322 36.3987C26.1994 36.3987 26.2684 36.3912 26.3356 36.3772C26.8387 36.2652 27.156 35.7668 27.045 35.2637L23.81 20.7289ZM21.0772 28.9329L22.4007 22.9857L23.7242 28.9329H21.0772Z" fill="white"/>
<path d="M35.4669 21.4663C35.9831 21.4663 36.4003 21.0491 36.4003 20.5329C36.4003 20.0168 35.9831 19.5996 35.4669 19.5996H29.8669C29.3508 19.5996 28.9336 20.0168 28.9336 20.5329C28.9336 21.0491 29.3508 21.4663 29.8669 21.4663H31.7336V34.5329H29.8669C29.3508 34.5329 28.9336 34.9501 28.9336 35.4663C28.9336 35.9824 29.3508 36.3996 29.8669 36.3996H35.4669C35.9831 36.3996 36.4003 35.9824 36.4003 35.4663C36.4003 34.9501 35.9831 34.5329 35.4669 34.5329H33.6003V21.4663H35.4669Z" fill="white"/>
</g>
<defs>
<clipPath id="clip0_0_31577">
<rect width="56" height="56" fill="white"/>
</clipPath>
</defs>
</svg>
