<svg width="56" height="56" viewBox="0 0 56 56" fill="none" xmlns="http://www.w3.org/2000/svg">
<path d="M47.3456 37.4182C45.988 36.9091 44.4607 37.0788 43.1032 37.9273L34.9577 42.8485C34.6183 42.594 34.2789 42.3394 33.9395 42.2546L21.6365 37.8424C20.7032 37.503 19.685 37.503 18.8365 37.9273C18.8365 37.9273 18.7516 37.9273 18.7516 38.0121L13.8304 40.9818V40.7273C13.8304 39.794 13.0668 39.0303 12.1335 39.0303H8.06074C7.12741 39.0303 6.36377 39.794 6.36377 40.7273V53.4546C6.36377 54.3879 7.12741 55.1515 8.06074 55.1515H12.0486C12.982 55.1515 13.7456 54.3879 13.7456 53.4546V53.0303C15.6123 52.0121 16.3759 51.0788 17.6486 51.2485L31.2244 54.2182C32.3274 54.5576 33.5153 54.3031 34.5335 53.6243L48.3638 42.6788C50.2304 41.4061 50.0607 38.4364 47.3456 37.4182ZM8.06074 53.4546V40.7273H12.0486V53.4546H8.06074ZM47.3456 41.3212C33.2607 52.0121 33.6001 53.1152 31.6486 52.5212L17.988 49.5515H17.9032C15.9516 49.2121 14.5941 50.5697 13.7456 50.994V42.8485L19.5153 39.3697C20.0244 39.2 20.5335 39.2 21.0426 39.3697L33.3456 43.7818C34.4486 44.2061 34.8729 45.5637 34.1941 46.497C33.685 47.1758 32.8365 47.4303 31.988 47.0909L24.691 44.2909C24.2668 44.1212 23.7577 44.3758 23.588 44.8C23.4183 45.2243 23.6729 45.7334 24.0971 45.903L31.3941 48.7031C32.9213 49.3818 34.6183 48.8727 35.5517 47.6C36.2304 46.6667 36.485 45.5637 35.9759 44.2909L44.0365 39.4546C44.885 38.9455 45.9032 38.7758 46.8365 39.1152C48.1092 39.5394 48.1941 40.7273 47.3456 41.3212Z" fill="white"/>
<path d="M26.5577 28.9331C27.3213 29.4422 27.8304 30.2907 28.0001 31.1392C27.2365 31.5634 26.8122 32.4119 26.8122 33.2604C26.8122 34.4483 27.6607 35.4665 28.8486 35.721L29.188 38.4362C29.2728 38.8604 29.6122 39.1998 30.0365 39.1998H36.6547C37.0789 39.1998 37.4183 38.8604 37.5031 38.4362L37.8425 35.6362C38.8607 35.2968 39.7092 34.3634 39.7092 33.2604C39.7092 32.3271 39.2001 31.5634 38.5213 31.1392C38.6062 30.2907 39.1153 29.4422 39.9637 28.8483C43.1031 26.6422 45.0547 23.0786 45.0547 19.2604C45.0547 12.6422 39.5395 7.29677 32.8365 7.63617C26.8122 7.89071 21.8062 13.0665 21.7213 19.0907C21.4668 23.0786 23.3334 26.7271 26.5577 28.9331ZM30.7153 37.5877L30.5456 35.8907H36.0607L35.891 37.5877H30.7153ZM36.994 34.1937H29.2728C28.8486 34.1937 28.4243 33.8543 28.4243 33.3453C28.4243 32.921 28.7637 32.4968 29.2728 32.4968H36.994C37.4183 32.4968 37.8425 32.8362 37.8425 33.3453C37.8425 33.7695 37.5031 34.1937 36.994 34.1937ZM32.6668 9.41798C38.3516 9.16344 43.1031 13.7453 43.1031 19.3453C43.1031 22.6543 41.491 25.7089 38.7759 27.5756C37.588 28.3392 36.8243 29.5271 36.6547 30.8847H29.6971C29.5274 29.6119 28.7637 28.424 27.5759 27.5756C24.8607 25.7089 23.2486 22.5695 23.2486 19.2604C23.3334 14.0847 27.5759 9.67253 32.6668 9.41798Z" fill="white"/>
<path d="M32.9216 13.6608C36.1459 13.4911 38.861 16.1214 38.861 19.3457C38.861 19.8548 39.2004 20.1942 39.7095 20.1942C40.2186 20.1942 40.558 19.8548 40.558 19.3457C40.558 15.1881 37.0792 11.7942 32.8368 11.9639C32.3277 11.9639 31.9883 12.3881 31.9883 12.8123C31.9883 13.3214 32.4125 13.6608 32.9216 13.6608Z" fill="white"/>
<path d="M33.1761 5.85445C33.6852 5.85445 34.0246 5.51506 34.0246 5.00596V1.69687C34.0246 1.18778 33.6852 0.848389 33.1761 0.848389C32.667 0.848389 32.3276 1.18778 32.3276 1.69687V5.00596C32.3276 5.51506 32.667 5.85445 33.1761 5.85445Z" fill="white"/>
<path d="M27.1516 6.27842C27.3213 6.61782 27.5759 6.78751 27.9153 6.78751C28.0001 6.78751 28.1698 6.78751 28.2547 6.70266C28.6789 6.53297 28.9334 6.02388 28.6789 5.59963L27.4062 2.54509C27.2365 2.12085 26.7274 1.8663 26.3031 2.12085C25.8789 2.29054 25.6244 2.79963 25.8789 3.22388L27.1516 6.27842Z" fill="white"/>
<path d="M22.9091 9.50251C23.2485 9.8419 23.7576 9.8419 24.097 9.50251C24.4364 9.16311 24.4364 8.65402 24.097 8.31463L21.7212 5.93887C21.3818 5.59948 20.8727 5.59948 20.5334 5.93887C20.194 6.27827 20.194 6.78736 20.5334 7.12675L22.9091 9.50251Z" fill="white"/>
<path d="M43.3575 9.75739L45.7332 7.38163C46.0726 7.04224 46.0726 6.53315 45.7332 6.19375C45.3938 5.85436 44.8847 5.85436 44.5453 6.19375L42.1696 8.48466C41.8302 8.82406 41.8302 9.33315 42.1696 9.67254C42.4241 10.0119 43.0181 10.0119 43.3575 9.75739Z" fill="white"/>
<path d="M38.0122 6.87219C38.0971 6.95704 38.2668 6.95704 38.3516 6.95704C38.691 6.95704 39.0304 6.78734 39.1152 6.44795L40.388 3.3934C40.5577 2.96916 40.388 2.46007 39.9637 2.29037C39.5395 2.12067 39.0304 2.29037 38.8607 2.71461L37.588 5.76916C37.4183 6.1934 37.588 6.70249 38.0122 6.87219Z" fill="white"/>
</svg>
