<svg width="55" height="56" viewBox="0 0 55 56" fill="none" xmlns="http://www.w3.org/2000/svg">
<path d="M53.0709 46.3635C53.0024 46.1035 53.0299 45.8232 53.1483 45.5744C54.5521 42.6233 55.1576 39.3273 54.8998 36.0428C54.8642 35.5912 54.4756 35.2544 54.0319 35.2905C53.5881 35.3266 53.2571 35.7219 53.2925 36.1736C53.5277 39.1675 52.976 42.1711 51.697 44.8598C51.4101 45.4631 51.345 46.1479 51.5136 46.7882L53.0699 52.6982C53.1734 53.0916 53.0664 53.4983 52.7832 53.7863C52.5003 54.0742 52.1005 54.1834 51.714 54.0779L45.9065 52.4944C45.2771 52.3229 44.6027 52.3896 44.0076 52.6825C37.6764 55.7991 30.0794 54.4914 25.1037 49.4283C21.9955 46.2656 20.2745 42.0607 20.2581 37.5882C20.2416 33.1181 21.9286 28.9027 25.0086 25.7184C31.3554 19.1562 41.8054 19.024 48.3034 25.4235C50.2818 27.3721 51.761 29.8027 52.5811 32.4527C52.7148 32.8848 53.1671 33.1248 53.5921 32.9888C54.0167 32.8527 54.2526 32.392 54.1188 31.96C53.2185 29.0504 51.5952 26.3825 49.4246 24.2446C45.7889 20.6639 41.0259 18.9476 36.3071 19.0784C36.4727 14.03 34.5902 9.10152 31.1043 5.49734C24.1385 -1.70434 12.6702 -1.84905 5.53882 5.17436C5.31395 5.39584 5.09231 5.62563 4.87981 5.85729C4.57605 6.18858 4.59368 6.70756 4.91926 7.01664C5.24473 7.32584 5.75487 7.3078 6.05863 6.9765C6.25254 6.76509 6.45504 6.55531 6.66024 6.35308C13.1584 -0.0464644 23.6083 0.0857679 29.9552 6.64795C33.1712 9.973 34.8884 14.5355 34.6884 19.1961C30.7136 19.6656 26.8666 21.4582 23.8593 24.5676C21.0176 27.5057 19.2567 31.2437 18.7784 35.2749C16.0749 35.3767 13.384 34.8073 10.9562 33.6123C10.361 33.3194 9.68666 33.2526 9.05721 33.4242L3.24966 35.0077C2.86345 35.1132 2.46338 35.0041 2.18037 34.7161C1.89736 34.4281 1.79019 34.0213 1.89381 33.6279L3.45012 27.7179C3.61877 27.0776 3.55363 26.3927 3.26664 25.7896C0.896969 20.8081 1.08249 14.9636 3.76237 10.1553C3.98208 9.76126 3.8461 9.26066 3.45893 9.0371C3.07144 8.81365 2.57947 8.9519 2.35998 9.34597C-0.581415 14.6232 -0.785104 21.0374 1.81534 26.504C1.93369 26.7527 1.9611 27.0329 1.89273 27.293L0.336421 33.2031C0.0818905 34.1693 0.34502 35.1686 1.04014 35.876C1.73537 36.5833 2.71727 36.8511 3.66692 36.5922L9.47447 35.0087C9.73019 34.9389 10.0071 34.9675 10.254 35.0889C12.7172 36.3015 15.426 36.9284 18.1642 36.9284C18.328 36.9284 18.4921 36.9253 18.6563 36.9207C18.6493 37.1446 18.6448 37.369 18.6456 37.5941C18.6638 42.5025 20.5524 47.1172 23.9635 50.5881C27.4465 54.1324 32.0998 55.9997 36.8169 55.9997C39.4949 55.9997 42.1935 55.3978 44.7098 54.1592C44.9565 54.0376 45.2333 54.0091 45.4891 54.0789L51.2966 55.6624C52.2461 55.9213 53.2281 55.6536 53.9234 54.9462C54.6186 54.2389 54.8817 53.2397 54.6273 52.2733L53.0709 46.3635Z" fill="white"/>
<path d="M36.7456 45.1855C35.2297 45.1855 33.9966 46.4405 33.9966 47.9829C33.9966 49.5253 35.2298 50.7802 36.7456 50.7802C38.2614 50.7802 39.4947 49.5254 39.4947 47.9829C39.4947 46.4404 38.2615 45.1855 36.7456 45.1855ZM36.7456 49.1396C36.1188 49.1396 35.6089 48.6207 35.6089 47.9829C35.6089 47.345 36.1188 46.8261 36.7456 46.8261C37.3724 46.8261 37.8824 47.3451 37.8824 47.9829C37.8824 48.6206 37.3724 49.1396 36.7456 49.1396Z" fill="white"/>
<path d="M39.5391 40.4997C40.7356 40.0601 41.8157 39.3446 42.6901 38.4074C44.2461 36.7396 45.0385 34.5544 44.9212 32.2542C44.7008 27.9325 41.1951 24.4787 36.9389 24.3913C36.8835 24.3902 36.8287 24.3896 36.7737 24.3896C32.7255 24.3896 29.2513 27.4625 28.6923 31.5373C28.6402 31.9175 28.6138 32.306 28.6138 32.6922C28.6138 34.2442 29.8546 35.5068 31.3797 35.5068C32.9049 35.5068 34.1457 34.2442 34.1457 32.6922C34.1457 32.566 34.1543 32.4393 34.1712 32.3158C34.3547 30.9782 35.5001 29.9893 36.8285 30.0195C38.1976 30.0475 39.3255 31.1574 39.3964 32.5463C39.4344 33.2895 39.1793 33.9946 38.678 34.5317C38.1764 35.0694 37.4998 35.3656 36.7728 35.3656C35.2477 35.3656 34.0068 36.6282 34.0068 38.1801V41.1154C34.0068 42.6675 35.2477 43.9301 36.7728 43.9301C38.2981 43.9301 39.5389 42.6675 39.5389 41.1154V40.4997H39.5391ZM38.5169 39.1106C38.1681 39.2093 37.9268 39.5325 37.9268 39.901V41.1153C37.9268 41.7626 37.4093 42.2894 36.773 42.2894C36.1369 42.2894 35.6194 41.7627 35.6194 41.1153V38.18C35.6194 37.5327 36.1369 37.0061 36.773 37.0061C37.9465 37.0061 39.0383 36.5284 39.8476 35.6612C40.6561 34.7945 41.0679 33.658 41.0068 32.4612C40.8924 30.2176 39.0714 28.4246 36.8618 28.3793C36.8316 28.3786 36.8015 28.3783 36.7714 28.3783C34.6627 28.3783 32.8668 29.9586 32.5746 32.0891C32.5473 32.2875 32.5335 32.4905 32.5335 32.6923C32.5335 33.3397 32.016 33.8663 31.3799 33.8663C30.7437 33.8663 30.2262 33.3397 30.2262 32.6923C30.2262 32.3818 30.2474 32.0695 30.2893 31.7643C30.7376 28.4954 33.5253 26.0305 36.7738 26.0305C36.8187 26.0305 36.8635 26.0309 36.9076 26.0318C40.3216 26.1019 43.1344 28.8725 43.3111 32.3394C43.4052 34.1859 42.7694 35.9397 41.5209 37.278C40.7058 38.1513 39.6671 38.7851 38.5169 39.1106Z" fill="white"/>
<path d="M13.5507 24.6325C14.073 25.1641 14.7676 25.4569 15.5066 25.4569C16.2455 25.4569 16.9401 25.1641 17.4625 24.6326L25.6755 16.2756C26.198 15.7439 26.4857 15.0371 26.4857 14.2853C26.4857 13.5335 26.198 12.8267 25.6755 12.295C25.1531 11.7635 24.4584 11.4707 23.7195 11.4707C22.9806 11.4707 22.2861 11.7635 21.7638 12.295L15.5066 18.662L14.1868 17.319C13.6645 16.7873 12.9698 16.4944 12.2308 16.4944C11.492 16.4944 10.7974 16.7872 10.2752 17.3188C9.75269 17.8503 9.46484 18.5572 9.46484 19.309C9.46484 20.0609 9.75269 20.7677 10.2751 21.2992L13.5507 24.6325ZM11.4152 18.4788C11.633 18.2571 11.9228 18.135 12.2308 18.135C12.539 18.135 12.8287 18.2572 13.0467 18.479L14.9366 20.4021C15.2515 20.7225 15.7619 20.7225 16.0767 20.4021L22.904 13.4551C23.1218 13.2334 23.4116 13.1113 23.7196 13.1113C24.0279 13.1113 24.3176 13.2335 24.5356 13.4552C24.7535 13.677 24.8736 13.9717 24.8736 14.2853C24.8736 14.5989 24.7537 14.8938 24.5356 15.1155L16.3224 23.4726C16.1047 23.6943 15.8149 23.8163 15.5067 23.8163C15.1984 23.8163 14.9088 23.6943 14.6909 23.4725L11.4151 20.1391C11.1972 19.9174 11.077 19.6225 11.077 19.309C11.077 18.9956 11.1972 18.7007 11.4152 18.4788Z" fill="white"/>
</svg>
