<svg width="132" height="104" viewBox="0 0 132 104" fill="none" xmlns="http://www.w3.org/2000/svg">
<path fill-rule="evenodd" clip-rule="evenodd" d="M55.6321 28.8202C55.4187 29.1298 55.2053 29.4329 54.9854 29.7295C48.8034 38.1839 40.3775 42.8592 31.5377 44.3489C31.0786 44.4263 30.6194 44.4972 30.1538 44.5553C30.1797 44.4521 30.2056 44.3553 30.2314 44.2586C35.7604 22.5778 57.682 20.6625 61.1287 17.9476C59.6543 22.0813 57.7919 25.6926 55.6321 28.8202Z" fill="#265CAA"/>
<path fill-rule="evenodd" clip-rule="evenodd" d="M57.598 28.1238C59.6931 24.8413 61.5167 21.0946 63.1269 16.8642C68.3131 14.2138 72.9884 10.8797 74.5921 6.90729C74.12 13.3109 72.7621 18.6892 70.7122 23.1969C70.6928 23.2356 70.6798 23.2743 70.6604 23.3065C64.2262 37.2939 51.0409 42.7689 36.8144 44.02C45.8806 41.2148 52.4571 36.088 57.4557 28.3559C57.4945 28.2785 57.5462 28.2012 57.598 28.1238Z" fill="#265CAA"/>
<path fill-rule="evenodd" clip-rule="evenodd" d="M63.9481 3.86346C63.6765 8.15835 62.9458 12.2211 61.8271 16.0001C61.8077 16.0517 61.7947 16.1097 61.7818 16.1677C58.4774 19.7662 36.2583 20.5529 27.1663 42.6722H27.1533C25.7889 13.614 54.5069 19.1471 63.9481 3.86346Z" fill="#265CAA"/>
<path d="M39.3556 46.5669C41.3667 46.5734 43.4037 46.4186 45.4018 46.1026C47.3935 45.7867 49.3723 45.3159 51.2864 44.6904C55.1793 43.4264 58.7812 41.5691 61.9886 39.1831L61.7105 38.8155C55.3668 43.5425 47.4259 46.1284 39.3556 46.1091V46.5669Z" fill="#265CAA"/>
<path d="M67.0263 34.4307C66.981 34.4823 66.9357 34.5338 66.884 34.579L67.2203 34.895C67.2655 34.8498 67.3043 34.8047 67.3496 34.7531C68.9468 33.0377 70.3953 31.1353 71.6563 29.0975C72.9238 27.0404 74.0166 24.8413 74.8896 22.552C75.7561 20.2756 76.4157 17.9089 76.849 15.5164C77.14 13.9042 77.334 12.2856 77.418 10.6605C77.2887 10.6734 77.1594 10.6605 77.03 10.6347C77.0042 10.6282 76.9848 10.6218 76.9589 10.6153C76.4933 19.5017 72.9432 28.0657 67.0263 34.4307Z" fill="#265CAA"/>
<path d="M77.9287 8.28732C78.543 8.62265 78.7629 9.39651 78.4266 10.0091C78.2262 10.3767 77.8705 10.6024 77.489 10.654C77.4631 10.6605 77.4437 10.6605 77.4179 10.6605C77.2885 10.6734 77.1592 10.6605 77.0299 10.6347C77.004 10.6282 76.9846 10.6218 76.9587 10.6153C76.8747 10.5895 76.7841 10.5573 76.7065 10.5121C76.0922 10.1768 75.8724 9.40295 76.2086 8.79032C76.5449 8.17769 77.3209 7.95198 77.9287 8.28732ZM76.9264 10.1059C76.9458 10.1123 76.9587 10.1252 76.9781 10.1317C77.0234 10.151 77.0687 10.1704 77.1204 10.1833C77.2239 10.2091 77.3338 10.2155 77.4373 10.1962C77.4567 10.1962 77.4696 10.1897 77.489 10.1897C77.7089 10.1446 77.9093 10.0027 78.0257 9.78988C78.2391 9.40295 78.0968 8.9064 77.7089 8.69359C77.6313 8.6549 77.5537 8.62265 77.4696 8.60975C77.3144 8.57751 77.1527 8.59686 77.0105 8.6549C76.8423 8.72583 76.7001 8.84191 76.6095 9.00958C76.3961 9.40295 76.5384 9.89306 76.9264 10.1059Z" fill="#265CAA"/>
<path d="M38.9162 45.2255C39.2719 45.4125 39.5047 45.7414 39.5758 46.1089C39.6082 46.2573 39.6082 46.412 39.5823 46.5668C39.5629 46.6893 39.5176 46.8183 39.4594 46.9344C39.3042 47.2375 39.0391 47.4567 38.7158 47.5599C38.3925 47.6631 38.0497 47.6309 37.7458 47.4761L37.7199 47.4632C37.4289 47.302 37.222 47.044 37.1185 46.7345C37.0668 46.5733 37.0539 46.4056 37.0668 46.2444C37.0797 46.0831 37.1315 45.9219 37.2091 45.7672C37.5259 45.1416 38.2955 44.8966 38.9162 45.2255ZM37.5518 46.5926C37.6165 46.799 37.7587 46.9666 37.9527 47.0698C38.1467 47.173 38.3601 47.1859 38.5671 47.1214C38.774 47.0569 38.9421 46.915 39.0456 46.7216C39.2525 46.3282 39.1038 45.851 38.7223 45.6382L38.7093 45.6317C38.3149 45.4254 37.8234 45.5801 37.6165 45.9735C37.5065 46.167 37.4871 46.3862 37.5518 46.5926Z" fill="#265CAA"/>
<path d="M62.3055 37.1848C62.6288 37.0816 62.9715 37.1139 63.2754 37.2686C63.2819 37.2751 63.2948 37.2751 63.3013 37.2815C63.9027 37.6104 64.1355 38.3649 63.8122 38.9775C63.657 39.2806 63.3918 39.4999 63.0685 39.6031C62.7452 39.7063 62.4025 39.674 62.0985 39.5192L62.0727 39.5063C61.9757 39.4548 61.8851 39.3903 61.8075 39.3129C61.6911 39.2033 61.6006 39.0807 61.5359 38.9389C61.3678 38.5906 61.3613 38.1714 61.5553 37.8039C61.7105 37.5072 61.9757 37.2815 62.3055 37.1848ZM61.9627 38.0167C61.7558 38.4101 61.911 38.9002 62.3055 39.1065C62.4994 39.2033 62.7193 39.2226 62.9198 39.1581C63.1267 39.0936 63.2948 38.9518 63.3983 38.7583C63.6052 38.3714 63.4565 37.8877 63.075 37.6749C63.0685 37.6749 63.062 37.6684 63.062 37.6684C62.868 37.5717 62.6546 37.5524 62.4477 37.6169C62.2473 37.6813 62.0856 37.8168 61.9821 37.9973L61.9627 38.0167Z" fill="#265CAA"/>
<path d="M66.9161 34.3666C66.9549 34.3859 66.9873 34.4117 67.0261 34.431C67.1554 34.5213 67.2653 34.631 67.3494 34.7535C67.6145 35.134 67.6533 35.6499 67.4141 36.0819C67.0778 36.6946 66.3018 36.9203 65.6875 36.5849C65.0732 36.2496 64.8468 35.4757 65.1896 34.8631C65.5323 34.2569 66.3018 34.0312 66.9161 34.3666ZM65.9138 36.1851C66.3018 36.3979 66.7997 36.256 67.0131 35.8691C67.2265 35.4757 67.0843 34.9856 66.6963 34.7728C66.3083 34.56 65.8104 34.7019 65.597 35.0953C65.3771 35.4822 65.5194 35.9723 65.9138 36.1851Z" fill="#265CAA"/>
<path d="M50.963 9.98951C51.0794 10.0991 51.157 10.241 51.1958 10.3893C51.3316 10.3119 51.4674 10.2346 51.6032 10.1572C53.194 9.25435 54.6942 8.27413 56.1686 7.17139C58.1991 5.65593 60.152 3.92121 61.9885 2.01237L61.6587 1.69638C58.503 4.97881 55.1404 7.62281 51.3834 9.75735C51.2411 9.83474 51.0988 9.91212 50.963 9.98951Z" fill="#265CAA"/>
<path d="M24.1722 40.015L24.6313 39.9828C24.2951 35.1656 25.2392 30.5289 27.3732 26.5693C28.4531 24.5767 29.7916 22.7775 31.3501 21.2298L31.0268 20.9073C29.436 22.4873 28.0715 24.3252 26.9722 26.3565C25.7048 28.7168 24.8447 31.2899 24.4179 34.0048C24.1075 35.9459 24.0235 37.9708 24.1722 40.015Z" fill="#265CAA"/>
<path d="M32.5399 19.4889L32.8438 19.8371C32.902 19.7855 32.9667 19.7339 33.0249 19.6823C34.3311 18.5538 35.5663 17.7154 36.6074 17.0383L37.364 16.5547C39.291 15.2843 41.1792 14.2911 43.1386 13.5108C44.6776 12.8982 46.2814 12.3501 47.8333 11.8277C48.3313 11.66 48.8486 11.4859 49.3594 11.3054C49.5082 11.2538 49.6634 11.2022 49.8121 11.1506L49.8056 11.1312C49.7022 11.0216 49.6375 10.8797 49.6116 10.7314C49.4694 10.783 49.3206 10.8346 49.1719 10.8797C48.674 11.0539 48.1761 11.2215 47.6911 11.3892C46.1326 11.918 44.5224 12.4661 42.9769 13.0852C40.9852 13.8784 39.0647 14.8909 37.1182 16.1742L36.3681 16.6578C35.3076 17.3479 34.0466 18.2056 32.708 19.3599C32.6498 19.3986 32.5981 19.4437 32.5399 19.4889Z" fill="#265CAA"/>
<path d="M63.114 0.155419C63.7283 0.490756 63.9481 1.26461 63.6119 1.87724C63.2756 2.48988 62.4996 2.71558 61.8853 2.38025C61.271 2.04491 61.0511 1.27106 61.3874 0.658424C61.7301 0.0457898 62.4996 -0.179917 63.114 0.155419ZM62.1116 1.97397C62.4996 2.18678 62.9976 2.04491 63.211 1.65798C63.4244 1.27106 63.2821 0.774502 62.8941 0.561692C62.5061 0.348882 62.0082 0.490756 61.7948 0.877682C61.5749 1.27106 61.7172 1.76116 62.1116 1.97397Z" fill="#265CAA"/>
<path d="M32.5916 19.2825C32.6304 19.3018 32.6692 19.3276 32.708 19.3534C32.8374 19.4437 32.9473 19.5533 33.0314 19.6823C33.29 20.0628 33.3288 20.5723 33.096 21.0043C32.7598 21.617 31.9838 21.8427 31.3695 21.5073C31.3048 21.4751 31.2466 21.4364 31.1949 21.3912C31.072 21.2945 30.9685 21.1784 30.8909 21.043C30.6711 20.669 30.6452 20.1918 30.8715 19.7855C31.2013 19.1729 31.9773 18.9472 32.5916 19.2825ZM31.5829 21.1011C31.9709 21.3139 32.4688 21.172 32.6822 20.7851C32.8956 20.3917 32.7533 19.9016 32.3653 19.6888C31.9773 19.476 31.4794 19.6178 31.266 20.0112C31.0526 20.3981 31.1949 20.8882 31.5829 21.1011Z" fill="#265CAA"/>
<path d="M24.1527 39.7956C24.3014 39.7569 24.4566 39.744 24.6118 39.7569C24.7735 39.7698 24.9416 39.8214 25.0968 39.9052C25.7111 40.2405 25.9375 41.0144 25.5947 41.627C25.2585 42.2397 24.4825 42.4654 23.8682 42.13C23.2539 41.7947 23.0275 41.0208 23.3702 40.4082C23.5448 40.0987 23.8358 39.8859 24.1527 39.7956ZM24.0945 41.7302C24.4825 41.943 24.9804 41.8011 25.1938 41.4078C25.4072 41.0144 25.265 40.5243 24.877 40.3115C24.4825 40.0987 23.991 40.2405 23.7776 40.6275C23.5578 41.0273 23.7 41.5174 24.0945 41.7302Z" fill="#265CAA"/>
<path d="M51.0215 9.46102C51.1638 9.53841 51.2802 9.63514 51.3772 9.75122C51.4806 9.8673 51.5518 10.0027 51.6035 10.151C51.7199 10.4799 51.7005 10.854 51.5194 11.1828C51.1832 11.7955 50.4072 12.0212 49.7928 11.6859C49.6118 11.5891 49.4695 11.4537 49.3596 11.2925C49.2691 11.1635 49.2044 11.0216 49.1721 10.8733C49.1009 10.5767 49.1333 10.2542 49.2949 9.96403C49.6312 9.35139 50.4072 9.12569 51.0215 9.46102ZM49.8058 11.1184C49.864 11.1828 49.9351 11.2409 50.0127 11.2796C50.4007 11.4924 50.8986 11.3505 51.112 10.9571C51.2155 10.7701 51.2349 10.5638 51.1896 10.3767C51.1508 10.2284 51.0732 10.0866 50.9568 9.97692C50.9051 9.93178 50.8534 9.88664 50.7887 9.8544C50.4007 9.64159 49.9028 9.78346 49.6894 10.1768C49.5924 10.3445 49.5665 10.538 49.6053 10.7121C49.6376 10.8669 49.7023 11.0087 49.8058 11.1184Z" fill="#265CAA"/>
<path d="M17.1881 51.1588C17.1881 51.0169 17.2139 50.8428 17.2139 50.7009C17.2139 48.7728 16.1211 48.2569 13.8449 48.2569C11.3358 48.2569 10.0102 49.2048 10.0102 50.8428C10.0102 51.7908 10.8185 52.5388 12.6033 52.9709C14.9377 53.5449 16.5802 54.0027 17.9899 54.6347C19.2897 55.2409 20.2403 56.2469 20.2403 58.4008C20.2403 62.9149 16.2052 65.2687 11.8532 65.2687C6.86744 65.2687 4.39075 63.4889 4.39075 60.0646C4.39075 59.6905 4.41661 59.3165 4.47481 58.8844H8.34182C8.31595 59.1166 8.28362 59.3165 8.28362 59.5164C8.28362 61.3285 9.80973 62.0443 11.9178 62.0443C14.6855 62.0443 16.2698 60.8642 16.2698 59.0263C16.2698 58.0461 15.6943 57.3045 13.7026 56.8724C8.54228 55.7503 6.26605 54.7766 6.26605 51.5006C6.26605 47.7925 9.11781 44.8906 14.4527 44.8906C18.6625 44.8906 21.0551 46.9607 21.0551 50.1786C21.0551 50.4946 21.0292 50.8428 20.9969 51.1588H17.1881Z" fill="#265CAA"/>
<path d="M36.9045 64.6113L38.4306 56.0473C38.4888 55.7055 38.5146 55.3895 38.5146 55.1251C38.5146 53.7193 37.7969 53.1389 36.6975 53.1389C35.2555 53.1389 34.0721 54.4351 33.7876 56.1569L32.2873 64.6048H28.5432L30.0434 56.1053C30.1275 55.5314 30.1598 55.0735 30.1857 54.6995C30.1857 53.4613 29.5778 53.2614 28.3104 53.2614C26.8102 53.2614 25.8596 54.1836 25.5427 56.0215L24.0166 64.6177H20.2725L22.7815 50.4756H26.2993L25.9242 52.5456C27.224 50.6755 28.6337 50.1015 30.509 50.1015C32.4425 50.1015 33.2444 50.7077 34.0527 52.3457C35.1197 50.7916 36.5035 50.1015 38.2883 50.1015C40.8232 50.1015 42.3816 51.7395 42.3816 53.9514C42.3816 54.2094 42.3558 54.5254 42.2976 54.8156L40.571 64.6177H36.9045V64.6113Z" fill="#265CAA"/>
<path d="M50.879 64.611C50.8531 64.4368 50.8208 64.2369 50.8208 64.0048C50.8208 63.8049 50.8466 63.5727 50.879 63.347C49.812 64.3272 48.2018 64.985 46.2942 64.985C43.4683 64.985 42.175 63.6888 42.175 61.767C42.175 57.5689 45.1431 56.6532 49.6697 56.047C52.237 55.7052 52.3469 55.2151 52.3469 54.4348C52.3469 53.2289 51.5386 52.9709 50.1871 52.9709C48.4864 52.9709 47.6522 53.8028 47.2771 55.0668H43.7916C44.3672 52.1326 46.3265 50.0948 50.879 50.0948C54.6555 50.0948 56.0975 51.5006 56.0975 54.0608C56.0975 54.5767 56.0393 55.0926 55.9552 55.6729L54.3709 64.611H50.879ZM51.8296 57.685C51.3963 58.059 50.7044 58.2589 49.2623 58.5169C46.5852 59.007 46.0355 59.7228 46.0355 61.0448C46.0355 61.9347 46.7274 62.3087 47.7039 62.3087C49.521 62.3087 51.2217 60.9029 51.5386 59.2327L51.8296 57.685Z" fill="#265CAA"/>
<path d="M56.007 64.611L58.516 50.4688H62.0338L61.7169 52.1648C63.3012 50.2689 64.7692 50.0948 66.3017 50.0948H66.7932L66.1271 53.9189C65.7844 53.8608 65.4352 53.835 65.0925 53.835C62.7839 53.835 61.4583 54.9829 61.0573 57.2529L59.7576 64.611H56.007Z" fill="#265CAA"/>
<path d="M77.7087 59.323C77.159 62.3088 74.9992 64.985 70.9964 64.985C67.4786 64.985 66.0947 63.0891 66.0947 60.645C66.0947 60.2129 66.1206 59.755 66.2111 59.2972L68.4292 46.6511H72.1151L71.4555 50.4752H79.293L78.8339 53.1192H70.9964L69.9617 58.9231C69.8777 59.3552 69.8453 59.7292 69.8453 60.0452C69.8453 61.2834 70.4209 61.7413 71.6301 61.7413C73.0721 61.7413 73.9904 60.7353 74.3073 58.9812L74.941 55.3054H78.4265L77.7087 59.323Z" fill="#265CAA"/>
<path d="M90.0146 64.611L89.2063 56.3888L85.5204 64.611H81.6857L80.1596 50.4688H83.9943L84.6862 59.5487L88.2622 50.4688H92.0645L92.6724 59.5487L96.4489 50.4688H100.426L93.8558 64.611H90.0146Z" fill="#265CAA"/>
<path d="M106.614 64.611C106.588 64.4368 106.556 64.2369 106.556 64.0048C106.556 63.8049 106.582 63.5727 106.614 63.347C105.547 64.3272 103.937 64.985 102.029 64.985C99.2035 64.985 97.9102 63.6888 97.9102 61.767C97.9102 57.5689 100.878 56.6532 105.405 56.047C107.972 55.7052 108.082 55.2151 108.082 54.4348C108.082 53.2289 107.274 52.9709 105.922 52.9709C104.222 52.9709 103.387 53.8028 103.012 55.0668H99.5268C100.102 52.1326 102.062 50.0948 106.614 50.0948C110.391 50.0948 111.833 51.5006 111.833 54.0608C111.833 54.5767 111.774 55.0926 111.69 55.6729L110.106 64.611H106.614ZM107.565 57.685C107.132 58.059 106.44 58.2589 104.998 58.5169C102.32 59.007 101.771 59.7228 101.771 61.0448C101.771 61.9347 102.463 62.3087 103.439 62.3087C105.256 62.3087 106.957 60.9029 107.274 59.2327L107.565 57.685Z" fill="#265CAA"/>
<path d="M121.086 62.7408C120.369 64.0048 118.668 64.7528 116.909 64.7528C114.284 64.7528 112.531 63.1987 112.531 60.7288C112.531 60.387 112.589 60.013 112.647 59.6389L114.264 50.4688H118.008L116.482 59.0908C116.424 59.4648 116.366 59.7808 116.366 60.071C116.366 61.393 117.084 61.7348 118.409 61.7348C120.11 61.7348 121.494 60.6127 121.752 59.0908L123.279 50.4688H127.023L124.455 64.985C123.738 68.9768 120.394 71.3048 116.818 71.3048C113.217 71.3048 111.458 69.6088 111.458 66.7906C111.458 66.3586 111.516 65.8685 111.6 65.3848H115.085C115.027 65.6428 115.027 65.8749 115.027 66.1006C115.027 67.4484 115.861 68.0868 117.562 68.0868C118.914 68.0868 120.356 66.9067 120.672 65.043L121.086 62.7408Z" fill="#265CAA"/>
<path d="M2.96815 87.962L5.76171 72.2141H0L0.575524 68.88H16.1405L15.565 72.2141H9.77098L6.97096 87.962H2.96815Z" fill="#265CAA"/>
<path d="M15.2739 81.8748V82.5326C15.2739 84.5446 16.2245 85.3765 17.867 85.3765C19.0763 85.3765 20.2597 84.7703 20.6929 83.7966H24.5535C23.1696 86.6985 20.5507 88.3365 17.5243 88.3365C13.5474 88.3365 11.5557 86.3245 11.5557 82.5004C11.5557 77.0383 14.8407 73.4463 19.9105 73.4463C23.4865 73.4463 25.3294 75.3422 25.3294 79.1083C25.3294 79.9402 25.2454 80.8624 25.0708 81.8684H15.2739V81.8748ZM21.6435 79.5146C21.7017 79.1986 21.7017 78.9084 21.7017 78.6504C21.7017 76.8383 20.5507 76.4063 19.2832 76.4063C17.382 76.4063 16.2569 77.7541 15.7072 79.5081H21.6435V79.5146Z" fill="#265CAA"/>
<path d="M35.9347 78.8821C35.9347 78.7402 35.9606 78.6241 35.9606 78.4823C35.9606 77.0764 34.9518 76.5541 33.652 76.5541C31.6603 76.5541 29.9079 78.0179 29.9079 81.9001C29.9079 84.4022 30.8002 85.2083 32.0095 85.2083C33.4774 85.2083 34.7772 84.3764 35.1781 82.8545H38.9546C37.9717 86.1305 34.9194 88.3424 31.4922 88.3424C28.2071 88.3424 26.1314 86.3304 26.1314 82.4483C26.1314 76.3864 29.4746 73.4522 34.2275 73.4522C37.6548 73.4522 39.7306 75.2643 39.7306 78.1921C39.7306 78.4242 39.7306 78.6499 39.7047 78.8821H35.9347Z" fill="#265CAA"/>
<path d="M48.2406 87.9615L49.799 79.1976C49.8831 78.7075 49.9154 78.3077 49.9154 77.9917C49.9154 76.6439 49.2235 76.4118 47.872 76.4118C45.9708 76.4118 44.7033 77.9659 44.3542 79.8619L42.9121 87.9615H39.168L42.5694 68.6474H46.3135L45.0719 75.6637C45.8479 74.3997 47.7491 73.4518 49.6567 73.4518C52.224 73.4518 53.8665 74.7738 53.8665 77.0179C53.8665 77.3081 53.8406 77.6241 53.7824 77.9659L52.017 87.9615H48.2406Z" fill="#265CAA"/>
<path d="M62.7386 87.9625L64.2647 79.3985C64.3488 78.9406 64.3811 78.5344 64.3811 78.1926C64.3811 76.9286 63.7474 76.6126 62.3377 76.6126C60.3783 76.6126 59.2273 77.7025 58.8522 79.8628L57.4102 87.9625H53.666L56.175 73.8203H59.7511L59.376 75.8904C60.527 74.3104 62.1113 73.4463 64.3876 73.4463C66.7479 73.4463 68.3387 74.7102 68.3387 77.0705C68.3387 77.4123 68.3128 77.7863 68.2546 78.1603L66.528 87.9625H62.7386Z" fill="#265CAA"/>
<path d="M68.9336 82.2741C68.9336 77.128 72.5355 73.4522 77.6958 73.4522C81.5305 73.4522 83.7485 75.8383 83.7485 79.4883C83.7485 84.6602 80.1466 88.3424 75.0768 88.3424C71.0934 88.336 68.9336 85.8661 68.9336 82.2741ZM79.9462 79.7462C79.9462 77.1861 78.9956 76.6121 77.1526 76.6121C74.2103 76.6121 72.8329 78.708 72.8329 82.042C72.8329 84.4861 73.7577 85.2019 75.6265 85.2019C78.53 85.2019 79.9462 83.0802 79.9462 79.7462Z" fill="#265CAA"/>
<path d="M94.4117 87.9625L93.6034 79.7403L89.9174 87.9625H86.0827L84.5566 73.8203H88.3913L89.0832 82.9002L92.6593 73.8203H96.4616L97.0694 82.9002L100.846 73.8203H104.823L98.2464 87.9625H94.4117Z" fill="#265CAA"/>
<path d="M111.012 87.9625C110.986 87.7884 110.953 87.5885 110.953 87.3563C110.953 87.1564 110.979 86.9242 111.012 86.6985C109.945 87.6787 108.334 88.3365 106.427 88.3365C103.601 88.3365 102.308 87.0403 102.308 85.1186C102.308 80.9204 105.276 80.0047 109.802 79.3985C112.37 79.0567 112.48 78.5666 112.48 77.7863C112.48 76.5804 111.671 76.3224 110.32 76.3224C108.619 76.3224 107.785 77.1543 107.41 78.4183H103.924C104.5 75.4841 106.459 73.4463 111.012 73.4463C114.788 73.4463 116.23 74.8521 116.23 77.4123C116.23 77.9282 116.172 78.4441 116.088 79.0245L114.504 87.9625H111.012ZM111.962 81.0365C111.529 81.4105 110.837 81.6104 109.395 81.8684C106.718 82.3585 106.168 83.0743 106.168 84.3963C106.168 85.2862 106.86 85.6603 107.837 85.6603C109.654 85.6603 111.354 84.2544 111.671 82.5842L111.962 81.0365Z" fill="#265CAA"/>
<path d="M125.477 86.0983C124.759 87.3623 123.059 88.1103 121.3 88.1103C118.674 88.1103 116.922 86.5562 116.922 84.0863C116.922 83.7445 116.98 83.3705 117.038 82.9965L118.655 73.8263H122.399L120.873 82.4483C120.815 82.8223 120.757 83.1383 120.757 83.4285C120.757 84.7505 121.474 85.0923 122.8 85.0923C124.501 85.0923 125.885 83.9702 126.143 82.4483L127.669 73.8263H131.413L128.846 88.3425C128.128 92.3343 124.785 94.6623 121.209 94.6623C117.607 94.6623 115.848 92.9663 115.848 90.1481C115.848 89.7161 115.907 89.226 115.991 88.7423H119.476C119.418 89.0003 119.418 89.2324 119.418 89.4581C119.418 90.8059 120.252 91.4444 121.953 91.4444C123.304 91.4444 124.746 90.2642 125.063 88.4005L125.477 86.0983Z" fill="#265CAA"/>
<path d="M29.4292 100.195V102.272H28.3946V97.345H31.9124V98.2027H29.4292V99.3247H31.602V100.195H29.4292Z" fill="#1F2937"/>
<path d="M31.9836 102.271V98.6213H32.8889V99.0598C33.2058 98.5697 33.5808 98.5246 33.9753 98.5246H34.1046V99.5113C34.0141 99.4984 33.9236 99.4919 33.8395 99.4919C33.2446 99.4919 32.9536 99.7886 32.9536 100.375V102.271H31.9836Z" fill="#1F2937"/>
<path d="M34.0271 100.446C34.0271 99.292 34.7513 98.5246 35.9088 98.5246C37.0534 98.5246 37.7647 99.2791 37.7647 100.446C37.7647 101.601 37.0405 102.368 35.9088 102.368C34.7254 102.368 34.0271 101.581 34.0271 100.446ZM36.7947 100.446C36.7947 99.7047 36.4973 99.3436 35.9088 99.3436C35.3204 99.3436 35.0229 99.7047 35.0229 100.446C35.0229 101.188 35.3204 101.556 35.9088 101.556C36.4973 101.562 36.7947 101.188 36.7947 100.446Z" fill="#1F2937"/>
<path d="M42.4076 102.271V100.059C42.4076 99.6209 42.1749 99.3113 41.8321 99.3113C41.4765 99.3113 41.2178 99.6467 41.2178 100.092V102.271H40.2543V100.079C40.2543 99.4919 40.0991 99.3436 39.6723 99.3436C39.2843 99.3436 39.0838 99.5822 39.0838 100.053V102.271H38.1203V98.6213H39.0256V99.1566C39.2714 98.6729 39.6141 98.5246 40.0991 98.5246C40.597 98.5246 40.8363 98.6794 41.1208 99.105C41.3213 98.7052 41.6511 98.5246 42.1102 98.5246C42.8474 98.5246 43.3582 99.0598 43.3582 99.7434V102.271H42.4076Z" fill="#1F2937"/>
<path d="M46.8371 102.272V98.2094H45.3498V97.3517H49.3655V98.2094H47.8718V102.272H46.8371Z" fill="#1F2937"/>
<path d="M51.9781 102.272V100.008C51.9781 99.4601 51.7905 99.286 51.3508 99.286C50.8658 99.286 50.6007 99.6859 50.6007 100.176V102.265H49.6372V97.2805H50.6007V99.0926C50.7429 98.7637 51.1891 98.5186 51.6806 98.5186C52.4307 98.5186 52.9545 98.9571 52.9545 99.6859V102.265H51.9781V102.272Z" fill="#1F2937"/>
<path d="M53.2907 100.446C53.2907 99.292 54.015 98.5246 55.1725 98.5246C56.3171 98.5246 57.0284 99.2791 57.0284 100.446C57.0284 101.601 56.3041 102.368 55.1725 102.368C53.9891 102.368 53.2907 101.581 53.2907 100.446ZM56.0584 100.446C56.0584 99.7047 55.761 99.3436 55.1725 99.3436C54.584 99.3436 54.2866 99.7047 54.2866 100.446C54.2866 101.188 54.584 101.556 55.1725 101.556C55.761 101.556 56.0584 101.188 56.0584 100.446Z" fill="#1F2937"/>
<path d="M59.7637 102.272V101.763C59.5115 102.176 59.1299 102.369 58.6255 102.369C57.8948 102.369 57.384 101.827 57.384 101.028V98.6223H58.3475V100.879C58.3475 101.337 58.5544 101.563 58.9618 101.563C59.4533 101.563 59.7119 101.215 59.7119 100.731V98.6223H60.669V102.272H59.7637Z" fill="#1F2937"/>
<path d="M63.6501 101.781C63.5143 102.11 63.1199 102.297 62.6478 102.297C61.445 102.297 61.0247 101.375 61.0247 100.421C61.0247 99.2855 61.736 98.5246 62.622 98.5246C63.0811 98.5246 63.4173 98.7052 63.6501 99.0727V98.6213H64.6137V102.31C64.6137 103.406 63.8118 104 62.7901 104C61.7684 104 61.0182 103.413 61.0182 102.471H61.9171C61.9171 102.91 62.234 103.168 62.719 103.168C63.2298 103.168 63.6437 102.865 63.6437 102.381V101.781H63.6501ZM63.6825 100.537C63.6825 99.7434 63.4044 99.3629 62.8548 99.3629C62.3116 99.3629 62.027 99.7241 62.027 100.472C62.027 101.123 62.3762 101.543 62.8548 101.543C63.3203 101.549 63.6825 101.156 63.6825 100.537Z" fill="#1F2937"/>
<path d="M67.3815 102.272V100.008C67.3815 99.4601 67.194 99.286 66.7542 99.286C66.2692 99.286 66.0041 99.6859 66.0041 100.176V102.265H65.0406V97.2805H66.0041V99.0926C66.1464 98.7637 66.5926 98.5186 67.084 98.5186C67.8341 98.5186 68.3579 98.9571 68.3579 99.6859V102.265H67.3815V102.272Z" fill="#1F2937"/>
<path d="M70.854 99.8729H71.7528V100.911C71.7528 101.685 71.3066 102.375 70.272 102.375C69.1985 102.375 68.7782 101.691 68.7782 100.905V97.6416H69.7288V98.6283H71.7528V99.3118H69.7288V100.808C69.7288 101.266 69.8905 101.537 70.2849 101.537C70.6729 101.537 70.8475 101.279 70.8475 100.827V99.8729H70.854Z" fill="#1F2937"/>
<path d="M75.2643 102.272V98.2094H73.777V97.3517H77.7928V98.2094H76.299V102.272H75.2643Z" fill="#1F2937"/>
<path d="M76.59 100.446C76.59 99.292 77.3143 98.5246 78.4718 98.5246C79.6164 98.5246 80.3277 99.2791 80.3277 100.446C80.3277 101.601 79.6034 102.368 78.4718 102.368C77.2884 102.368 76.59 101.581 76.59 100.446ZM79.3577 100.446C79.3577 99.7047 79.0603 99.3436 78.4718 99.3436C77.8833 99.3436 77.5859 99.7047 77.5859 100.446C77.5859 101.188 77.8833 101.556 78.4718 101.556C79.0603 101.556 79.3577 101.188 79.3577 100.446Z" fill="#1F2937"/>
<path d="M82.4485 102.272V97.345H83.4831V102.272H82.4485Z" fill="#1F2937"/>
<path d="M88.1523 102.271V100.059C88.1523 99.6209 87.9195 99.3113 87.5767 99.3113C87.2211 99.3113 86.9624 99.6467 86.9624 100.092V102.271H85.9989V100.079C85.9989 99.4919 85.8437 99.3436 85.4169 99.3436C85.0289 99.3436 84.8284 99.5822 84.8284 100.053V102.271H83.8649V98.6213H84.7702V99.1566C85.016 98.6729 85.3587 98.5246 85.8437 98.5246C86.3416 98.5246 86.5809 98.6794 86.8654 99.105C87.0659 98.7052 87.3957 98.5246 87.8548 98.5246C88.592 98.5246 89.1028 99.0598 89.1028 99.7434V102.271H88.1523Z" fill="#1F2937"/>
<path d="M89.4645 104V98.6213H90.3957L90.4022 99.0663C90.635 98.6987 90.9777 98.5246 91.4239 98.5246C92.3486 98.5246 93.0082 99.2533 93.0082 100.485C93.0082 101.588 92.4521 102.368 91.508 102.368C91.0553 102.368 90.6997 102.181 90.4216 101.794V104H89.4645ZM92.0253 100.421C92.0253 99.7692 91.6826 99.3178 91.1976 99.3178C90.7385 99.3178 90.3828 99.7499 90.3828 100.362C90.3828 101.156 90.6608 101.549 91.1911 101.549C91.7602 101.549 92.0253 101.169 92.0253 100.421Z" fill="#1F2937"/>
<path d="M95.6467 102.272C95.6144 102.182 95.595 102.059 95.5885 101.943C95.3557 102.194 94.9742 102.369 94.4827 102.369C93.6486 102.369 93.2606 101.962 93.2606 101.369C93.2606 100.318 93.9654 100.195 94.9419 100.066C95.4269 100.002 95.5562 99.9051 95.5562 99.6536C95.5562 99.415 95.3169 99.2731 94.9419 99.2731C94.5021 99.2731 94.3275 99.4859 94.2823 99.8148H93.377C93.3899 99.0603 93.8102 98.5315 94.9807 98.5315C96.1382 98.5315 96.5391 99.0474 96.5391 99.9696V102.278H95.6467V102.272ZM95.5821 100.485C95.4851 100.582 95.3169 100.634 94.9548 100.698C94.4051 100.801 94.2241 100.956 94.2241 101.272C94.2241 101.55 94.3857 101.678 94.6897 101.678C95.1876 101.678 95.5627 101.317 95.5691 100.885L95.5821 100.485Z" fill="#1F2937"/>
<path d="M100.264 100.956C100.16 101.801 99.4685 102.375 98.5826 102.375C97.5868 102.375 96.9013 101.717 96.9013 100.408C96.9013 99.099 97.5868 98.5315 98.6085 98.5315C99.5591 98.5315 100.206 99.0732 100.264 99.9309H99.2875C99.2357 99.5504 98.9577 99.3311 98.5955 99.3311C98.1881 99.3311 97.8519 99.5891 97.8519 100.382C97.8519 101.175 98.1881 101.562 98.5632 101.562C98.9447 101.562 99.2422 101.35 99.2745 100.956H100.264Z" fill="#1F2937"/>
<path d="M102.624 99.8729H103.523V100.911C103.523 101.685 103.077 102.375 102.042 102.375C100.969 102.375 100.549 101.691 100.549 100.905V97.6416H101.499V98.6283H103.523V99.3118H101.499V100.808C101.499 101.266 101.661 101.537 102.055 101.537C102.443 101.537 102.618 101.279 102.618 100.827V99.8729H102.624Z" fill="#1F2937"/>
<path d="M127.016 98.5315H105.683V100.647H127.016V98.5315Z" fill="#1F2937"/>
<path d="M25.7304 98.5315H4.39722V100.647H25.7304V98.5315Z" fill="#1F2937"/>
</svg>
