<svg width="56" height="56" viewBox="0 0 56 56" fill="none" xmlns="http://www.w3.org/2000/svg">
<path d="M40.1437 38.0625C38.941 38.0625 37.7896 38.5094 36.9001 39.3212C34.9433 41.1105 34.8061 44.1584 36.5942 46.1148C37.5029 47.1111 38.7979 47.6828 40.1458 47.6828C41.3473 47.6828 42.4987 47.2359 43.3874 46.4246C45.3454 44.6374 45.4843 41.5894 43.6971 39.6301C42.7879 38.6337 41.493 38.0625 40.1437 38.0625ZM42.2731 45.2035C41.6895 45.7363 40.9341 46.0294 40.1458 46.0294C39.2615 46.0294 38.4121 45.6547 37.8152 45.0001C36.6416 43.7158 36.7313 41.7155 38.0152 40.5414C38.5988 40.009 39.3546 39.7155 40.1437 39.7155C41.029 39.7155 41.8792 40.0902 42.4756 40.7443C43.6488 42.0303 43.5578 44.0307 42.2731 45.2035Z" fill="white"/>
<path d="M51.2093 39.1836H50.6338C50.5022 38.8021 50.3488 38.4269 50.1749 38.0604L50.5791 37.6562C51.3785 36.8568 51.3793 35.5529 50.5795 34.7475L48.266 32.4335C47.8776 32.0477 47.3619 31.835 46.8129 31.835C46.2631 31.835 45.7469 32.0482 45.3599 32.4352L44.9557 32.8394C44.5912 32.6668 44.2166 32.5134 43.8337 32.3801V31.8051C43.8337 31.0322 43.4052 30.3584 42.7746 30.0068L42.7776 20.7253C42.7776 20.269 42.4076 19.899 41.9513 19.8986C41.9509 19.8986 41.9509 19.8986 41.9509 19.8986C41.4946 19.8986 41.1241 20.2686 41.1241 20.7249L41.1216 29.7483H38.9926V7.22217C38.9926 6.11261 38.0898 5.20941 36.9803 5.20941H31.1732V3.13342H39.6553C40.4636 3.13342 41.1212 3.7901 41.1212 4.59674V16.863C41.1212 17.3197 41.4911 17.6897 41.9474 17.6897C42.4042 17.6897 42.7742 17.3197 42.7742 16.863V4.59674C42.7742 2.87836 41.3749 1.48041 39.6553 1.48041H31.0172C30.6844 0.616089 29.8474 0 28.8669 0H16.5293C15.5488 0 14.7118 0.616089 14.3785 1.48041H5.74048C4.02252 1.48041 2.625 2.87836 2.625 4.59674V49.2619C2.625 50.9803 4.02252 52.3787 5.74048 52.3787H31.092L32.0229 53.3096C32.41 53.6967 32.9257 53.9103 33.476 53.9103C34.025 53.9103 34.5407 53.6976 34.9312 53.3096L35.5076 52.7328C35.8148 52.8794 36.1309 53.0123 36.4543 53.1302V53.9432C36.4543 55.0771 37.3768 56 38.5111 56H41.7804C42.9126 56 43.8337 55.0771 43.8337 53.9432V53.193C44.173 53.0755 44.5084 52.9396 44.8378 52.7875L45.3599 53.3096C45.7469 53.6967 46.2631 53.9099 46.8129 53.9099C47.3619 53.9099 47.8776 53.6976 48.2681 53.3096L50.5795 50.9974C51.3785 50.198 51.3793 48.8945 50.5787 48.0878L50.1177 47.629C50.2869 47.2825 50.4381 46.927 50.5706 46.5647H51.2093C52.3432 46.5647 53.2656 45.6418 53.2656 44.5075V41.2374C53.2656 40.1047 52.3432 39.1836 51.2093 39.1836ZM16.5293 1.65302H28.8669C29.2271 1.65302 29.5201 1.94653 29.5201 2.30713V6.25745C29.5201 6.61163 29.2211 6.91113 28.8669 6.91113H16.5293C16.1751 6.91113 15.876 6.61206 15.876 6.25745V2.30713C15.876 1.94653 16.1691 1.65302 16.5293 1.65302ZM4.27802 49.2619V4.59674C4.27802 3.7901 4.93427 3.13342 5.74048 3.13342H14.2226V5.20941H8.41547C7.30591 5.20941 6.40356 6.11261 6.40356 7.22217V29.1642C6.40356 29.6205 6.77356 29.9905 7.22986 29.9905C7.68658 29.9905 8.05658 29.6205 8.05658 29.1642V7.22217C8.05658 7.02734 8.22107 6.86243 8.41547 6.86243H14.3059C14.5729 7.84167 15.4672 8.56415 16.5289 8.56415H28.8669C29.929 8.56415 30.8232 7.84167 31.0898 6.86243H36.9803C37.1785 6.86243 37.3396 7.02393 37.3396 7.22217V30.1166C36.8051 30.4883 36.4543 31.1061 36.4543 31.8051V32.4429C36.0946 32.5741 35.7391 32.7258 35.3905 32.8967L34.9291 32.4335C34.5407 32.0477 34.0246 31.835 33.4756 31.835C32.9257 31.835 32.4096 32.0482 32.0225 32.4352L29.7094 34.7496C29.1595 35.3033 28.9895 36.095 29.1984 36.7953H23.2324C22.7756 36.7953 22.4056 37.1653 22.4056 37.622C22.4056 38.0783 22.7756 38.4487 23.2324 38.4487H30.1136C30.0098 38.691 29.9145 38.9362 29.8286 39.1836H29.0788C28.3615 39.1836 27.7296 39.5527 27.3617 40.1103H23.2324C22.7756 40.1103 22.4056 40.4803 22.4056 40.937C22.4056 41.3933 22.7756 41.7637 23.2324 41.7637H27.022V44.5079C27.022 45.6423 27.9449 46.5647 29.0788 46.5647H29.891C29.944 46.7104 30.0012 46.8539 30.0602 46.9962H8.41547C8.22107 46.9962 8.05658 46.8317 8.05658 46.6369L8.06299 33.0295C8.06299 32.5732 7.69342 32.2028 7.23669 32.2028H7.23627C6.77997 32.2028 6.40997 32.5724 6.40955 33.0287L6.40356 46.6365C6.40356 47.7465 7.30591 48.6492 8.41547 48.6492H29.3172C28.9985 49.3127 29.0544 50.1117 29.4855 50.7252H5.74048C4.93427 50.7252 4.27802 50.069 4.27802 49.2619ZM51.6126 44.5079C51.6126 44.7267 51.428 44.9117 51.2093 44.9117H49.9758C49.6122 44.9117 49.291 45.1497 49.185 45.4979C48.9868 46.1524 48.7163 46.7856 48.3826 47.3803C48.201 47.7033 48.2574 48.1083 48.5198 48.3698L49.4084 49.2559C49.5665 49.4149 49.5674 49.6721 49.4106 49.8289L47.1009 52.139C46.9979 52.2419 46.8762 52.2569 46.8129 52.2569C46.7505 52.2569 46.6301 52.2419 46.5292 52.1411L45.5872 51.1986C45.33 50.941 44.9348 50.8824 44.6139 51.0533C44.0256 51.3669 43.4103 51.6147 42.784 51.7903C42.4272 51.8903 42.1807 52.2159 42.1807 52.5863V53.9432C42.1807 54.162 41.9974 54.347 41.7804 54.347H38.5111C38.2924 54.347 38.1074 54.162 38.1074 53.9432V52.5359C38.1074 52.1719 37.8694 51.8506 37.5212 51.7451C36.8978 51.5554 36.3014 51.3046 35.7485 50.9991C35.6229 50.9299 35.4858 50.8961 35.3491 50.8961C35.135 50.8961 34.9235 50.9794 34.7646 51.1384L33.764 52.1394C33.661 52.2419 33.5392 52.2573 33.476 52.2573C33.4132 52.2573 33.2932 52.2424 33.1923 52.1411L30.8809 49.8293C30.7237 49.6721 30.7245 49.4153 30.8805 49.2581L31.7303 48.4078C31.7307 48.4074 31.7311 48.407 31.7316 48.4066L31.8828 48.2553C32.1434 47.9951 32.1998 47.5939 32.0221 47.2718C31.717 46.7185 31.4662 46.1221 31.277 45.4983C31.171 45.1501 30.8502 44.9117 30.4857 44.9117H29.0788C28.86 44.9117 28.675 44.7271 28.675 44.5079V41.2374C28.675 41.0203 28.86 40.8366 29.0788 40.8366H30.4353C30.8057 40.8366 31.1309 40.5901 31.2308 40.2333C31.4064 39.6074 31.6547 38.9913 31.9678 38.4026C32.1387 38.0817 32.0798 37.687 31.8226 37.4297L30.8805 36.4872C30.7263 36.333 30.7271 36.0707 30.8805 35.9164L33.1919 33.6042C33.2927 33.5034 33.4132 33.488 33.476 33.488C33.5392 33.488 33.6606 33.5034 33.761 33.6029L34.6497 34.495C34.9116 34.7578 35.3162 34.8146 35.64 34.6326C36.245 34.2925 36.8769 34.0229 37.5182 33.8306C37.8681 33.726 38.1074 33.4038 38.1074 33.0389V31.8051C38.1074 31.5863 38.2924 31.4013 38.5111 31.4013H41.7804C41.997 31.4013 42.1803 31.5863 42.1803 31.8051V32.9851C42.1803 33.3538 42.4247 33.6781 42.7793 33.7798C43.4565 33.9733 44.1093 34.2408 44.7203 34.574C45.042 34.7496 45.4415 34.6924 45.7008 34.433L46.5292 33.6042C46.6301 33.5034 46.7501 33.4884 46.8129 33.4884C46.8762 33.4884 46.9979 33.5034 47.0992 33.6042L49.4084 35.9147C49.5665 36.0737 49.5674 36.3304 49.4106 36.4872L48.5822 37.3161C48.3228 37.5754 48.2656 37.9741 48.4412 38.2962C48.7774 38.9131 49.0432 39.5651 49.2307 40.2338C49.3311 40.5901 49.6562 40.8366 50.0267 40.8366H51.2093C51.428 40.8366 51.6126 41.0203 51.6126 41.2374V44.5079Z" fill="white"/>
<path d="M12.6149 21.1274H17.4462C18.5574 21.1274 19.4615 20.2234 19.4615 19.1117V14.2787C19.4615 14.0023 19.4055 13.7387 19.3043 13.4985L20.8244 11.6387C21.1132 11.285 21.0607 10.7646 20.7073 10.4753C20.354 10.187 19.8332 10.2391 19.5444 10.5924L18.0913 12.3706C17.8884 12.3018 17.6718 12.2625 17.4462 12.2625H12.6149C11.5032 12.2625 10.5991 13.167 10.5991 14.2787V19.1117C10.5991 20.2234 11.5036 21.1274 12.6149 21.1274ZM12.2521 14.2787C12.2521 14.0822 12.4183 13.916 12.6149 13.916H16.8284L15.0506 16.0911L14.2986 15.3797C13.9671 15.0661 13.4437 15.0806 13.1301 15.4122C12.8165 15.7437 12.8311 16.2671 13.1626 16.5807L14.5601 17.903C14.7144 18.0487 14.9177 18.129 15.1284 18.129C15.1459 18.129 15.1634 18.1282 15.1813 18.1273C15.4103 18.1124 15.6231 18.003 15.7684 17.8253L17.808 15.3289V19.1117C17.808 19.3082 17.6423 19.4744 17.4457 19.4744H12.6144C12.4179 19.4744 12.2521 19.3082 12.2521 19.1117V14.2787Z" fill="white"/>
<path d="M12.4758 32.154H17.3071C18.4183 32.154 19.3228 31.2499 19.3228 30.1382V25.3048C19.3228 25.0288 19.2664 24.7652 19.1656 24.5251L20.6853 22.6653C20.9745 22.3115 20.922 21.7907 20.5687 21.5019C20.2149 21.2131 19.6945 21.2656 19.4057 21.619L17.9526 23.3972C17.7497 23.3279 17.5331 23.2891 17.3075 23.2891H12.4758C11.3645 23.2891 10.4604 24.1935 10.4604 25.3052V30.1382C10.4604 31.2499 11.3645 32.154 12.4758 32.154ZM12.1135 25.3048C12.1135 25.1083 12.2797 24.9425 12.4758 24.9425H16.6897L14.9124 27.1168L14.1634 26.4067C13.8323 26.0927 13.3093 26.1068 12.9953 26.4379C12.6808 26.769 12.6949 27.2924 13.0261 27.6064L14.4206 28.9287C14.5748 29.0748 14.7782 29.1556 14.9893 29.1556C15.0068 29.1556 15.0243 29.1547 15.0418 29.1539C15.2708 29.1393 15.484 29.03 15.6293 28.8518L17.6694 26.3554V30.1382C17.6694 30.3348 17.5032 30.501 17.3071 30.501H12.4753C12.2792 30.501 12.113 30.3348 12.113 30.1382V25.3048H12.1135Z" fill="white"/>
<path d="M12.4753 43.5702H17.3066C18.4178 43.5702 19.3223 42.6657 19.3223 41.554V36.721C19.3223 36.4446 19.2659 36.181 19.1651 35.9408L20.6848 34.081C20.9741 33.7277 20.9215 33.2069 20.5682 32.9181C20.2144 32.6293 19.694 32.6814 19.4052 33.0347L17.9521 34.8129C17.7492 34.7441 17.5326 34.7053 17.307 34.7053H12.4753C11.364 34.7053 10.46 35.6093 10.46 36.721V41.554C10.46 42.6657 11.364 43.5702 12.4753 43.5702ZM12.113 36.721C12.113 36.5245 12.2792 36.3583 12.4753 36.3583H16.6892L14.9119 38.5329L14.1629 37.8229C13.8318 37.5088 13.3088 37.5225 12.9948 37.8541C12.6804 38.1852 12.6945 38.7085 13.0256 39.0226L14.4201 40.3445C14.5743 40.4906 14.7777 40.5713 14.9888 40.5713C15.0063 40.5713 15.0238 40.5709 15.0413 40.5696C15.2703 40.5551 15.4835 40.4457 15.6288 40.268L17.6689 37.7716V41.554C17.6689 41.7505 17.5027 41.9167 17.3066 41.9167H12.4749C12.2787 41.9167 12.1125 41.7505 12.1125 41.554V36.721H12.113Z" fill="white"/>
<path d="M23.0113 15.8744H34.1099C34.5662 15.8744 34.9362 15.5044 34.9362 15.0477C34.9362 14.5909 34.5662 14.2209 34.1099 14.2209H23.0113C22.555 14.2209 22.1846 14.5909 22.1846 15.0477C22.1846 15.504 22.555 15.8744 23.0113 15.8744Z" fill="white"/>
<path d="M23.0113 19.1891H34.1099C34.5662 19.1891 34.9362 18.8192 34.9362 18.3629C34.9362 17.9061 34.5662 17.5361 34.1099 17.5361H23.0113C22.555 17.5361 22.1846 17.9061 22.1846 18.3629C22.1846 18.8192 22.555 19.1891 23.0113 19.1891Z" fill="white"/>
<path d="M34.1096 25.709H23.4571C23.0004 25.709 22.6304 26.079 22.6304 26.5353C22.6304 26.992 23.0004 27.362 23.4571 27.362H34.1096C34.5659 27.362 34.9359 26.992 34.9359 26.5353C34.9359 26.079 34.5659 25.709 34.1096 25.709Z" fill="white"/>
<path d="M34.1096 29.0234H23.4571C23.0004 29.0234 22.6304 29.3934 22.6304 29.8502C22.6304 30.3069 23.0004 30.6769 23.4571 30.6769H34.1096C34.5659 30.6769 34.9359 30.3069 34.9359 29.8502C34.9359 29.3934 34.5659 29.0234 34.1096 29.0234Z" fill="white"/>
</svg>
