<svg width="56" height="56" viewBox="0 0 56 56" fill="none" xmlns="http://www.w3.org/2000/svg">
<g clip-path="url(#clip0_0_31506)">
<path d="M23.1302 44.1328L22.9115 45.555C22.8217 46.1387 22.9908 46.7306 23.3753 47.179C23.76 47.6273 24.3194 47.8844 24.91 47.8844H31.0899C31.6806 47.8844 32.24 47.6273 32.6246 47.1791C33.0091 46.7309 33.1782 46.1388 33.0885 45.5551L32.8698 44.1327C32.8413 43.9478 32.9528 43.7704 33.1349 43.711C33.9404 43.4478 34.7325 43.1187 35.4892 42.7331C35.6528 42.6499 35.8521 42.6985 35.9628 42.8496L36.8151 44.0115C37.1643 44.4878 37.7025 44.7868 38.2915 44.8318C38.8797 44.8768 39.4579 44.663 39.8755 44.2454L44.2452 39.8756C44.6629 39.4579 44.8767 38.8806 44.8317 38.2916C44.7866 37.7026 44.4876 37.1645 44.0113 36.8151L42.8493 35.9629C42.6983 35.8522 42.6495 35.6529 42.7329 35.4892C43.1188 34.7318 43.4478 33.9397 43.7107 33.1349C43.7702 32.9528 43.9472 32.8413 44.1325 32.8698L45.5549 33.0885C46.1386 33.1784 46.7308 33.0091 47.179 32.6245C47.6273 32.2399 47.8844 31.6805 47.8844 31.0899V24.91C47.8844 24.3194 47.6272 23.76 47.179 23.3754C46.7308 22.9907 46.1385 22.8215 45.5549 22.9114L44.1324 23.1301C43.9481 23.1587 43.7701 23.0471 43.7107 22.8651C43.4478 22.0602 43.1188 21.268 42.7329 20.5107C42.6495 20.347 42.6985 20.1477 42.8493 20.037L44.0113 19.1848C44.4875 18.8354 44.7866 18.2973 44.8317 17.7083C44.8767 17.1193 44.6629 16.542 44.2453 16.1243L39.8755 11.7545C39.4578 11.3368 38.8809 11.1232 38.2915 11.1681C37.7025 11.2132 37.1644 11.5121 36.8151 11.9884L35.9628 13.1505C35.852 13.3014 35.6531 13.3504 35.4892 13.2669C34.7323 12.8813 33.9403 12.5523 33.1349 12.289C32.9528 12.2295 32.8413 12.0521 32.8698 11.8672L33.0885 10.4448C33.1782 9.86098 33.0091 9.26904 32.6246 8.82072C32.24 8.37239 31.6806 8.11536 31.0899 8.11536H24.91C24.3194 8.11536 23.76 8.3725 23.3754 8.82083C22.9908 9.26915 22.8217 9.86109 22.9115 10.4447L23.1302 11.8672C23.1587 12.0521 23.0472 12.2295 22.8652 12.2889C22.06 12.552 21.2678 12.881 20.5109 13.2668C20.3471 13.3503 20.1478 13.3013 20.0372 13.1504L19.1849 11.9884C18.8356 11.5121 18.2974 11.2131 17.7083 11.1681C17.119 11.1231 16.5421 11.3369 16.1246 11.7546C15.8042 12.075 15.8042 12.5944 16.1247 12.9146C16.4452 13.235 16.9644 13.2349 17.2847 12.9145C17.3925 12.8068 17.5179 12.7991 17.5833 12.8039C17.6487 12.809 17.7717 12.8357 17.8619 12.9587L18.7142 14.1207C19.3029 14.9233 20.3716 15.1791 21.2557 14.7286C21.9371 14.3813 22.6501 14.0852 23.3748 13.8484C24.3238 13.5382 24.9029 12.6001 24.7518 11.6179L24.5331 10.1953C24.5098 10.0446 24.578 9.93875 24.6206 9.88909C24.6633 9.83943 24.7576 9.75598 24.91 9.75598H31.0899C31.2426 9.75598 31.3369 9.83933 31.3795 9.88909C31.4221 9.93886 31.4901 10.0447 31.467 10.1956L31.2482 11.6179C31.097 12.6003 31.6762 13.5384 32.6252 13.8485C33.3501 14.0854 34.0631 14.3816 34.7444 14.7287C35.6282 15.1792 36.6972 14.9235 37.2858 14.1208L38.1381 12.9588C38.2283 12.8358 38.3512 12.8091 38.4165 12.804C38.4827 12.7989 38.6076 12.8069 38.7153 12.9146L43.0853 17.2845C43.1932 17.3923 43.2009 17.518 43.1959 17.5833C43.191 17.6486 43.1642 17.7716 43.0411 17.8619L41.8791 18.7141C41.0765 19.3028 40.8208 20.3716 41.2711 21.2556C41.6185 21.9374 41.9147 22.6504 42.1514 23.3749C42.4618 24.3239 43.4 24.9028 44.382 24.7517L45.8044 24.533C45.9556 24.51 46.0612 24.5779 46.1108 24.6205C46.1605 24.6631 46.244 24.7574 46.244 24.91V31.0899C46.244 31.2425 46.1605 31.3368 46.1108 31.3794C46.0612 31.4221 45.9553 31.4901 45.8044 31.4669L44.382 31.2482C43.4011 31.0975 42.4617 31.6762 42.1514 32.6252C41.9147 33.3495 41.6186 34.0625 41.2711 34.7443C40.8208 35.6282 41.0765 36.697 41.8791 37.2858L43.0411 38.138C43.1642 38.2283 43.191 38.3513 43.1959 38.4166C43.2009 38.4819 43.1933 38.6075 43.0852 38.7154L38.7153 43.0853C38.6075 43.1932 38.4816 43.2009 38.4166 43.1959C38.3512 43.1908 38.2283 43.1641 38.1381 43.0411L37.2858 41.8792C36.6972 41.0764 35.6281 40.8208 34.7444 41.2712C34.0631 41.6183 33.3502 41.9145 32.6252 42.1514C31.6762 42.4615 31.097 43.3996 31.2482 44.382L31.467 45.8045C31.4901 45.9553 31.4221 46.0612 31.3795 46.1108C31.3368 46.1605 31.2425 46.2439 31.0899 46.2439H24.91C24.7575 46.2439 24.6632 46.1606 24.6206 46.1108C24.5779 46.0612 24.5098 45.9553 24.5331 45.8043L24.7518 44.382C24.9029 43.3997 24.3238 42.4616 23.3748 42.1514C22.6501 41.9145 21.9371 41.6185 21.2556 41.2712C20.3718 40.8208 19.3028 41.0766 18.7142 41.8792L17.8619 43.0412C17.7717 43.1642 17.6487 43.1909 17.5833 43.196C17.5178 43.2009 17.3925 43.1931 17.2847 43.0854L12.9148 38.7155C12.8069 38.6077 12.7992 38.482 12.8042 38.4167C12.8091 38.3514 12.8359 38.2284 12.9588 38.1382L14.1208 37.286C14.9237 36.6972 15.1793 35.6284 14.7289 34.7446C14.3817 34.0633 14.0855 33.3502 13.8486 32.6254C13.5385 31.6765 12.5994 31.0973 11.618 31.2484L10.1956 31.4671C10.0446 31.4904 9.93889 31.4222 9.88924 31.3796C9.83958 31.3371 9.75613 31.2427 9.75613 31.0901V24.9102C9.75613 24.7576 9.83958 24.6634 9.88924 24.6207C9.93889 24.578 10.0444 24.5099 10.1956 24.5332L11.618 24.7519C12.5996 24.903 13.5384 24.324 13.8486 23.375C14.0855 22.6501 14.3817 21.9371 14.7289 21.2559C15.1793 20.3719 14.9237 19.3031 14.1208 18.7143L12.9588 17.8621C12.8359 17.7719 12.8091 17.6489 12.8042 17.5835C12.7992 17.5182 12.8068 17.3925 12.9149 17.2847L14.8046 15.395C15.1249 15.0747 15.1249 14.5554 14.8046 14.235C14.4841 13.9146 13.9648 13.9146 13.6444 14.235L11.7548 16.1247C11.3371 16.5424 11.1234 17.1197 11.1684 17.7086C11.2134 18.2976 11.5125 18.8357 11.9887 19.1851L13.1507 20.0373C13.3016 20.148 13.3506 20.3472 13.2671 20.5109C12.8815 21.2677 12.5525 22.0598 12.2893 22.8653C12.2298 23.0473 12.0527 23.1589 11.8675 23.1304L10.4451 22.9116C9.86124 22.8217 9.2693 22.9909 8.82108 23.3756C8.37275 23.7602 8.11572 24.3196 8.11572 24.9102V31.0901C8.11572 31.6809 8.37286 32.2402 8.82108 32.6248C9.26952 33.0094 9.862 33.1784 10.4451 33.0887L11.8675 32.87C12.053 32.8418 12.2298 32.953 12.2893 33.1351C12.5525 33.9405 12.8815 34.7326 13.2671 35.4895C13.3506 35.6532 13.3015 35.8524 13.1507 35.9631L11.9887 36.8154C11.5125 37.1647 11.2134 37.7028 11.1684 38.2918C11.1234 38.8808 11.3371 39.4581 11.7547 39.8757L16.1246 44.2454C16.5421 44.6631 17.1194 44.8769 17.7085 44.8319C18.2974 44.7869 18.8356 44.4879 19.1849 44.0116L20.0372 42.8496C20.1478 42.6985 20.3471 42.6496 20.5109 42.7331C21.2678 43.1189 22.0599 43.4479 22.8652 43.711C23.0472 43.7705 23.1586 43.9478 23.1302 44.1328Z" fill="white"/>
<path d="M37.4886 29.5223C37.9422 29.5552 38.3335 29.2154 38.3662 28.7635C38.3845 28.5103 38.3938 28.2532 38.3938 27.9996C38.3938 22.2682 33.731 17.6055 27.9996 17.6055C22.2682 17.6055 17.6055 22.2682 17.6055 27.9996C17.6055 33.731 22.2682 38.3937 27.9996 38.3937C31.6955 38.3937 35.1437 36.4052 36.9989 33.204C37.226 32.812 37.0924 32.3101 36.7004 32.0829C36.3083 31.8558 35.8063 31.9894 35.5793 32.3814C34.4865 34.2671 32.7371 35.6523 30.7195 36.3155V33.6578C30.7195 33.607 30.7523 33.5593 30.8052 33.5332C32.9687 32.4627 34.3128 30.2997 34.3128 27.8882C34.3128 25.4866 32.9138 23.2599 30.7486 22.2156C30.3672 22.0317 29.9251 22.0559 29.5664 22.2811C29.2086 22.5058 28.9949 22.8922 28.9949 23.3147V27.0679H27.0374V23.3145C27.0374 22.8922 26.824 22.506 26.4664 22.2816C26.1075 22.0562 25.665 22.0318 25.2823 22.2163C23.0185 23.3088 21.6222 25.6384 21.7249 28.1513C21.8183 30.4385 23.1594 32.4987 25.2249 33.5277C25.2674 33.549 25.3129 33.5932 25.3129 33.654V36.3296C21.7968 35.1929 19.2459 31.8892 19.2459 27.9995C19.2459 23.1728 23.1727 19.246 27.9994 19.246C32.8262 19.246 36.753 23.1728 36.753 27.9995C36.753 28.2137 36.7451 28.4309 36.7296 28.6447C36.6971 29.0966 37.0368 29.4895 37.4886 29.5223ZM25.9567 32.0594C24.4268 31.2971 23.4334 29.774 23.3644 28.0844C23.298 26.4584 24.0797 24.9362 25.397 24.0395V27.4877C25.397 28.1609 25.9447 28.7086 26.6179 28.7086H29.4148C30.088 28.7086 30.6357 28.1609 30.6357 27.4877V24.0407C31.8912 24.8999 32.6723 26.3453 32.6723 27.8882C32.6723 29.6714 31.6781 31.2709 30.0776 32.0627C29.4616 32.3675 29.0789 32.9787 29.0789 33.6578V36.6847C28.7231 36.7294 28.3628 36.7531 27.9995 36.7531C27.6453 36.7531 27.2969 36.7295 26.9536 36.6885V33.654C26.9537 32.9768 26.5717 32.3657 25.9567 32.0594Z" fill="white"/>
<path d="M6.07504 37.5327C4.76363 34.5207 4.09863 31.3134 4.09863 28C4.09863 21.6158 6.58473 15.6136 11.0992 11.0993C15.445 6.75347 21.1698 4.28838 27.2868 4.11031C27.6559 5.51655 28.9376 6.55692 30.458 6.55692C32.2658 6.55692 33.7365 5.08616 33.7365 3.27841C33.7364 1.47077 32.2658 0 30.458 0C28.9296 0 27.6423 1.05142 27.2809 2.46881C20.7278 2.64873 14.5934 5.28478 9.93904 9.93913C5.11484 14.7633 2.45801 21.1775 2.45801 28C2.45801 31.5401 3.16884 34.9678 4.5708 38.1877C5.92498 41.2975 7.85752 44.0704 10.315 46.429C10.474 46.5817 10.6785 46.6575 10.8828 46.6575C11.0984 46.6575 11.3137 46.5731 11.4748 46.4053C11.7885 46.0785 11.7779 45.5592 11.4509 45.2455C9.15088 43.0376 7.34215 40.4426 6.07504 37.5327ZM30.458 1.64062C31.3611 1.64062 32.0959 2.37541 32.0959 3.27841C32.0959 4.18152 31.3611 4.9163 30.458 4.9163C29.5549 4.9163 28.8201 4.18152 28.8201 3.27841C28.8201 2.37541 29.5549 1.64062 30.458 1.64062Z" fill="white"/>
<path d="M53.5416 28.0003C53.5416 24.4602 52.8308 21.0325 51.4288 17.8126C50.0747 14.7027 48.1422 11.93 45.6847 9.57131C45.3579 9.25751 44.8387 9.26823 44.5249 9.59504C44.2112 9.92186 44.2219 10.4412 44.5488 10.7549C46.8488 12.9627 48.6576 15.5576 49.9246 18.4675C51.236 21.4796 51.901 24.6868 51.901 28.0002C51.901 34.3845 49.4149 40.3866 44.9005 44.901C40.5546 49.2468 34.8298 51.7119 28.7128 51.8899C28.3437 50.4838 27.062 49.4433 25.5416 49.4433C23.7339 49.4433 22.2632 50.9141 22.2632 52.7217C22.2632 54.5295 23.7338 56.0002 25.5416 56.0002C27.07 56.0002 28.3573 54.9488 28.7187 53.5313C35.2718 53.3514 41.4062 50.7153 46.0607 46.061C50.8848 41.2369 53.5416 34.8228 53.5416 28.0003ZM25.5416 54.3597C24.6385 54.3597 23.9038 53.6249 23.9038 52.7218C23.9038 51.8187 24.6385 51.084 25.5416 51.084C26.4447 51.084 27.1795 51.8188 27.1795 52.7218C27.1795 53.6249 26.4447 54.3597 25.5416 54.3597Z" fill="white"/>
</g>
<defs>
<clipPath id="clip0_0_31506">
<rect width="56" height="56" fill="white"/>
</clipPath>
</defs>
</svg>
