<svg width="34" height="34" viewBox="0 0 34 34" fill="none" xmlns="http://www.w3.org/2000/svg">
<mask id="mask0_0_21662" style="mask-type:alpha" maskUnits="userSpaceOnUse" x="0" y="0" width="34" height="34">
<rect width="34" height="34" fill="#D9D9D9"/>
</mask>
<g mask="url(#mask0_0_21662)">
<path d="M9.80762 30.458C8.04056 30.458 6.5363 29.8386 5.29483 28.5997C4.05335 27.3611 3.43262 25.86 3.43262 24.0965C3.43262 22.7825 3.78773 21.6068 4.49795 20.5693C5.20817 19.5318 6.12995 18.7687 7.26328 18.28H3.5417V16.1553H11.0065V23.6198H8.88147V19.9393C7.91696 20.1456 7.12185 20.6359 6.49616 21.4101C5.87046 22.1843 5.55762 23.0747 5.55762 24.0812C5.55762 25.2684 5.97317 26.2739 6.80428 27.0977C7.63516 27.9212 8.63627 28.333 9.80762 28.333V30.458ZM10.2709 12.3955H23.7292V10.2705H10.2709V12.3955ZM14.1122 29.0413V23.7288H19.4792V21.6038H14.1122V18.0622H23.7292V15.9372H14.1122V13.0493H4.95837V7.51899C4.95837 6.80333 5.20628 6.19759 5.70212 5.70176C6.19795 5.20592 6.80369 4.95801 7.51935 4.95801H26.4807C27.1964 4.95801 27.8021 5.20592 28.298 5.70176C28.7938 6.19759 29.0417 6.80333 29.0417 7.51899V26.4804C29.0417 27.196 28.7938 27.8018 28.298 28.2976C27.8021 28.7934 27.1964 29.0413 26.4807 29.0413H14.1122Z" fill="#265CAA"/>
</g>
</svg>
