<svg width="30" height="30" viewBox="0 0 30 30" fill="none" xmlns="http://www.w3.org/2000/svg">
<path d="M30 10V7.5C30 4.05375 27.1963 1.25 23.75 1.25H6.25C2.80375 1.25 0 4.05375 0 7.5V10H30ZM10.625 3.75C11.66 3.75 12.5 4.59 12.5 5.625C12.5 6.66 11.66 7.5 10.625 7.5C9.59 7.5 8.75 6.66 8.75 5.625C8.75 4.59 9.59 3.75 10.625 3.75ZM5.625 3.75C6.66 3.75 7.5 4.59 7.5 5.625C7.5 6.66 6.66 7.5 5.625 7.5C4.59 7.5 3.75 6.66 3.75 5.625C3.75 4.59 4.59 3.75 5.625 3.75ZM0 12.5V22.5C0 25.9463 2.80375 28.75 6.25 28.75H23.75C27.1963 28.75 30 25.9463 30 22.5V12.5H0ZM15 21.25C15 23.3175 13.3175 25 11.25 25C9.1825 25 7.5 23.3175 7.5 21.25V17.5C7.5 16.8088 8.06 16.25 8.75 16.25C9.44 16.25 10 16.8088 10 17.5V21.25C10 21.94 10.5612 22.5 11.25 22.5C11.9388 22.5 12.5 21.94 12.5 21.25V17.5C12.5 16.8088 13.06 16.25 13.75 16.25C14.44 16.25 15 16.8088 15 17.5V21.25ZM22.3213 23.1063C22.6763 23.6988 22.485 24.4663 21.8925 24.8213C21.6912 24.9425 21.47 25 21.25 25C20.825 25 20.4113 24.7837 20.1775 24.3937L19.3737 23.055L18.57 24.3937C18.335 24.7837 17.9212 25 17.4975 25C17.2787 25 17.0562 24.9425 16.855 24.8213C16.2625 24.4663 16.0712 23.6988 16.4263 23.1063L17.915 20.625L16.4263 18.1438C16.0712 17.5513 16.2625 16.7837 16.855 16.4287C17.4475 16.0725 18.215 16.265 18.57 16.8575L19.3737 18.1963L20.1775 16.8575C20.5325 16.265 21.3 16.0725 21.8925 16.4287C22.485 16.7837 22.6763 17.5513 22.3213 18.1438L20.8325 20.625L22.3213 23.1063Z" fill="#265CAA"/>
</svg>
