<svg width="70" height="70" viewBox="0 0 70 70" fill="none" xmlns="http://www.w3.org/2000/svg">
<g clip-path="url(#clip0_100_295)">
<path d="M67.6602 1.86035H2.04206C0.914298 1.86035 0 2.77465 0 3.90241V55.3345C0 56.4623 0.914298 57.3766 2.04206 57.3766H26.9021V63.7571H26.3138C25.1861 63.7571 24.2718 64.6714 24.2718 65.7991C24.2718 66.9269 25.1861 67.8412 26.3138 67.8412H43.3885C44.5162 67.8412 45.4305 66.9269 45.4305 65.7991C45.4305 64.6714 44.5162 63.7571 43.3885 63.7571H42.8002V57.3766H67.6602C68.788 57.3766 69.7023 56.4623 69.7023 55.3345V3.90241C69.7023 2.77465 68.788 1.86035 67.6602 1.86035ZM4.08412 5.94447H65.6182V42.6655H4.08412V5.94447ZM38.7161 63.7571H30.9862V57.3766H38.716V63.7571H38.7161ZM65.6182 53.2925H4.08412V46.7496H65.6182V53.2925Z" fill="#265CAA"/>
<path d="M45.0342 14.5039C43.9065 14.5039 42.9922 15.4182 42.9922 16.546V32.0647C42.9922 33.1924 43.9065 34.1067 45.0342 34.1067C46.162 34.1067 47.0763 33.1924 47.0763 32.0647V16.546C47.0763 15.4182 46.162 14.5039 45.0342 14.5039Z" fill="#265CAA"/>
<path d="M35.4515 14.5039C34.3237 14.5039 33.4094 15.4182 33.4094 16.546V27.2133C33.4094 27.9273 33.2047 28.8501 31.608 29.6544C31.1162 29.9021 30.5809 30.0226 29.9721 30.0226C29.9699 30.0226 29.968 30.0226 29.966 30.0226C29.3009 30.0216 28.7241 29.8592 28.202 29.5257C26.9637 28.7346 26.7101 28.0336 26.7101 27.2246V16.5461C26.7101 15.4183 25.7958 14.504 24.668 14.504C23.5403 14.504 22.626 15.4183 22.626 16.5461V27.2246C22.626 29.6037 23.7623 31.5358 26.0033 32.9675C27.1834 33.7216 28.5149 34.1048 29.9605 34.1069H29.9717C31.2162 34.1069 32.385 33.8361 33.4452 33.302C36.7912 31.6169 37.4935 29.0609 37.4935 27.2134V16.5461C37.4935 15.4182 36.5792 14.5039 35.4515 14.5039Z" fill="#265CAA"/>
</g>
<defs>
<clipPath id="clip0_100_295">
<rect width="69.7023" height="69.7023" fill="white"/>
</clipPath>
</defs>
</svg>
