<svg width="30" height="30" viewBox="0 0 30 30" fill="none" xmlns="http://www.w3.org/2000/svg">
<path d="M25.6355 1.875H4.36367C3.93113 1.87531 3.5164 2.04727 3.21055 2.35312C2.90469 2.65898 2.73273 3.07371 2.73242 3.50625V16.2141H27.2668V3.50625C27.2665 3.07371 27.0945 2.65898 26.7887 2.35312C26.4828 2.04727 26.0681 1.87531 25.6355 1.875ZM8.52617 12.2953H9.53399C9.60633 12.2963 9.67817 12.283 9.74537 12.2562C9.81258 12.2294 9.87384 12.1896 9.92565 12.1391C9.97747 12.0886 10.0188 12.0284 10.0473 11.9619C10.0758 11.8954 10.0909 11.8239 10.0918 11.7516C10.0542 11.4152 10.1707 11.0667 10.5606 11.0578C10.9526 11.0686 11.0657 11.4132 11.0293 11.7516C11.0268 12.1461 10.8681 12.5236 10.5878 12.8012C10.3075 13.0789 9.92853 13.2341 9.53399 13.2328H8.52617C8.13163 13.2341 7.75266 13.0789 7.47236 12.8013C7.19206 12.5236 7.03329 12.1461 7.03086 11.7516V8.27812C7.0323 7.88285 7.19061 7.50431 7.47099 7.22569C7.75137 6.94707 8.1309 6.79115 8.52617 6.79219H9.53399C9.92926 6.79115 10.3088 6.94707 10.5892 7.2257C10.8695 7.50432 11.0278 7.88285 11.0293 8.27812C11.0269 8.40086 10.9765 8.51777 10.8888 8.60372C10.8012 8.68967 10.6833 8.73782 10.5605 8.73781C10.4378 8.73781 10.3199 8.68966 10.2323 8.6037C10.1446 8.51774 10.0942 8.40084 10.0918 8.2781C10.0914 8.20539 10.0767 8.13347 10.0484 8.06649C10.0201 7.9995 9.97888 7.93877 9.92703 7.8878C9.87518 7.83682 9.81376 7.79661 9.7463 7.76947C9.67885 7.74234 9.60669 7.72882 9.53399 7.72969H8.52617C8.45347 7.72882 8.38131 7.74235 8.31385 7.76948C8.2464 7.79662 8.18498 7.83684 8.13313 7.88782C8.08128 7.93879 8.04003 7.99952 8.01175 8.06651C7.98347 8.1335 7.96873 8.20542 7.96836 8.27812V11.7516C7.96922 11.8239 7.98433 11.8954 8.01284 11.9619C8.04135 12.0284 8.08269 12.0886 8.1345 12.1391C8.18631 12.1896 8.24758 12.2294 8.31478 12.2562C8.38199 12.283 8.45382 12.2963 8.52617 12.2953ZM17.4793 12.7641C17.4771 12.8869 17.4267 13.004 17.3391 13.0901C17.2514 13.1762 17.1334 13.2245 17.0105 13.2245C16.8876 13.2245 16.7697 13.1762 16.682 13.0901C16.5943 13.004 16.544 12.8869 16.5418 12.764V8.325L15.623 9.73125C15.5596 9.82589 15.4738 9.90344 15.3732 9.95706C15.2727 10.0107 15.1604 10.0387 15.0465 10.0387C14.9325 10.0387 14.8203 10.0107 14.7198 9.95706C14.6192 9.90344 14.5334 9.82589 14.4699 9.73125L13.5559 8.325V12.7641C13.5559 12.8884 13.5065 13.0076 13.4186 13.0955C13.3307 13.1834 13.2114 13.2328 13.0871 13.2328C12.9628 13.2328 12.8436 13.1834 12.7557 13.0955C12.6677 13.0076 12.6184 12.8884 12.6184 12.7641V7.48125C12.6168 7.33319 12.6634 7.18864 12.7513 7.06944C12.8391 6.95024 12.9633 6.86287 13.1052 6.82051C13.2471 6.77816 13.3989 6.78314 13.5377 6.83468C13.6765 6.88623 13.7948 6.98156 13.8746 7.10625L15.0465 8.89687L16.2184 7.10625C16.3002 6.98424 16.419 6.89159 16.5572 6.84185C16.6955 6.7921 16.846 6.78787 16.9868 6.82975C17.1277 6.87164 17.2514 6.95746 17.34 7.07468C17.4286 7.19189 17.4774 7.33436 17.4793 7.48128V12.7641ZM22.5277 8.6625C22.5263 8.72734 22.5115 8.79119 22.4842 8.85005C22.457 8.90892 22.4179 8.96154 22.3694 9.00463C22.321 9.04772 22.2641 9.08036 22.2025 9.10052C22.1408 9.12067 22.0757 9.12791 22.0111 9.12177C21.9465 9.11564 21.8839 9.09626 21.8272 9.06486C21.7704 9.03345 21.7208 8.99069 21.6813 8.93924C21.6418 8.88778 21.6133 8.82875 21.5977 8.76581C21.582 8.70287 21.5795 8.63737 21.5902 8.57341C21.5914 8.45118 21.566 8.33014 21.5159 8.21866C21.4657 8.10718 21.392 8.0079 21.2997 7.92769C21.2075 7.84748 21.0989 7.78824 20.9816 7.75405C20.8642 7.71987 20.7408 7.71155 20.6199 7.72969C19.5538 7.72838 19.5495 9.591 20.62 9.59059C23.1539 9.48084 23.1536 13.3427 20.6199 13.2328C20.1545 13.2266 19.7106 13.0361 19.3855 12.703C19.0603 12.37 18.8806 11.9216 18.8855 11.4563C18.8879 11.3335 18.9384 11.2166 19.026 11.1307C19.1137 11.0447 19.2316 10.9966 19.3543 10.9966C19.4771 10.9966 19.5949 11.0447 19.6826 11.1307C19.7702 11.2166 19.8207 11.3335 19.823 11.4563C19.8203 11.5637 19.8386 11.6706 19.8772 11.7709C19.9157 11.8712 19.9736 11.963 20.0477 12.0409C20.1217 12.1188 20.2103 12.1814 20.3085 12.225C20.4067 12.2687 20.5125 12.2926 20.6199 12.2953C21.8042 12.4503 21.9568 10.5872 20.7934 10.5281C20.5341 10.5464 20.2739 10.508 20.0309 10.4156C19.788 10.3231 19.568 10.1789 19.3865 9.99287C19.2049 9.80684 19.066 9.58349 18.9795 9.33836C18.893 9.09322 18.861 8.83219 18.8856 8.5734C18.9393 6.14391 22.5887 6.22869 22.5277 8.6625Z" fill="#265CAA"/>
<path d="M2.73242 17.1516V19.7157C2.73255 20.1487 2.90431 20.564 3.21006 20.8707C3.51582 21.1773 3.93065 21.3502 4.36367 21.3516H25.3918C25.638 21.3517 25.8819 21.3032 26.1094 21.209C26.3369 21.1148 26.5436 20.9767 26.7178 20.8026C26.8919 20.6285 27.03 20.4217 27.1242 20.1942C27.2184 19.9667 27.2669 19.7229 27.2668 19.4766V17.1516H2.73242ZM13.659 18.7829H16.3449C16.468 18.7847 16.5855 18.8349 16.6719 18.9226C16.7583 19.0103 16.8068 19.1285 16.8068 19.2516C16.8068 19.3747 16.7583 19.4929 16.6719 19.5806C16.5855 19.6683 16.468 19.7185 16.3449 19.7204H13.659C13.5362 19.7181 13.4191 19.6677 13.3331 19.5801C13.247 19.4924 13.1988 19.3745 13.1988 19.2516C13.1988 19.1288 13.247 19.0108 13.3331 18.9232C13.4191 18.8355 13.5362 18.7851 13.659 18.7829Z" fill="#265CAA"/>
<path d="M17.6857 24.2438L17.3248 22.2891C16.706 22.2891 13.1717 22.2891 13.1717 22.2891L12.8154 24.2438C14.0175 24.2439 16.4837 24.2436 17.6857 24.2438Z" fill="#265CAA"/>
<path d="M18.651 25.1816H11.3479C11.0385 25.1825 10.7422 25.3057 10.5234 25.5244C10.3047 25.7431 10.1815 26.0395 10.1807 26.3488V27.6566C10.181 27.7808 10.2305 27.8999 10.3184 27.9877C10.4062 28.0755 10.5252 28.125 10.6494 28.1254H19.3494C19.411 28.1256 19.4721 28.1136 19.529 28.0901C19.586 28.0667 19.6378 28.0321 19.6813 27.9886C19.7249 27.945 19.7594 27.8932 19.7829 27.8363C19.8064 27.7793 19.8184 27.7183 19.8182 27.6566V26.3488C19.8173 26.0395 19.6941 25.7431 19.4754 25.5244C19.2567 25.3057 18.9603 25.1825 18.651 25.1816Z" fill="#265CAA"/>
</svg>
