<svg width="70" height="70" viewBox="0 0 70 70" fill="none" xmlns="http://www.w3.org/2000/svg">
<g clip-path="url(#clip0_100_357)">
<path d="M67.6602 57.4499H65.6182V22.7349C65.6182 19.357 62.8699 16.6087 59.492 16.6087H44.5648C43.4964 10.7915 40.7343 5.36891 36.5959 0.929562C36.5369 0.866812 36.4901 0.816824 36.4561 0.779067C36.0705 0.289823 35.4803 0 34.8511 0C34.2247 0 33.6371 0.286633 33.2521 0.772154C33.2191 0.808315 33.1734 0.856176 33.1175 0.916268C29.0483 5.2466 26.2208 10.6458 25.1333 16.6087H10.2103C6.83239 16.6087 4.08412 19.357 4.08412 22.7349V57.4499H2.04206C0.914141 57.4499 0 58.3641 0 59.492C0 65.122 4.58028 69.7023 10.2103 69.7023H59.492C65.122 69.7023 69.7023 65.122 69.7023 59.492C69.7023 58.3641 68.7882 57.4499 67.6602 57.4499ZM59.492 20.6929C60.6178 20.6929 61.5341 21.6091 61.5341 22.7349V57.4499H57.4499C57.4499 55.2643 56.5682 53.2057 54.9676 51.6524C53.3919 50.1235 51.3243 49.2817 49.1456 49.2817C48.7845 49.2817 48.4245 49.3062 48.0671 49.3551C46.6451 46.8349 43.9543 45.1976 40.9773 45.1976V39.4187C41.0917 39.1097 41.2453 38.7358 41.4198 38.3179L43.6176 40.5152C44.4148 41.3129 45.7081 41.3129 46.5052 40.5152C47.3029 39.7181 47.3029 38.4253 46.5052 37.6276L43.0428 34.1651C44.084 31.1196 45.0614 27.1009 45.0614 22.034C45.0614 21.5863 45.0503 21.139 45.0301 20.6929H59.492ZM16.4726 57.4499C16.4726 55.1978 18.3046 53.3658 20.5567 53.3658C21.0657 53.3658 21.5762 53.4669 22.0739 53.6668C23.2077 54.1226 24.4866 53.4855 24.8057 52.3054C25.2875 50.525 26.8993 49.2817 28.725 49.2817C30.9771 49.2817 32.8091 47.4497 32.8091 45.1976V41.1135H36.8932V45.1976C36.8932 47.4497 38.7252 49.2817 40.9773 49.2817C42.8029 49.2817 44.4148 50.525 44.8966 52.3054C45.2157 53.4844 46.4941 54.1226 47.6284 53.6668C48.1261 53.4669 48.6366 53.3658 49.1456 53.3658C51.4333 53.3658 53.3658 55.2361 53.3658 57.4499H16.4726ZM32.1683 37.0293C32.096 36.8549 32.0199 36.6741 31.9417 36.4869C31.5381 35.5249 31.043 34.3428 30.5639 32.9436H39.1389C38.6662 34.321 38.1791 35.4845 37.7813 36.4327C37.6951 36.639 37.6116 36.8379 37.5324 37.0293H32.1683ZM40.9773 22.034C40.9773 24.5951 40.6918 26.8685 40.2716 28.8611H29.4317C29.0111 26.8653 28.725 24.5909 28.725 22.034C28.725 20.1994 28.9196 18.3828 29.2961 16.6087H40.4014C40.7811 18.3854 40.9773 20.202 40.9773 22.034ZM34.8464 5.1328C36.6922 7.39396 38.1477 9.88857 39.1762 12.5246H30.5139C31.5413 9.88059 32.9979 7.38651 34.8464 5.1328ZM8.16824 22.7349C8.16824 21.6091 9.08451 20.6913 10.2103 20.6913H24.6717C24.652 21.1374 24.6409 21.5863 24.6409 22.034C24.6409 26.1804 25.3189 30.1831 26.6648 34.1593L23.1971 37.6276C22.3994 38.4248 22.3994 39.7175 23.1971 40.5152C23.9942 41.3129 25.2875 41.3129 26.0847 40.5152L28.2809 38.3189C28.4569 38.739 28.6112 39.1139 28.725 39.4192V45.1976C25.748 45.1976 23.0572 46.8349 21.6352 49.3551C21.2778 49.3062 20.9178 49.2817 20.5567 49.2817C16.0525 49.2817 12.3885 52.9457 12.3885 57.4499H8.16824V22.7349ZM59.492 65.6182H10.2103C7.54764 65.6182 5.27692 63.9095 4.43403 61.5325H65.2683C64.4254 63.9095 62.1547 65.6182 59.492 65.6182Z" fill="#265CAA"/>
<path d="M36.8918 22.734C36.8918 23.8617 35.9779 24.7756 34.8502 24.7756C33.7225 24.7756 32.8086 23.8617 32.8086 22.734C32.8086 21.6063 33.7225 20.6924 34.8502 20.6924C35.9779 20.6924 36.8918 21.6063 36.8918 22.734Z" fill="#265CAA"/>
</g>
<defs>
<clipPath id="clip0_100_357">
<rect width="69.7023" height="69.7023" fill="white"/>
</clipPath>
</defs>
</svg>
