<svg width="30" height="30" viewBox="0 0 30 30" fill="none" xmlns="http://www.w3.org/2000/svg">
<g clip-path="url(#clip0_100_157)">
<path d="M15.6129 9.09668H5.34971C5.13853 9.09668 4.9668 9.26848 4.9668 9.47965V11.2769C4.9668 11.488 5.13853 11.6599 5.34971 11.6599H15.6129C15.824 11.6599 15.9958 11.4881 15.9958 11.2769V9.47965C15.9958 9.26848 15.824 9.09668 15.6129 9.09668Z" fill="#265CAA"/>
<path d="M24.7022 9.09668H21.588C21.3769 9.09668 21.2051 9.26848 21.2051 9.47965V11.2769C21.2051 11.4881 21.3769 11.6599 21.588 11.6599H24.7022C24.9134 11.6599 25.0852 11.4881 25.0852 11.2769V9.47965C25.0851 9.26848 24.9134 9.09668 24.7022 9.09668Z" fill="#265CAA"/>
<path d="M0.0380859 20.3994C0.28793 22.1155 1.76865 23.438 3.55301 23.438H14.1584V27.5394H7.91561C7.43016 27.5394 7.03664 27.9329 7.03664 28.4183C7.03664 28.9038 7.43022 29.2973 7.91561 29.2973H22.0426C22.528 29.2973 22.9215 28.9037 22.9215 28.4183C22.9215 27.9329 22.5279 27.5394 22.0426 27.5394H15.9164V23.438H26.4479C28.2322 23.438 29.713 22.1155 29.9629 20.3994H0.0380859Z" fill="#265CAA"/>
<path d="M0 5.52258V18.6415H30V5.52258H0ZM19.4467 9.47995C19.4467 8.2994 20.4071 7.33905 21.5876 7.33905H24.7017C25.8823 7.33905 26.8426 8.29946 26.8426 9.47995V11.2772C26.8426 12.4577 25.8822 13.4181 24.7017 13.4181H21.5876C20.407 13.4181 19.4467 12.4577 19.4467 11.2772V9.47995ZM3.20918 9.47995C3.20918 8.2994 4.16959 7.33905 5.35008 7.33905H15.6132C16.7938 7.33905 17.7541 8.29946 17.7541 9.47995V11.2772C17.7541 12.4577 16.7937 13.4181 15.6132 13.4181H5.35008C4.16953 13.4181 3.20918 12.4577 3.20918 11.2772V9.47995ZM9.38859 16.8519H4.0882C3.60275 16.8519 3.20924 16.4583 3.20924 15.973C3.20924 15.4876 3.60281 15.094 4.0882 15.094H9.38859C9.87404 15.094 10.2676 15.4875 10.2676 15.973C10.2676 16.4584 9.87398 16.8519 9.38859 16.8519ZM25.9636 16.8519H12.7729C12.2875 16.8519 11.8939 16.4583 11.8939 15.973C11.8939 15.4876 12.2875 15.094 12.7729 15.094H25.9637C26.4491 15.094 26.8426 15.4875 26.8426 15.973C26.8426 16.4584 26.449 16.8519 25.9636 16.8519Z" fill="#265CAA"/>
<path d="M26.4479 0.702148H3.55301C1.76063 0.702148 0.274863 2.03674 0.0351562 3.7642H29.9658C29.7261 2.03674 28.2404 0.702148 26.4479 0.702148Z" fill="#265CAA"/>
</g>
<defs>
<clipPath id="clip0_100_157">
<rect width="30" height="30" fill="#265CAA"/>
</clipPath>
</defs>
</svg>
