<svg width="30" height="30" viewBox="0 0 30 30" fill="none" xmlns="http://www.w3.org/2000/svg">
<g clip-path="url(#clip0_100_233)">
<path d="M18.0125 26.4705H11.9874L10.2227 24.7058H0C0 27.6297 2.37024 29.9999 5.29412 29.9999H24.7059C27.6298 29.9999 30 27.6297 30 24.7058H19.7772L18.0125 26.4705Z" fill="#265CAA"/>
<path d="M14.9991 17.6475C14.026 17.6475 13.2344 18.4391 13.2344 19.4122H16.7638C16.7638 18.4378 15.9746 17.6475 14.9991 17.6475Z" fill="#265CAA"/>
<path d="M14.9995 15.882C15.4861 15.882 15.8819 15.4862 15.8819 14.9996C15.8376 13.8307 14.1613 13.831 14.1172 14.9996C14.1172 15.4862 14.513 15.882 14.9995 15.882Z" fill="#265CAA"/>
<path d="M3.5293 9.7056V10.2863C4.63789 10.6781 5.89124 10.699 7.05871 10.2863V9.7056C6.97224 7.36566 3.61671 7.36966 3.5293 9.7056Z" fill="#265CAA"/>
<path d="M1.79291 9.26448C1.91462 8.29348 2.43203 7.44377 3.17862 6.88289C1.86874 5.18465 3.13174 2.62706 5.29444 2.64706C7.45603 2.627 8.71974 5.18348 7.41127 6.88148C8.18103 7.46089 8.67762 8.31283 8.79562 9.26477C12.4164 6.10236 10.1681 -0.00605432 5.29433 4.50386e-06C0.420856 -0.00605432 -1.82767 6.10289 1.79291 9.26448Z" fill="#265CAA"/>
<path d="M6.17692 5.29446C6.17692 4.80793 5.78109 4.41211 5.29456 4.41211C4.12562 4.4564 4.12592 6.1327 5.29456 6.17682C5.78109 6.17682 6.17692 5.78099 6.17692 5.29446Z" fill="#265CAA"/>
<path d="M5.29504 12.353C4.00927 12.353 2.80386 12.0091 1.76562 11.4084V22.9412H10.9546L12.7193 24.706H17.2825L19.0472 22.9412H28.2362C28.2362 22.6243 28.2362 16.3817 28.2362 11.4084C23.6646 14.1415 17.57 10.6585 17.648 5.29419C15.9048 5.29419 14.0979 5.29419 12.3539 5.29419C12.3539 9.19266 9.19351 12.353 5.29504 12.353ZM9.7068 21.1765H5.29504V19.4118H9.7068V21.1765ZM9.7068 17.6471H5.29504V15.8824H9.7068V17.6471ZM20.295 15.8824H24.7068V17.6471H20.295V15.8824ZM20.295 19.4118H24.7068V21.1765H20.295V19.4118ZM11.4715 19.4118C11.4715 18.2588 12.0274 17.2333 12.8851 16.5888C11.5753 14.8907 12.8383 12.3331 15.0009 12.3531C17.1626 12.333 18.4262 14.8895 17.1177 16.5875C18.0091 17.2584 18.5303 18.29 18.5303 19.4118V21.1765H11.4715V19.4118Z" fill="#265CAA"/>
<path d="M22.9414 9.7056V10.2863C24.05 10.6781 25.3033 10.699 26.4708 10.2863V9.7056C26.3843 7.36566 23.0288 7.36966 22.9414 9.7056Z" fill="#265CAA"/>
<path d="M21.2031 9.26448C21.3248 8.29348 21.8422 7.44377 22.5888 6.88289C21.2789 5.18465 22.5419 2.62706 24.7046 2.64706C26.8662 2.62695 28.1299 5.18348 26.8214 6.88148C27.5912 7.46089 28.0878 8.31283 28.2058 9.26477C31.8266 6.10236 29.5782 -0.00605432 24.7045 4.50386e-06C19.831 -0.00605432 17.5825 6.10289 21.2031 9.26448Z" fill="#265CAA"/>
<path d="M25.5871 5.29446C25.5871 4.80793 25.1913 4.41211 24.7047 4.41211C23.5358 4.4564 23.5361 6.1327 24.7047 6.17682C25.1913 6.17682 25.5871 5.78099 25.5871 5.29446Z" fill="#265CAA"/>
</g>
<defs>
<clipPath id="clip0_100_233">
<rect width="30" height="30" fill="#265CAA"/>
</clipPath>
</defs>
</svg>
