<svg width="70" height="70" viewBox="0 0 70 70" fill="none" xmlns="http://www.w3.org/2000/svg">
<g clip-path="url(#clip0_100_287)">
<path d="M67.6602 1.86035H2.04206C0.914298 1.86035 0 2.77465 0 3.90241V55.3345C0 56.4623 0.914298 57.3766 2.04206 57.3766H26.9021V63.7571H26.3138C25.1861 63.7571 24.2718 64.6714 24.2718 65.7991C24.2718 66.9269 25.1861 67.8412 26.3138 67.8412H43.3885C44.5162 67.8412 45.4305 66.9269 45.4305 65.7991C45.4305 64.6714 44.5162 63.7571 43.3885 63.7571H42.8002V57.3766H67.6602C68.788 57.3766 69.7023 56.4623 69.7023 55.3345V3.90241C69.7023 2.77465 68.788 1.86035 67.6602 1.86035ZM4.08412 5.94447H65.6182V42.6655H4.08412V5.94447ZM38.7161 63.7571H30.9862V57.3766H38.716V63.7571H38.7161ZM65.6182 53.2925H4.08412V46.7496H65.6182V53.2925Z" fill="#265CAA"/>
<path d="M30.8078 14.5039C29.68 14.5039 28.7657 15.4182 28.7657 16.546V27.2133C28.7657 27.9273 28.561 28.8501 26.9646 29.6542C26.4726 29.9021 25.9372 30.0226 25.3284 30.0226C25.3262 30.0226 25.3243 30.0226 25.3223 30.0226C24.6572 30.0216 24.0804 29.8592 23.5583 29.5257C22.3202 28.7346 22.0665 28.0338 22.0665 27.2246V16.5461C22.0665 15.4183 21.1522 14.504 20.0245 14.504C18.8967 14.504 17.9824 15.4183 17.9824 16.5461V27.2246C17.9824 29.6037 19.1188 31.5359 21.3596 32.9675C22.5398 33.7216 23.8712 34.1048 25.3168 34.1069H25.328C26.5725 34.1069 27.7413 33.8361 28.8018 33.302C32.1475 31.6168 32.8498 29.0609 32.8498 27.2134V16.5461C32.8498 15.4182 31.9355 14.5039 30.8078 14.5039Z" fill="#265CAA"/>
<path d="M50.8538 14.8757C49.9319 14.2262 48.6578 14.4472 48.0084 15.3691L44.2128 20.757L40.4233 15.3702C39.7743 14.4479 38.5006 14.2264 37.5781 14.8749C36.6558 15.5239 36.434 16.7976 37.0829 17.72L41.7143 24.3036L37.0759 30.8878C36.4264 31.8097 36.6474 33.0837 37.5693 33.7332C37.9268 33.9851 38.3372 34.1059 38.7436 34.1059C39.3854 34.1059 40.017 33.8043 40.4147 33.2398L44.2103 27.8519L47.9999 33.2387C48.3975 33.8039 49.0296 34.1059 49.6718 34.1059C50.0777 34.1059 50.4878 33.9852 50.845 33.734C51.7673 33.085 51.9891 31.8113 51.3403 30.8889L46.7089 24.3053L51.3472 17.7211C51.9967 16.7992 51.7758 15.5254 50.8538 14.8757Z" fill="#265CAA"/>
</g>
<defs>
<clipPath id="clip0_100_287">
<rect width="69.7023" height="69.7023" fill="white"/>
</clipPath>
</defs>
</svg>
