<svg width="30" height="30" viewBox="0 0 30 30" fill="none" xmlns="http://www.w3.org/2000/svg">
<g clip-path="url(#clip0_100_184)">
<path d="M7.03221 8.84766V25.5469C7.03221 26.5399 6.68855 27.4468 6.13086 28.1836H27.3642C28.8182 28.1836 30.001 27.0008 30.001 25.5469V8.84766H7.03221ZM15.5638 19.6521L14.3209 20.8949L11.9417 18.5156L14.3209 16.1364L15.5638 17.3793L14.4274 18.5156L15.5638 19.6521ZM18.4408 23.0827L16.7173 22.7376L18.4752 13.9485L20.1986 14.2936L18.4408 23.0827ZM22.595 20.8948L21.3522 19.652L22.4886 18.5156L21.3522 17.3792L22.595 16.1364L24.9743 18.5156L22.595 20.8948Z" fill="#265CAA"/>
<path d="M5.27344 25.5469C5.27344 20.2109 5.27344 15.5761 5.27344 7.08984H28.2422V5.33203H10.5469V1.81641H0V25.5469C0 27.0008 1.18277 28.1836 2.63672 28.1836C4.1141 28.1836 5.27344 26.9323 5.27344 25.5469Z" fill="#265CAA"/>
</g>
<defs>
<clipPath id="clip0_100_184">
<rect width="30" height="30" fill="#265CAA"/>
</clipPath>
</defs>
</svg>
