<svg width="30" height="30" viewBox="0 0 30 30" fill="none" xmlns="http://www.w3.org/2000/svg">
<g clip-path="url(#clip0_100_141)">
<path d="M28.4822 25.2891H21.1287C20.8172 25.2891 20.5648 25.5413 20.5648 25.8524C20.5648 26.575 19.9785 27.1607 19.2553 27.1607H10.7447C10.0215 27.1607 9.43517 26.575 9.43517 25.8524C9.43517 25.5413 9.18275 25.2891 8.87133 25.2891H1.51781C0.679512 25.2891 0 25.9679 0 26.8054C0 28.5695 1.43145 29.9996 3.19729 29.9996H26.8027C28.5686 29.9996 30 28.5695 30 26.8054C30 25.9679 29.3205 25.2891 28.4822 25.2891Z" fill="#265CAA"/>
<path d="M26.2078 0H3.79219C1.70098 0 0 1.70039 0 3.78926V4.78359H30V3.78926C30 1.70039 28.299 0 26.2078 0ZM4.62668 3.40775H3.04846C2.56307 3.40775 2.16955 3.01424 2.16955 2.52885C2.16955 2.04346 2.56307 1.64994 3.04846 1.64994H4.62668C5.11207 1.64994 5.50559 2.04346 5.50559 2.52885C5.50559 3.01424 5.11207 3.40775 4.62668 3.40775ZM8.72824 3.40775H7.15002C6.66463 3.40775 6.27111 3.01424 6.27111 2.52885C6.27111 2.04346 6.66463 1.64994 7.15002 1.64994H8.72824C9.21363 1.64994 9.60715 2.04346 9.60715 2.52885C9.60715 3.01424 9.21363 3.40775 8.72824 3.40775ZM12.8298 3.40775H11.2516C10.7662 3.40775 10.3727 3.01424 10.3727 2.52885C10.3727 2.04346 10.7662 1.64994 11.2516 1.64994H12.8298C13.3152 1.64994 13.7087 2.04346 13.7087 2.52885C13.7087 3.01424 13.3152 3.40775 12.8298 3.40775Z" fill="#265CAA"/>
<path d="M15.0001 17.3273C16.278 17.3273 17.3176 16.2831 17.3176 14.9996C17.3176 13.7161 16.2779 12.6719 15.0001 12.6719C13.7222 12.6719 12.6826 13.7161 12.6826 14.9996C12.6826 16.2831 13.7222 17.3273 15.0001 17.3273Z" fill="#265CAA"/>
<path d="M0 19.7445C0 21.8346 1.70098 23.5338 3.79219 23.5338H10.0283C10.51 23.5338 10.9002 23.924 10.9002 24.4057C10.9002 24.6664 11.0063 24.9025 11.1768 25.0736C11.3479 25.2441 11.584 25.3502 11.8447 25.3502H18.1582C18.6803 25.3502 19.1033 24.9272 19.1033 24.4057C19.1033 24.1648 19.2012 23.9469 19.3588 23.7893C19.5164 23.6316 19.7344 23.5338 19.9746 23.5338H26.2078C28.299 23.5338 30 21.8346 30 19.7445V6.54102H0V19.7445ZM10.2942 14.1221H11.0194C11.1241 13.6444 11.3124 13.1977 11.5681 12.7984L11.0518 12.2805C10.7091 11.9367 10.7101 11.3802 11.0538 11.0376C11.3975 10.6948 11.9541 10.6957 12.2968 11.0396L12.8106 11.5551C13.2063 11.3014 13.6484 11.1143 14.121 11.0098V10.2787C14.121 9.79332 14.5146 9.3998 14.9999 9.3998C15.4853 9.3998 15.8788 9.79332 15.8788 10.2787V11.0097C16.3523 11.1145 16.7953 11.3021 17.1915 11.5564L17.7078 11.0385C18.0504 10.6947 18.607 10.6938 18.9507 11.0365C19.2945 11.3792 19.2954 11.9357 18.9527 12.2795L18.4332 12.8006C18.6877 13.1986 18.8753 13.6435 18.9799 14.1192H19.7057C20.1911 14.1192 20.5846 14.5127 20.5846 14.9981C20.5846 15.4835 20.1911 15.877 19.7057 15.877H18.9806C18.8764 16.3521 18.6896 16.7966 18.4359 17.1943L18.9537 17.7138C19.2964 18.0576 19.2955 18.6141 18.9517 18.9567C18.7802 19.1277 18.5557 19.2131 18.3312 19.2131C18.1058 19.2131 17.8805 19.127 17.7087 18.9547L17.1956 18.44C16.7991 18.6952 16.3557 18.8835 15.8816 18.9887V19.7204C15.8816 20.2058 15.4881 20.5993 15.0027 20.5993C14.5173 20.5993 14.1238 20.2058 14.1238 19.7204V18.99C13.6504 18.8856 13.2076 18.6985 12.8112 18.4445L12.2996 18.9577C12.128 19.1299 11.9026 19.2161 11.6771 19.2161C11.4527 19.2161 11.2282 19.1307 11.0566 18.9597C10.7129 18.617 10.712 18.0605 11.0546 17.7168L11.5683 17.2014C11.3129 16.8027 11.1247 16.3568 11.0198 15.8799H10.294C9.80859 15.8799 9.41508 15.4863 9.41508 15.001C9.41508 14.5156 9.80883 14.1221 10.2942 14.1221Z" fill="#265CAA"/>
</g>
<defs>
<clipPath id="clip0_100_141">
<rect width="30" height="30" fill="#265CAA"/>
</clipPath>
</defs>
</svg>
