<svg width="30" height="30" viewBox="0 0 30 30" fill="none" xmlns="http://www.w3.org/2000/svg">
<g clip-path="url(#clip0_0_21568)">
<path d="M29.9674 9.98952V7.49224C29.9674 4.04973 27.1667 1.24902 23.7242 1.24902H6.24321C2.8007 1.24902 0 4.04973 0 7.49224V9.98952H29.9674ZM10.6135 3.74631C11.6473 3.74631 12.4864 4.5854 12.4864 5.61927C12.4864 6.65315 11.6473 7.49224 10.6135 7.49224C9.57958 7.49224 8.7405 6.65315 8.7405 5.61927C8.7405 4.5854 9.57958 3.74631 10.6135 3.74631ZM5.61889 3.74631C6.65277 3.74631 7.49185 4.5854 7.49185 5.61927C7.49185 6.65315 6.65277 7.49224 5.61889 7.49224C4.58501 7.49224 3.74593 6.65315 3.74593 5.61927C3.74593 4.5854 4.58501 3.74631 5.61889 3.74631ZM0 12.4868V22.4759C0 25.9185 2.8007 28.7192 6.24321 28.7192H23.7242C27.1667 28.7192 29.9674 25.9185 29.9674 22.4759V12.4868H0ZM10.0216 20.8802L12.7212 23.4449C13.2206 23.9194 13.2419 24.7098 12.7661 25.2092C12.2916 25.7099 11.5 25.7299 11.0018 25.2542L8.2785 22.6682C7.16596 21.5569 7.16596 19.7864 8.25477 18.6976L10.9781 15.9743C11.4663 15.486 12.2554 15.486 12.7436 15.9743C13.2319 16.4625 13.2319 17.2516 12.7436 17.7398L10.0204 20.4631C9.90548 20.578 9.90548 20.7653 10.0204 20.8802H10.0216ZM21.7101 22.6458L19.0006 25.2729C18.5061 25.7524 17.7157 25.7411 17.235 25.2467C16.7543 24.7522 16.7668 23.9606 17.2612 23.4811L19.9571 20.8677C20.0582 20.7666 20.0582 20.5793 19.9433 20.4644L17.22 17.7411C16.7318 17.2529 16.7318 16.4637 17.22 15.9755C17.7082 15.4873 18.4974 15.4873 18.9856 15.9755L21.7089 18.6988C22.7977 19.7876 22.7977 21.5582 21.7089 22.647L21.7101 22.6458Z" fill="#265CAA"/>
</g>
<defs>
<clipPath id="clip0_0_21568">
<rect width="29.9674" height="29.9674" fill="#265CAA"/>
</clipPath>
</defs>
</svg>
