<svg width="30" height="30" viewBox="0 0 30 30" fill="none" xmlns="http://www.w3.org/2000/svg">
<path d="M10.3125 5.625L12.1875 1.875H11.25L9.375 5.625H10.3125Z" fill="#265CAA"/>
<path d="M8.4375 5.625L10.3125 1.875H2.8125C2.29477 1.875 1.875 2.29477 1.875 2.8125V5.625H8.4375ZM6.5625 2.8125C7.08029 2.8125 7.5 3.23221 7.5 3.75C7.5 4.26779 7.08029 4.6875 6.5625 4.6875C6.04477 4.6875 5.625 4.26779 5.625 3.75C5.625 3.23221 6.04477 2.8125 6.5625 2.8125ZM3.75 2.8125C4.26779 2.8125 4.6875 3.23221 4.6875 3.75C4.6875 4.26779 4.26779 4.6875 3.75 4.6875C3.23227 4.6875 2.8125 4.26779 2.8125 3.75C2.8125 3.23221 3.23227 2.8125 3.75 2.8125Z" fill="#265CAA"/>
<path d="M28.125 5.625V2.8125C28.125 2.29477 27.7052 1.875 27.1875 1.875H13.125L11.25 5.625H28.125Z" fill="#265CAA"/>
<path d="M27.1875 15.9375C27.7052 15.9375 28.125 15.5177 28.125 15V6.5625H1.875V15C1.875 15.5177 2.29477 15.9375 2.8125 15.9375H14.0625V17.3442L10.9381 19.6875H5.625C5.10681 19.6875 4.6875 20.1068 4.6875 20.625V23.4375H2.8125C2.29431 23.4375 1.875 23.8568 1.875 24.375V27.1875C1.875 27.7057 2.29431 28.125 2.8125 28.125H8.4375C8.95569 28.125 9.375 27.7057 9.375 27.1875V24.375C9.375 23.8568 8.95569 23.4375 8.4375 23.4375H6.5625V21.5625H10.9381L14.4379 24.1873C14.6045 24.3127 14.8022 24.375 15 24.375C15.1978 24.375 15.3955 24.3127 15.5621 24.1873L19.0619 21.5625H23.4375V23.4375H21.5625C21.0443 23.4375 20.625 23.8568 20.625 24.375V27.1875C20.625 27.7057 21.0443 28.125 21.5625 28.125H27.1875C27.7057 28.125 28.125 27.7057 28.125 27.1875V24.375C28.125 23.8568 27.7057 23.4375 27.1875 23.4375H25.3125V20.625C25.3125 20.1068 24.8932 19.6875 24.375 19.6875H19.0619L15.9375 17.3442V15.9375H27.1875ZM17.9811 9.26651C17.7824 9.1008 17.7554 8.80508 17.9211 8.60596C18.0868 8.40729 18.3821 8.38028 18.5817 8.54599L21.3942 10.8897C21.5008 10.979 21.5626 11.1108 21.5626 11.25C21.5626 11.3892 21.5008 11.521 21.3942 11.6103L18.5817 13.954C18.4938 14.0268 18.3876 14.0625 18.2818 14.0625C18.1472 14.0625 18.014 14.0053 17.9211 13.894C17.7554 13.6949 17.7824 13.3992 17.9811 13.2335L20.3614 11.25L17.9811 9.26651ZM12.0189 13.2335C12.2176 13.3992 12.2446 13.6949 12.0789 13.894C11.986 14.0053 11.8528 14.0625 11.7182 14.0625C11.6124 14.0625 11.5062 14.0268 11.4183 13.954L8.60584 11.6103C8.49918 11.521 8.43739 11.3892 8.43739 11.25C8.43739 11.1108 8.49918 10.979 8.60584 10.8897L11.4183 8.54599C11.6179 8.38028 11.9132 8.40729 12.0789 8.60596C12.2446 8.80508 12.2176 9.1008 12.0189 9.26651L9.63856 11.25L12.0189 13.2335ZM13.9957 13.8344C13.9078 13.9809 13.7527 14.0619 13.5933 14.0619C13.5114 14.0619 13.4281 14.0404 13.3526 13.9951C13.1306 13.8619 13.0587 13.574 13.1919 13.3519L16.0044 8.66444C16.1381 8.44196 16.4292 8.37193 16.6471 8.50376C16.8696 8.63697 16.9419 8.9249 16.8082 9.14692L13.9957 13.8344Z" fill="#265CAA"/>
</svg>
