<svg width="51" height="51" viewBox="0 0 51 51" fill="none" xmlns="http://www.w3.org/2000/svg">
<path fill-rule="evenodd" clip-rule="evenodd" d="M25.1563 17.5C20.9311 17.5 17.5 20.9311 17.5 25.1563C17.5 29.3814 20.9311 32.8125 25.1563 32.8125C29.3814 32.8125 32.8125 29.3814 32.8125 25.1563C32.8125 20.9311 29.3814 17.5 25.1563 17.5ZM25.1563 19.6875C28.175 19.6875 30.625 22.1375 30.625 25.1563C30.625 28.175 28.175 30.625 25.1563 30.625C22.1375 30.625 19.6875 28.175 19.6875 25.1563C19.6875 22.1375 22.1375 19.6875 25.1563 19.6875Z" fill="white"/>
<path fill-rule="evenodd" clip-rule="evenodd" d="M13.125 40.4688C12.1844 39.7633 11.0338 39.375 9.84375 39.375C8.43609 39.375 6.87641 39.375 5.46875 39.375C4.01844 39.375 2.62719 39.9514 1.60125 40.9763C0.576411 42.0022 0 43.3934 0 44.8438V47.0313C0 48.8436 1.46891 50.3125 3.28125 50.3125H47.0312C48.8436 50.3125 50.3125 48.8436 50.3125 47.0313V44.8438C50.3125 43.3934 49.7361 42.0022 48.7112 40.9763C47.6853 39.9514 46.2941 39.375 44.8438 39.375C43.4361 39.375 41.8764 39.375 40.4688 39.375C39.2788 39.375 38.1281 39.7633 37.1875 40.4688C37.1875 39.0184 36.6111 37.6272 35.5862 36.6013C34.5603 35.5764 33.1691 35 31.7188 35C27.9059 35 22.4066 35 18.5938 35C17.1434 35 15.7522 35.5764 14.7263 36.6013C13.7014 37.6272 13.125 39.0184 13.125 40.4688ZM35 40.4688V47.0313C35 47.3211 34.8852 47.6 34.6795 47.8045C34.475 48.0102 34.1961 48.125 33.9062 48.125H16.4062C16.1164 48.125 15.8375 48.0102 15.633 47.8045C15.4273 47.6 15.3125 47.3211 15.3125 47.0313V40.4688C15.3125 39.5981 15.6581 38.7636 16.2739 38.1489C16.8886 37.5331 17.7231 37.1875 18.5938 37.1875H31.7188C32.5894 37.1875 33.4239 37.5331 34.0386 38.1489C34.6544 38.7636 35 39.5981 35 40.4688ZM13.125 44.8438V47.0313C13.125 47.635 12.635 48.125 12.0312 48.125H3.28125C2.6775 48.125 2.1875 47.635 2.1875 47.0313V44.8438C2.1875 43.9731 2.53312 43.1386 3.1489 42.5239C3.76359 41.9081 4.59812 41.5625 5.46875 41.5625H9.84375C10.7144 41.5625 11.5489 41.9081 12.1636 42.5239C12.7794 43.1386 13.125 43.9731 13.125 44.8438ZM37.1875 47.0313V44.8438C37.1875 43.9731 37.5331 43.1386 38.1489 42.5239C38.7636 41.9081 39.5981 41.5625 40.4688 41.5625H44.8438C45.7144 41.5625 46.5489 41.9081 47.1636 42.5239C47.7794 43.1386 48.125 43.9731 48.125 44.8438V47.0313C48.125 47.635 47.635 48.125 47.0312 48.125H38.2812C37.6775 48.125 37.1875 47.635 37.1875 47.0313Z" fill="white"/>
<path fill-rule="evenodd" clip-rule="evenodd" d="M7.65625 26.252C4.6375 26.252 2.1875 28.702 2.1875 31.7207C2.1875 34.7395 4.6375 37.1895 7.65625 37.1895C10.675 37.1895 13.125 34.7395 13.125 31.7207C13.125 28.702 10.675 26.252 7.65625 26.252ZM7.65625 28.4395C9.4675 28.4395 10.9375 29.9095 10.9375 31.7207C10.9375 33.532 9.4675 35.002 7.65625 35.002C5.845 35.002 4.375 33.532 4.375 31.7207C4.375 29.9095 5.845 28.4395 7.65625 28.4395Z" fill="white"/>
<path fill-rule="evenodd" clip-rule="evenodd" d="M42.6562 26.252C39.6375 26.252 37.1875 28.702 37.1875 31.7207C37.1875 34.7395 39.6375 37.1895 42.6562 37.1895C45.675 37.1895 48.125 34.7395 48.125 31.7207C48.125 28.702 45.675 26.252 42.6562 26.252ZM42.6562 28.4395C44.4675 28.4395 45.9375 29.9095 45.9375 31.7207C45.9375 33.532 44.4675 35.002 42.6562 35.002C40.845 35.002 39.375 33.532 39.375 31.7207C39.375 29.9095 40.845 28.4395 42.6562 28.4395Z" fill="white"/>
<path fill-rule="evenodd" clip-rule="evenodd" d="M6.43336 23.0057C6.21133 22.1209 5.62617 21.3509 4.79382 20.9079C4.40554 20.7012 3.97462 20.4715 3.57649 20.2539C3.57321 20.2517 3.56992 20.2495 3.56664 20.2473C3.11821 20.0089 2.89399 19.4915 3.02743 19.0015C3.20352 18.3682 3.40696 17.7426 3.63118 17.1247C3.81384 16.65 4.29945 16.3623 4.80367 16.4334H4.80477C5.26087 16.4968 5.75195 16.5657 6.19601 16.6215C7.46913 16.7954 8.72695 16.2081 9.41164 15.1198C9.81632 14.4854 10.2626 13.8707 10.7482 13.2889H10.7493C11.5762 12.2968 11.7457 10.9121 11.1802 9.75059C10.9877 9.35465 10.7745 8.91605 10.5809 8.5059C10.5787 8.50262 10.5765 8.49934 10.5754 8.49497C10.3534 8.03778 10.4759 7.4887 10.8718 7.17042C11.387 6.76136 11.9185 6.37527 12.4632 6.00668C12.8898 5.72996 13.452 5.78355 13.8184 6.13684C14.1498 6.4573 14.5074 6.80073 14.8334 7.10698C15.762 7.9962 17.1248 8.2609 18.318 7.78293C19.018 7.50731 19.7399 7.27215 20.476 7.08731C21.7284 6.77121 22.6799 5.75073 22.9052 4.4787C22.9818 4.04448 23.0671 3.56433 23.1513 3.11918C23.1524 3.1148 23.1524 3.11042 23.1535 3.10714C23.2421 2.60621 23.6654 2.23433 24.1729 2.20917C24.8291 2.18183 25.4865 2.18184 26.1438 2.20372C26.6524 2.22997 27.0746 2.60402 27.1632 3.10496C27.1632 3.10605 27.1643 3.10606 27.1643 3.10606C27.2441 3.55996 27.3305 4.04778 27.4148 4.48746C27.6423 5.75184 28.5895 6.76683 29.8374 7.08183C30.5648 7.26996 31.2877 7.50403 31.991 7.78731H31.9921C33.1909 8.26856 34.5591 8.00058 35.4899 7.1048C35.8071 6.79964 36.1582 6.46059 36.4885 6.14887C36.4907 6.14668 36.494 6.1434 36.4973 6.14121C36.8626 5.78793 37.4237 5.73543 37.8491 6.01434C38.396 6.37746 38.9287 6.76355 39.4471 7.16823C39.843 7.48761 39.9655 8.03887 39.7424 8.49715C39.5412 8.91168 39.3235 9.35793 39.1321 9.76262C38.5732 10.9198 38.7438 12.2979 39.5674 13.2856C40.0454 13.8653 40.4927 14.48 40.8952 15.122H40.8963C41.5832 16.2157 42.8476 16.8042 44.1273 16.6259C44.5637 16.5657 45.046 16.4979 45.4966 16.44C45.4999 16.44 45.5043 16.4389 45.5087 16.4389C46.0118 16.3689 46.4963 16.6554 46.6768 17.1301C46.9065 17.7459 47.1099 18.3715 47.2915 19.0037C47.4238 19.4948 47.1985 20.0132 46.749 20.2517V20.2528C46.3399 20.4693 45.9013 20.7034 45.5087 20.92C44.6906 21.3553 44.1054 22.1231 43.8845 23.0068C43.7379 23.592 44.0934 24.187 44.6796 24.3335C45.2648 24.4801 45.8598 24.1247 46.0063 23.5384C46.0796 23.2453 46.2743 22.9904 46.5499 22.8439C46.5543 22.8406 46.5576 22.8384 46.562 22.8362C46.947 22.6251 47.3768 22.3965 47.7771 22.1833C49.1301 21.4625 49.8038 19.9017 49.4002 18.4229C49.3991 18.4175 49.398 18.4131 49.3969 18.4087C49.1979 17.7186 48.9759 17.035 48.7243 16.3623C48.7243 16.3601 48.7232 16.359 48.7232 16.3568C48.1829 14.9295 46.7293 14.0654 45.2177 14.2711C44.7594 14.329 44.2684 14.3979 43.8243 14.4603C43.3988 14.5193 42.9766 14.3236 42.7481 13.9582C42.2952 13.2364 41.7932 12.5462 41.2507 11.8889C41.2496 11.8867 41.2485 11.8856 41.2474 11.8834C40.9729 11.5553 40.9171 11.0959 41.1041 10.7109C41.1063 10.7065 41.1085 10.7021 41.1096 10.6978C41.2977 10.2996 41.5099 9.86215 41.709 9.45419C42.3795 8.07715 42.0076 6.41793 40.8121 5.45872C40.8077 5.45543 40.8044 5.45215 40.8001 5.44887C40.2335 5.00699 39.6527 4.5848 39.0545 4.18886C39.0523 4.18777 39.0512 4.18668 39.0501 4.18559C37.7737 3.34778 36.0893 3.50308 34.9868 4.55746C34.651 4.87465 34.2945 5.21917 33.9718 5.5298C33.6623 5.82839 33.2051 5.91699 32.8059 5.7573C32.0151 5.43902 31.2035 5.17542 30.3777 4.96214C30.3766 4.96214 30.3745 4.96106 30.3723 4.96106C29.9566 4.85606 29.6416 4.51699 29.5662 4.0959C29.5662 4.09043 29.5651 4.08606 29.564 4.08168C29.482 3.64965 29.3966 3.17059 29.3179 2.72434C29.051 1.21497 27.7746 0.091685 26.2434 0.0184037C26.2379 0.0184037 26.2335 0.0173022 26.228 0.0173022C25.5105 -0.00676029 24.792 -0.0067639 24.0745 0.0238611C24.0734 0.0238611 24.0712 0.0238611 24.0701 0.0238611C22.5454 0.0971424 21.2734 1.21277 21.0021 2.71339C20.9157 3.1673 20.8293 3.6562 20.7516 4.09699C20.6762 4.52027 20.359 4.86043 19.9423 4.96543C19.1154 5.17324 18.3038 5.43683 17.5109 5.74964C17.5087 5.75074 17.5065 5.75183 17.5043 5.75183C17.1073 5.91152 16.6534 5.82292 16.3449 5.52542C16.3416 5.52214 16.3384 5.51887 16.334 5.51559C16.0135 5.21481 15.6635 4.87683 15.3376 4.56183C14.234 3.49871 12.5409 3.33902 11.259 4.18011C11.2557 4.1834 11.2513 4.18558 11.247 4.18886C10.652 4.59027 10.0712 5.01355 9.50788 5.4598C9.50679 5.46089 9.50571 5.46199 9.50461 5.46309C8.31352 6.41793 7.94055 8.0684 8.60336 9.44215C8.80023 9.85887 9.01789 10.3051 9.21367 10.7076C9.40179 11.0948 9.34493 11.5564 9.06931 11.8867C8.52352 12.5407 8.02148 13.2309 7.5632 13.9506C7.5621 13.9517 7.56102 13.9539 7.55993 13.9561C7.33243 14.3181 6.91243 14.5139 6.48806 14.4537C6.48368 14.4537 6.4793 14.4526 6.47384 14.4526C6.03852 14.3968 5.55618 14.3301 5.10665 14.2667C3.58962 14.0545 2.12617 14.9207 1.58367 16.3546C1.58148 16.3601 1.58038 16.3645 1.5782 16.3689C1.3332 17.0437 1.11117 17.7273 0.918669 18.4196C0.918669 18.4207 0.918678 18.4229 0.917584 18.424C0.516178 19.8962 1.18337 21.4504 2.52758 22.1723C2.93227 22.3943 3.36976 22.6273 3.7657 22.8384C4.04242 22.9861 4.23711 23.242 4.31149 23.5373C4.45805 24.1225 5.05305 24.479 5.6382 24.3325C6.22336 24.1859 6.57993 23.5909 6.43336 23.0057Z" fill="white"/>
<path fill-rule="evenodd" clip-rule="evenodd" d="M39.3342 24.0811C38.7841 16.7355 32.6416 10.9375 25.156 10.9375C17.6703 10.9375 11.5278 16.7355 10.9777 24.0811C10.9328 24.6827 11.3846 25.2077 11.9861 25.2536C12.5888 25.2984 13.1138 24.8467 13.1586 24.2441C13.6246 18.0294 18.8221 13.125 25.156 13.125C31.4899 13.125 36.6874 18.0294 37.1533 24.2441C37.1981 24.8467 37.7231 25.2984 38.3258 25.2536C38.9274 25.2077 39.3791 24.6827 39.3342 24.0811Z" fill="white"/>
</svg>
